<svg width="327" height="86" viewBox="0 0 327 86" fill="none" xmlns="http://www.w3.org/2000/svg">
    <g clip-path="url(#u6yjcg7o9a)">
        <mask id="fx2cm9333b" style="mask-type:alpha" maskUnits="userSpaceOnUse" x="0" y="-123" width="327" height="210">
            <g opacity=".8" fill-rule="evenodd" clip-rule="evenodd" fill="#1A79CB">
                <path d="M181.249-78.806c2.481-2.027 2.86-5.67.837-8.145-2.018-2.474-5.669-2.84-8.15-.814-2.481 2.026-2.852 5.677-.835 8.151 2.022 2.474 5.667 2.835 8.148.808zM257.712-121.069c-2.481 2.027-2.86 5.671-.837 8.145 2.018 2.48 5.669 2.841 8.15.814a5.791 5.791 0 0 0 .835-8.145 5.788 5.788 0 0 0-8.148-.814zM212.238-109.075a7.39 7.39 0 0 0-.021-.253c-.006-.082-.017-.161-.027-.247-.011-.082-.023-.167-.032-.249-.017-.086-.029-.171-.044-.253-.017-.086-.038-.167-.053-.253-.023-.087-.038-.167-.061-.253-.021-.087-.048-.167-.07-.255l-.08-.253c-.027-.085-.054-.173-.086-.258-.028-.086-.061-.173-.093-.259-.036-.08-.069-.167-.107-.253a32.808 32.808 0 0 0-.114-.258 4.543 4.543 0 0 0-.124-.265c-.043-.087-.085-.173-.129-.258-.049-.088-.091-.174-.141-.265a4.795 4.795 0 0 0-.15-.258c-.053-.092-.103-.179-.162-.265a3.93 3.93 0 0 0-.167-.264c-.059-.091-.118-.179-.179-.27a10.024 10.024 0 0 0-.188-.264c-.065-.092-.13-.183-.194-.269-.071-.091-.135-.178-.21-.27-.07-.091-.14-.182-.217-.27l-.02-.026c-.006-.012-.018-.021-.021-.033l-.029-.021-.027-.026-.02-.029-.027-.021-.027-.026-.028-.023-.033-.021-.026-.021-.027-.023-.027-.015-.032-.021-.026-.017-.033-.015-.032-.017-.029-.016-.032-.017-.032-.015-.033-.011-.032-.017-.032-.01-.065-.023-.032-.003-.065-.023-.036-.006-.033-.006-.032-.004-.032-.005-.038-.006h-.033l-.032-.006h-.141l-.032.006h-.038l-.065.011-.038.004-.097.017-.038.012-.032.009-.065.023-.032.01-.033.011-.032.017-.032.01-.033.017-.032.015-.032.017-.033.021-.026.017-.033.021-.026.015-.033.023-.026.021-.033.027a39487.132 39487.132 0 0 0-18.45 15.067c-.086.07-.177.146-.263.22-.088.076-.173.152-.261.227l-.253.226c-.085.076-.167.152-.247.226l-.244.228-.235.227a9.69 9.69 0 0 0-.227.226l-.228.226c-.069.074-.145.15-.215.227-.071.074-.141.155-.209.232-.071.074-.135.15-.206.226-.065.074-.129.15-.194.232-.065.074-.129.15-.194.226-.059.08-.124.156-.185.232-.059.074-.118.156-.176.23a21.76 21.76 0 0 0-.168.232c-.059.076-.114.158-.167.232-.054.076-.103.158-.156.232-.05.082-.103.156-.153.232l-.138.238c-.05.074-.092.156-.135.232l-.13.236c-.044.076-.082.158-.124.232v.006l-.114.232c-.038.081-.07.161-.108.237-.032.08-.065.162-.097.236-.032.082-.065.162-.091.243-.033.077-.059.156-.086.238-.027.08-.053.156-.076.236-.027.082-.048.162-.071.243-.021.08-.041.162-.064.242-.015.082-.038.158-.054.238a3.438 3.438 0 0 0-.043.243h-.006c-.01.08-.021.167-.036.247a3.363 3.363 0 0 0-.029.244c-.009.08-.015.161-.021.241a1.894 1.894 0 0 0-.015.25c-.006.08-.006.161-.006.247-.005.081 0 .161 0 .243 0 .086.006.167.01.247l.017.253c.012.082.015.162.027.25.011.08.021.167.038.246.011.088.026.174.044.253.015.088.032.168.047.255.021.086.044.166.065.253.023.086.044.168.07.253.021.086.05.173.076.253.027.088.054.173.086.259l.097.258c.032.082.07.168.103.255.038.086.076.171.112.259.044.085.082.177.125.264.042.086.086.171.13.259.047.085.097.17.144.262l.147.26c.053.092.106.177.162.263.053.093.112.179.167.27.059.088.118.173.177.264.065.086.124.18.188.265.065.091.13.182.2.27.065.091.135.177.206.268.07.093.14.184.215.27l.022.027.027.032.021.023.027.026.028.027.027.02.026.03.054.041.026.023.029.021.032.015.027.023.032.015.027.017.032.021.032.012.033.015.026.017.033.01.032.017.033.011.032.01.032.011.033.006.038.011.032.01.065.011.038.006.032.005.032.004h.033l.038.006h.135l.038-.006h.032l.033-.004.036-.005.064-.012.038-.005.033-.006.032-.01.065-.022.038-.01.065-.023.032-.015.032-.011.033-.016.026-.017.033-.015.032-.023.032-.015.029-.023.032-.015.027-.02.032-.024.027-.026c4.471-3.65 13.704-11.186 18.178-14.841.094-.074.179-.15.271-.226.091-.07.178-.145.264-.221.091-.076.179-.15.259-.226l.258-.227.244-.226c.086-.076.167-.15.242-.226a17.844 17.844 0 0 0 .47-.453c.076-.076.146-.152.22-.226.071-.076.147-.152.217-.226.069-.076.139-.158.209-.232.071-.076.141-.153.206-.227.065-.076.135-.152.2-.232a4.89 4.89 0 0 1 .188-.226c.059-.082.124-.156.183-.232.06-.076.119-.156.178-.232.059-.076.113-.156.174-.232.053-.076.106-.156.161-.232a4.95 4.95 0 0 0 .156-.232c.054-.074.103-.156.151-.232.049-.08.097-.156.14-.236.048-.076.092-.158.141-.232.042-.082.086-.158.13-.238.036-.076.079-.155.117-.237.039-.074.077-.156.115-.232.036-.08.074-.162.106-.236.038-.082.071-.162.103-.238.032-.082.059-.161.091-.243l.088-.236c.026-.082.047-.158.074-.238.023-.081.049-.161.07-.243.023-.08.044-.162.059-.242.023-.081.038-.161.055-.237l.048-.242c.011-.082.027-.167.038-.249.012-.08.021-.162.032-.242.006-.081.018-.161.021-.243l.018-.247c0-.082.005-.162.005-.249 0-.08 0-.162-.005-.242 0-.087-.006-.167-.006-.249zM318.161-100.234c-.092.076-.177.152-.269.226-.087.076-.173.15-.258.227l-.255.222c-.08.074-.168.15-.248.224l-.243.229c-.074.074-.156.15-.232.226a6.32 6.32 0 0 0-.23.226c-.076.075-.153.156-.223.23-.074.077-.145.153-.215.229-.076.074-.146.15-.211.226a7.589 7.589 0 0 0-.204.232c-.07.074-.135.15-.199.226-.065.08-.13.156-.189.23a4.104 4.104 0 0 0-.184.232c-.059.076-.118.153-.177.232-.061.076-.12.152-.173.232-.054.076-.109.15-.162.232-.053.076-.109.15-.156.232-.055.076-.103.156-.152.232l-.145.232c-.044.08-.091.156-.135.238-.044.074-.086.156-.129.23a5.116 5.116 0 0 0-.118.238 4.45 4.45 0 0 0-.12.238c-.033.08-.071.156-.103.235-.038.082-.07.158-.103.238-.032.082-.064.156-.091.238-.032.08-.059.161-.086.238-.026.08-.053.161-.076.241-.026.082-.047.162-.07.243a3.805 3.805 0 0 0-.059.238c-.021.08-.038.162-.059.242-.015.081-.027.161-.044.243-.015.08-.027.162-.036.242l-.034.243c-.01.086-.015.167-.021.247l-.015.244c0 .085-.006.167-.006.247v.247c.006.082.006.168.011.25.004.08.01.167.021.246.006.088.015.168.027.255.006.08.021.166.032.248.012.085.027.167.044.252.015.082.032.168.053.253.017.082.038.168.059.25.023.085.044.17.071.258.021.08.049.168.076.253.026.086.059.173.085.253l.097.259c.033.087.071.173.109.258.032.088.07.173.112.259.038.087.082.173.12.259.042.087.086.172.135.264.042.087.091.173.139.258.049.088.097.18.152.265a5.957 5.957 0 0 0 .329.528c.053.092.112.18.177.265.059.091.124.178.183.27.064.091.131.177.2.27l.205.268c.07.088.147.179.215.27l.029.027.02.026.027.027.021.028.029.021.026.027.027.023.027.026.026.021.029.021.032.017.027.021.032.017.027.021.032.017.027.016.032.017.032.015.033.011.032.016.065.022.032.01.065.023.032.01.065.01.038.012.032.004h.032l.038.006.033.005h.205l.033-.005h.036l.032-.006.033-.004.038-.006.032-.005.032-.012.033-.005.038-.01.064-.023.033-.01.032-.016.032-.01.033-.017.032-.015.032-.017.033-.016.026-.017.033-.015.032-.023.029-.02.032-.021.027-.023.026-.021L327-92.52v-14.932l-8.569 6.996a6.34 6.34 0 0 0-.27.221zM318.781-82.972a1.431 1.431 0 0 0-.203 2.004c2.631 3.223 5.441 4.378 8.422 3.946V-89.68l-.091.07-8.128 6.638zM310.277-78.865c2.481-2.027 2.854-5.676.835-8.15-2.022-2.475-5.668-2.836-8.148-.81-2.481 2.021-2.858 5.67-.836 8.146 2.017 2.474 5.668 2.84 8.149.814zM299.885-112.939c2.017 2.474 5.668 2.835 8.149.808a5.792 5.792 0 0 0 .835-8.145 5.79 5.79 0 0 0-8.149-.814c-2.486 2.027-2.857 5.677-.835 8.151zM301.858-104.697l-.053.044-.156.129-.061.047-.162.13-.053.043-25.815 21.082a1.427 1.427 0 0 0-.206 2.007c8.354 10.242 20.283-1.892 24.781-9.629 6.822-11.729 9.018-4.877 18.384-12.522l8.121-6.635.362-.291v-12.663c-2.372.344-4.859 1.692-7.446 3.811l-17.696 14.447zM249.828-99.7c.085-.076.177-.152.262-.226l.259-.226c.088-.076.173-.152.255-.226.086-.077.167-.147.247-.223.082-.074.162-.15.244-.226.08-.074.156-.151.236-.227.076-.074.152-.156.226-.232l.229-.226c.068-.074.144-.15.214-.226.071-.074.141-.15.21-.226.07-.08.135-.156.205-.232l.194-.227v-.006c.065-.074.13-.15.194-.226l.185-.232a7.672 7.672 0 0 0 .344-.462c.059-.076.114-.152.168-.232.053-.076.102-.152.156-.232l.152-.232c.047-.082.097-.156.139-.238.049-.074.091-.15.135-.232.049-.08.091-.156.129-.235.044-.077.086-.158.124-.232.038-.082.076-.156.114-.238.038-.08.076-.156.108-.238.033-.08.069-.156.097-.236.033-.081.065-.161.098-.237l.079-.244c.027-.074.054-.156.082-.236.021-.081.042-.161.069-.243.023-.08.038-.156.061-.238.021-.08.036-.161.053-.241l.047-.244c.012-.08.029-.161.039-.241a4.31 4.31 0 0 0 .028-.249c.01-.08.015-.162.027-.242a3.97 3.97 0 0 0 .009-.249c.006-.08.006-.162.012-.241 0-.088 0-.168-.006-.25 0-.085-.006-.167-.01-.247a15.234 15.234 0 0 0-.017-.247c-.005-.088-.015-.167-.026-.255-.012-.08-.021-.167-.038-.247a4.463 4.463 0 0 0-.044-.253c-.015-.082-.033-.167-.048-.253-.023-.082-.038-.167-.059-.255-.028-.08-.049-.167-.07-.253l-.082-.253c-.027-.087-.053-.173-.086-.258-.032-.088-.059-.168-.097-.255a5.326 5.326 0 0 0-.102-.259 15.39 15.39 0 0 1-.113-.258c-.038-.086-.081-.171-.125-.259-.042-.091-.086-.177-.129-.264-.048-.086-.092-.171-.139-.259-.05-.091-.103-.177-.153-.264-.053-.086-.106-.177-.161-.263-.054-.087-.109-.178-.168-.264-.059-.093-.118-.179-.177-.27a6.405 6.405 0 0 0-.188-.264c-.065-.092-.129-.177-.196-.27-.068-.092-.139-.177-.209-.269-.071-.093-.141-.178-.215-.27l-.023-.026c-.01-.012-.015-.023-.027-.027l-.021-.028-.026-.027-.029-.027-.026-.021-.027-.028-.027-.021-.026-.021-.029-.023-.027-.021-.032-.015-.026-.023-.033-.015-.026-.017-.033-.015-.032-.017-.027-.016-.032-.017-.032-.009-.033-.012-.032-.017-.032-.009-.033-.012-.032-.005-.033-.012-.038-.004-.032-.011-.065-.011-.038-.004h-.032l-.032-.006h-.038l-.033-.006h-.07l-.032.006h-.071l-.032.006-.033.004-.036.005-.064.012-.038.009-.033.006-.064.023-.033.009-.032.012-.038.011-.033.015-.032.017-.027.01-.032.017-.032.021-.033.017-.028.015-.032.023-.033.021-.026.021-.033.023-.026.021c-4.471 3.649-13.704 11.191-18.175 14.84a54.803 54.803 0 0 0-.539.447c-.087.076-.173.15-.258.227-.088.076-.173.15-.253.226-.088.076-.168.152-.25.226-.08.076-.161.15-.241.227-.082.076-.158.152-.238.226-.076.076-.15.152-.226.226l-.227.227c-.07.076-.146.152-.217.228a6.14 6.14 0 0 1-.209.23c-.07.076-.135.152-.205.226-.065.082-.13.158-.195.232-.064.076-.129.152-.194.232-.059.076-.123.152-.182.226-.061.082-.12.156-.179.232-.059.076-.112.156-.168.232-.058.076-.112.156-.167.232-.053.08-.103.156-.156.232-.048.08-.103.156-.15.236-.05.076-.097.152-.141.232-.048.076-.091.158-.141.232-.042.082-.085.156-.123.238-.044.08-.086.156-.124.238-.038.074-.076.156-.114.236-.036.076-.074.157-.107.232-.032.081-.07.161-.103.243-.026.076-.059.156-.091.238l-.082.235-.08.244c-.022.076-.049.156-.07.237-.023.08-.038.162-.059.242-.023.082-.038.162-.055.243l-.048.242c-.011.082-.026.162-.038.243-.011.08-.021.162-.026.242a3.558 3.558 0 0 0-.038.49c-.006.082-.006.162-.012.25 0 .08 0 .161.006.247 0 .082.006.162.011.249 0 .08.01.162.015.247.006.082.018.168.027.247.012.088.023.168.032.255.018.08.033.166.05.248.011.085.032.167.048.252.022.088.038.168.06.255.021.086.048.171.069.253l.082.259c.026.08.053.167.085.253.033.085.061.173.097.258.033.086.065.173.103.259l.114.259c.038.085.08.173.124.258.044.088.085.173.129.259.05.087.092.179.141.264.048.088.103.173.15.264a16.498 16.498 0 0 0 .329.529c.059.086.118.177.179.264.059.092.124.177.189.269.064.087.129.178.194.264.07.093.139.184.209.27.07.091.141.183.217.27l.021.032.026.027.023.027.027.02.026.03.048.047.032.023.029.02.027.021.026.023.033.021.026.015.033.017.026.021.033.017.032.016.028.011.033.015.032.012.032.017.033.01.064.022.033.01.032.005.036.012.065.011.032.004.038.006.033.005h.032l.038.006h.135l.033-.006h.038l.032-.005h.032l.038-.006.033-.01.032-.005.038-.006.032-.011.033-.01.032-.006.032-.011.033-.015.032-.012.032-.017.033-.01.032-.016.033-.016.032-.017.032-.015.027-.023.032-.015.033-.02.026-.024.032-.02.027-.021c4.471-3.656 13.704-11.192 18.175-14.847.091-.076.183-.146.276-.22zM267.856-109.09c-6.822 11.73-9.024 4.878-18.386 12.523l-8.126 6.634-.452.368-8.122 6.635a1.427 1.427 0 0 0-.206 2.006c4.713 5.779 10.015 4.916 15.871.135l17.696-14.447.047-.044.162-.13.059-.047.162-.135.049-.044 25.821-21.076a1.427 1.427 0 0 0 .206-2.006c-8.36-10.243-20.283 1.892-24.781 9.628zM267.268-78.844c2.481-2.027 2.852-5.676.835-8.15-2.022-2.475-5.667-2.836-8.148-.814-2.481 2.027-2.858 5.676-.835 8.15 2.016 2.474 5.667 2.836 8.148.814zM292.836-99.722c.086-.075.177-.15.265-.227l.258-.226a11.07 11.07 0 0 0 .501-.447l.243-.226.238-.227c.074-.076.15-.152.227-.226.074-.076.15-.156.22-.232.076-.076.145-.15.221-.226l.211-.226c.071-.076.135-.156.204-.232.064-.077.129-.151.196-.227.064-.081.129-.156.188-.232.065-.076.124-.15.188-.232.059-.074.118-.15.177-.232.055-.074.114-.15.168-.226.061-.08.114-.156.167-.238.055-.074.103-.15.156-.23.05-.076.097-.158.152-.232.048-.076.092-.158.139-.232.05-.082.093-.156.135-.238.044-.076.088-.156.13-.232.043-.079.081-.156.125-.235.036-.082.074-.158.112-.238.039-.082.071-.156.109-.238.032-.082.065-.156.097-.238.032-.079.065-.155.091-.235.033-.082.059-.164.086-.238.028-.082.055-.162.076-.243.027-.08.049-.162.07-.238l.065-.242c.015-.081.038-.161.053-.243.017-.08.033-.162.044-.242.015-.081.027-.161.044-.243.009-.08.021-.162.027-.242.009-.087.015-.167.02-.249.012-.08.012-.161.018-.241.003-.088.003-.168.003-.249v-.248c0-.079-.003-.167-.009-.247a20.812 20.812 0 0 1-.017-.249c-.01-.085-.015-.167-.027-.253-.011-.082-.021-.161-.038-.247-.009-.087-.027-.167-.042-.255-.017-.08-.032-.167-.049-.247-.021-.086-.044-.173-.065-.253a4.717 4.717 0 0 0-.07-.259c-.021-.081-.048-.167-.075-.254-.028-.086-.055-.172-.087-.253l-.097-.259c-.032-.086-.071-.173-.103-.259-.038-.085-.074-.173-.112-.258-.044-.086-.082-.173-.124-.259-.044-.085-.087-.173-.135-.264a5.501 5.501 0 0 0-.141-.259c-.047-.085-.097-.179-.146-.264-.053-.086-.107-.177-.162-.264-.053-.086-.112-.177-.165-.265l-.179-.264-.189-.268a6.234 6.234 0 0 0-.199-.27c-.065-.086-.135-.179-.206-.27-.07-.086-.139-.177-.215-.27l-.023-.027-.026-.027-.021-.026-.027-.027-.026-.023-.029-.026-.027-.021-.026-.027-.027-.023-.027-.021-.026-.015-.033-.023-.028-.015-.032-.023-.027-.015-.032-.017-.033-.015-.032-.017-.027-.01-.032-.017-.032-.009-.097-.035-.038-.009-.033-.012-.032-.005-.032-.004-.033-.012-.038-.005h-.032l-.033-.006-.038-.006h-.203l-.032.006h-.033l-.038.006-.065.011-.038.006-.032.009-.032.006-.033.011-.032.01-.038.011-.032.012-.033.015-.032.011-.032.016-.033.017-.026.015-.033.017-.032.015-.032.017-.027.021-.032.023-.027.021-.032.021-.029.023a30002.088 30002.088 0 0 1-18.179 14.839c-.091.076-.178.152-.27.228-.091.074-.179.15-.264.224-.091.076-.177.147-.265.223-.08.074-.167.15-.253.226-.08.074-.161.15-.247.226a6.61 6.61 0 0 0-.238.227c-.082.076-.161.15-.238.226-.076.076-.156.15-.232.226l-.22.227c-.077.081-.145.156-.215.232l-.212.226c-.07.076-.14.15-.205.232-.065.076-.133.15-.198.226-.065.076-.125.156-.19.232-.065.076-.124.15-.183.227-.059.08-.118.155-.179.232-.059.08-.112.155-.171.232l-.162.231-.158.23c-.053.082-.1.158-.15.238l-.144.232c-.044.082-.094.156-.135.238-.044.074-.088.156-.13.232-.038.08-.082.156-.12.236-.038.082-.08.158-.112.238a2.922 2.922 0 0 0-.108.237 2.627 2.627 0 0 0-.103.238c-.032.074-.059.156-.091.236-.027.081-.059.156-.086.237-.029.082-.05.162-.076.244-.021.08-.05.156-.071.236-.02.081-.043.161-.059.243-.02.08-.038.162-.053.242l-.049.243c-.016.08-.027.162-.038.242-.01.081-.021.163-.033.243-.005.082-.015.167-.021.247l-.017.244c0 .081-.004.167-.004.249 0 .08.001.165.004.247 0 .08.006.162.006.247.006.082.011.167.023.25a10.863 10.863 0 0 0 .059.5c.015.081.026.167.042.248.017.086.032.172.055.254.015.085.038.172.059.252.021.086.047.174.07.253.027.088.048.173.08.259.027.087.055.167.088.255.026.085.059.17.091.258.038.086.07.172.108.259l.113.259c.038.085.081.17.123.258.038.086.088.173.13.259.043.091.093.177.14.264.05.086.097.177.151.265.055.085.103.17.161.264.056.085.109.171.168.264l.179.263c.059.093.123.178.188.27.065.085.129.178.194.27.071.085.135.177.206.27.074.085.144.177.22.268l.021.029.023.026.103.103.053.042.027.022.032.021.027.021.026.023.033.015.028.021.033.017.032.016.027.017.032.017.032.01.033.016.032.01.065.023.032.01.032.01.033.006.032.01.038.006.097.017.038.005.032.006h.204l.038-.006h.032l.033-.005.038-.006.032-.006.032-.011.033-.004.038-.011.032-.006.033-.011.032-.01.032-.011.033-.016.032-.011.032-.015.065-.034.032-.016.033-.017.026-.02.033-.016.026-.023.033-.02.028-.022.033-.022c4.469-3.655 13.701-11.192 18.172-14.845a8.4 8.4 0 0 0 .276-.222zM213.866-112.901c2.017 2.474 5.668 2.841 8.149.814 2.481-2.027 2.859-5.677.837-8.151-2.019-2.474-5.67-2.835-8.15-.808-2.479 2.025-2.852 5.671-.836 8.145zM189.539-83.183a1.436 1.436 0 0 0-.206 2.01c8.36 10.236 20.283-1.896 24.783-9.627 6.82-11.729 9.021-4.88 18.384-12.522l8.127-6.637.447-.371 8.128-6.631c.609-.497.7-1.402.203-2.005-4.718-5.784-10.013-4.915-15.87-.135l-17.694 14.442-.049.042-.162.135-.059.049-.162.129-.055.044-25.815 21.077zM225.095-86.974c-2.017-2.474-5.668-2.839-8.148-.813-2.481 2.027-2.854 5.676-.838 8.15 2.023 2.474 5.67 2.836 8.149.81 2.481-2.023 2.859-5.672.837-8.147zM206.818-45.233l.264-.221c.091-.076.179-.152.259-.226l.258-.227c.082-.076.162-.152.244-.226.086-.076.167-.152.242-.226a484.28 484.28 0 0 0 .47-.453c.076-.076.146-.152.22-.228.071-.074.147-.15.217-.232l.209-.224c.071-.076.141-.153.206-.229.065-.08.135-.156.2-.232.059-.074.123-.15.188-.23.059-.076.124-.152.183-.226.06-.082.119-.158.178-.232.059-.076.113-.158.174-.232.053-.076.106-.156.161-.232.054-.082.107-.156.156-.232.054-.08.103-.156.151-.238.049-.074.097-.156.14-.232.048-.074.092-.156.141-.232.042-.08.086-.156.13-.236.036-.081.079-.156.117-.237.039-.076.077-.156.115-.238.036-.074.074-.156.106-.236.038-.076.071-.158.103-.238.032-.076.059-.155.091-.237.027-.08.059-.156.088-.238.026-.08.047-.162.074-.241.023-.077.049-.156.07-.238a2.66 2.66 0 0 0 .059-.242c.023-.081.038-.161.055-.243.016-.082.033-.162.048-.244.011-.08.027-.161.038-.241.012-.082.021-.162.032-.243.006-.08.018-.162.021-.248l.018-.243c0-.08.005-.166.005-.247 0-.082 0-.162-.005-.248 0-.081-.006-.161-.006-.249-.006-.08-.012-.161-.021-.247-.006-.082-.017-.167-.027-.249-.011-.086-.023-.166-.032-.253-.017-.08-.029-.167-.044-.247-.017-.086-.038-.173-.053-.253-.023-.088-.038-.167-.061-.255-.021-.085-.048-.171-.07-.253a24.8 24.8 0 0 1-.08-.258c-.027-.082-.054-.168-.086-.253-.028-.088-.061-.173-.093-.259-.036-.088-.069-.173-.107-.259a36.667 36.667 0 0 0-.114-.258 4.37 4.37 0 0 0-.124-.259l-.129-.26c-.049-.086-.091-.177-.141-.263-.047-.087-.097-.173-.15-.264-.053-.088-.103-.173-.162-.265a10.898 10.898 0 0 0-.167-.264c-.059-.085-.118-.179-.179-.264-.059-.092-.124-.179-.188-.27-.065-.086-.13-.177-.194-.265-.071-.09-.135-.182-.21-.268a6.15 6.15 0 0 0-.217-.276l-.02-.026c-.006-.006-.018-.017-.021-.027l-.029-.026-.027-.023-.02-.027-.027-.026-.027-.023-.028-.021-.033-.021-.026-.023-.054-.042-.032-.017-.026-.015-.033-.023-.032-.015-.029-.017-.032-.01-.032-.017-.033-.015-.032-.011-.032-.01-.097-.034-.033-.004-.032-.011-.036-.006-.065-.011-.032-.004-.038-.006h-.033l-.032-.006h-.173l-.038.006-.033.006h-.032l-.038.004-.032.01-.065.012-.038.01-.032.005-.065.023-.032.016-.033.011-.032.01-.032.017-.033.015-.032.017-.032.015-.033.017-.026.021-.033.017-.026.021-.033.021-.026.023-.033.02c-4.471 3.656-13.704 11.192-18.175 14.847-.091.075-.182.145-.275.22-.086.077-.177.151-.263.227l-.261.226-.253.227c-.085.07-.167.146-.247.22l-.244.229-.235.224a7.314 7.314 0 0 0-.227.232l-.228.228c-.069.074-.145.15-.215.225-.071.076-.141.152-.209.228-.071.08-.135.156-.206.232l-.194.224a6.253 6.253 0 0 1-.194.232 10.68 10.68 0 0 1-.185.232c-.059.076-.118.152-.176.232-.056.076-.115.152-.168.232-.059.076-.114.15-.167.232-.054.076-.103.15-.156.232l-.153.232c-.047.08-.091.156-.138.232-.05.08-.092.156-.135.236-.044.076-.086.158-.13.238-.044.076-.082.156-.124.232-.038.082-.076.156-.114.238-.038.08-.07.155-.108.237l-.097.236c-.032.082-.065.162-.091.238-.033.08-.059.161-.086.241a4.183 4.183 0 0 0-.076.238c-.027.082-.048.162-.071.243-.021.08-.041.156-.064.236-.015.082-.038.162-.054.244-.017.08-.032.161-.043.243h-.006a4.02 4.02 0 0 1-.036.241 3.232 3.232 0 0 0-.029.248c-.009.081-.015.163-.021.243a1.834 1.834 0 0 0-.015.25c-.006.08-.006.16-.006.24-.005.086 0 .168 0 .248 0 .082.006.167.01.25l.017.246c.012.088.015.168.027.253.011.082.021.168.038.25.011.085.026.167.044.252l.047.253.065.253c.023.082.044.167.07.255.021.085.05.167.076.253.027.085.054.173.086.258l.097.254c.032.087.07.172.103.258.038.088.076.173.112.259.044.087.082.173.125.258.042.088.086.18.13.265.047.087.097.173.144.258.05.094.097.18.147.265.053.087.106.178.162.264.053.087.112.179.167.264.059.092.118.18.177.27.065.086.124.177.188.265.065.091.13.177.2.27.065.091.135.177.206.268.07.091.14.179.215.27l.022.026.027.027.021.027.027.028.028.027.053.042.027.028.053.042.029.017.032.021.027.023.032.015.027.015.032.017.032.016.033.017.026.015.065.023.033.015.032.012.032.005.033.012.038.01.032.005.032.011.033.006.038.004.032.005h.032l.033.006h.038l.032.006h.07l.033-.006h.07l.033-.006.036-.005.032-.004.032-.006.038-.005.033-.012.032-.006.032-.01.033-.01.038-.012.032-.01.033-.01.032-.018.032-.015.033-.012.026-.015.033-.023.064-.03.029-.023.032-.02.027-.024.032-.02.027-.021c4.471-3.65 13.704-11.192 18.178-14.841.094-.076.179-.15.271-.227zM214.702-66.603c-2.479 2.027-2.852 5.677-.836 8.151 2.017 2.476 5.668 2.835 8.149.814 2.481-2.025 2.859-5.675.837-8.15-2.019-2.475-5.67-2.836-8.15-.815zM139.417-32.69c-2.023-2.474-5.668-2.835-8.149-.808-2.481 2.021-2.859 5.67-.837 8.145 2.017 2.474 5.669 2.84 8.148.814 2.481-2.027 2.854-5.677.838-8.15zM164.579-60.77a72895.798 72895.798 0 0 1-18.178 14.84c-5.858 4.783-7.766 9.807-3.048 15.585a1.432 1.432 0 0 0 2.007.2l.033-.016.032-.017.032-.015.033-.017.032-.015.027-.017.032-.021.027-.023.032-.021.026-.021.033-.023 9.606-7.842v-.07l8.234-6.723c5.858-4.781 7.76-9.805 3.048-15.585a1.438 1.438 0 0 0-2.008-.2zM182.086-32.505c-2.018-2.476-5.669-2.836-8.15-.81a5.793 5.793 0 0 0-.835 8.146 5.79 5.79 0 0 0 8.148.814c2.481-2.027 2.86-5.676.837-8.15zM155.331-35.444l-.452.366-8.128 6.636a1.426 1.426 0 0 0-.205 2.005c4.72 5.779 10.02 4.918 15.872.135l17.694-14.447.053-.042.158-.13.059-.049.162-.13.053-.043 25.817-21.082c.609-.496.7-1.396.204-2.004-8.354-10.237-20.283 1.892-24.781 9.626-6.822 11.732-9.016 4.88-18.384 12.523l-8.122 6.636zM170.858-58.43c2.022 2.475 5.667 2.836 8.148.809 2.481-2.021 2.858-5.67.836-8.145-2.017-2.474-5.668-2.841-8.149-.814-2.481 2.027-2.852 5.677-.835 8.15zM310.277-24.416c2.481-2.025 2.854-5.674.835-8.15-2.022-2.474-5.668-2.836-8.148-.814-2.481 2.027-2.858 5.676-.836 8.15 2.017 2.474 5.668 2.836 8.149.814zM233.535-64.655l-17.694 14.447-.049.042-.162.135-.059.043-.162.135-.055.042-25.815 21.078a1.43 1.43 0 0 0-.206 2.005c8.36 10.242 20.283-1.892 24.783-9.623 6.82-11.735 9.021-4.877 18.384-12.526l8.127-6.631.447-.371 8.128-6.637c.609-.496.7-1.396.203-2.004-4.718-5.78-10.013-4.918-15.87-.135zM249.828-45.254c.085-.07.177-.147.262-.223.088-.074.174-.15.259-.226.088-.074.173-.15.255-.226.086-.075.167-.15.247-.227.082-.074.162-.15.244-.226l.236-.226c.076-.075.152-.15.226-.227l.229-.226c.068-.076.144-.15.214-.226.071-.076.141-.156.21-.232.07-.076.135-.15.205-.227.065-.076.13-.155.194-.232.065-.074.13-.15.194-.226.059-.08.124-.156.185-.232l.177-.232c.059-.074.114-.156.167-.232.059-.074.114-.156.168-.23.053-.076.102-.158.156-.232.049-.082.102-.158.152-.232.047-.082.097-.156.139-.238.049-.076.091-.156.135-.232.049-.08.091-.156.129-.237a2.97 2.97 0 0 0 .124-.236c.038-.076.076-.158.114-.232.038-.082.076-.162.108-.238.033-.08.069-.162.097-.238l.098-.241c.026-.076.053-.156.079-.238.027-.08.054-.162.082-.238.021-.08.042-.161.069-.241.023-.082.038-.162.061-.243.021-.08.036-.162.053-.242.015-.076.032-.156.047-.243.012-.08.029-.162.039-.242.011-.082.022-.162.028-.243.01-.08.015-.162.027-.242.005-.087.009-.167.009-.249.006-.082.006-.162.012-.247 0-.082 0-.162-.006-.244 0-.085-.006-.167-.01-.247l-.017-.253a3.499 3.499 0 0 0-.026-.249c-.012-.08-.021-.167-.038-.247a3.783 3.783 0 0 0-.044-.255c-.015-.085-.033-.165-.048-.253-.023-.085-.038-.167-.059-.253a3.417 3.417 0 0 1-.07-.253 10.058 10.058 0 0 0-.082-.253c-.027-.087-.053-.173-.086-.258-.032-.088-.059-.173-.097-.26-.032-.08-.064-.168-.102-.254a15.46 15.46 0 0 1-.113-.258c-.038-.092-.081-.177-.125-.265l-.129-.258c-.048-.086-.092-.173-.139-.265-.05-.085-.103-.17-.153-.258a8.67 8.67 0 0 0-.161-.265 7.976 7.976 0 0 0-.168-.268c-.059-.087-.118-.173-.177-.264a5.798 5.798 0 0 0-.188-.264c-.065-.092-.129-.185-.196-.27-.068-.092-.139-.18-.209-.27-.071-.092-.141-.183-.215-.269l-.023-.032c-.01-.006-.015-.017-.027-.028l-.047-.048-.029-.027-.026-.023-.027-.026-.027-.021-.026-.023-.029-.02-.027-.022-.032-.017-.026-.02-.033-.018-.026-.015-.033-.021-.032-.011-.027-.017-.032-.016-.032-.011-.033-.015-.064-.023-.033-.01-.032-.011-.033-.006-.038-.01-.097-.016-.038-.006-.032-.006h-.032l-.038-.004h-.135l-.033.004h-.038l-.065.012-.036.005-.064.012-.038.004-.065.022-.032.01-.065.023-.038.011-.033.015-.032.012-.027.015-.032.017-.032.015-.033.021-.028.017-.032.021-.033.017-.026.021-.033.021-.026.029a40851.07 40851.07 0 0 0-18.175 14.84c-.091.075-.183.15-.274.221-.088.074-.179.15-.265.226-.087.076-.173.15-.258.227a5.69 5.69 0 0 0-.253.226c-.088.076-.168.15-.25.226-.08.076-.161.15-.241.227-.082.076-.158.15-.238.226l-.226.226c-.077.076-.153.15-.227.226-.07.077-.146.153-.217.227-.068.076-.139.152-.209.232l-.205.226c-.065.076-.13.152-.195.232l-.194.226c-.059.082-.123.156-.182.232-.061.076-.12.156-.179.232-.059.076-.112.15-.168.232-.058.076-.112.156-.167.232-.053.075-.103.156-.156.23-.048.077-.103.158-.15.232-.05.082-.097.158-.141.238-.048.076-.091.156-.141.232-.042.082-.085.156-.123.238a3.701 3.701 0 0 0-.124.232c-.038.08-.076.162-.114.236-.036.081-.074.161-.107.237-.032.082-.07.162-.103.238-.026.08-.059.162-.091.238l-.082.241c-.026.082-.053.156-.08.238-.022.08-.049.162-.07.242-.023.081-.038.161-.059.243-.023.076-.038.156-.055.238l-.048.241c-.011.082-.026.162-.038.25-.011.08-.021.161-.026.24a3.404 3.404 0 0 0-.038.49c-.006.083-.006.163-.012.249 0 .081 0 .163.006.243 0 .086.006.167.011.247 0 .088.01.168.015.255.006.08.018.162.027.247.012.082.023.168.032.248l.05.254c.011.086.032.168.048.253.022.082.038.168.06.253.021.088.048.168.069.253l.082.255c.026.086.053.171.085.259.033.085.061.17.097.253.033.085.065.173.103.258l.114.259c.038.085.08.173.124.264.044.086.085.173.129.259.05.085.092.173.141.264.048.086.103.173.15.259.054.091.109.177.162.264.053.091.108.177.167.264.059.092.118.177.179.27.059.086.124.177.189.263.064.093.129.179.194.27l.209.27c.07.091.141.177.217.27l.021.027.026.026.023.027.053.053.027.023.021.027.032.02.029.023.027.021.026.021.033.017.026.021.033.017.026.015.033.018.032.015.028.017.033.015.032.012.032.015.065.023.032.01.033.005.032.011.036.006.033.01.064.01.038.007.033.005v-.005l.032.005h.038l.032.006h.103l.033-.006h.038l.064-.011.038-.006.033-.006.032-.003.038-.006.065-.023.032-.01.065-.022.032-.01.032-.017.033-.011.032-.015.033-.018.032-.015.032-.02.027-.018.032-.02.033-.018.026-.02.032-.022.027-.028 18.175-14.84c.091-.075.183-.151.276-.225zM224.258-24.378c2.481-2.027 2.859-5.67.837-8.145-2.017-2.474-5.668-2.84-8.148-.813-2.481 2.027-2.854 5.676-.838 8.15a5.789 5.789 0 0 0 8.149.808zM301.858-50.246l-.053.041-.156.132-.061.047-.162.13-.053.043-25.815 21.082a1.425 1.425 0 0 0-.206 2.005c8.354 10.237 20.283-1.892 24.781-9.627 6.822-11.73 9.018-4.88 18.384-12.522l8.121-6.635.362-.297v-12.657c-2.372.344-4.859 1.692-7.446 3.81l-17.696 14.448zM267.268-24.399a5.79 5.79 0 0 0 .835-8.145 5.788 5.788 0 0 0-8.148-.813c-2.481 2.027-2.858 5.676-.835 8.15 2.016 2.474 5.667 2.836 8.148.808zM318.781-28.523a1.433 1.433 0 0 0-.203 2.006c2.631 3.218 5.441 4.378 8.422 3.946v-12.663l-.091.076-8.128 6.635zM318.161-45.783l-.269.226a6.73 6.73 0 0 0-.258.22c-.088.077-.168.151-.255.227-.08.076-.168.152-.248.227-.081.076-.161.152-.243.226-.074.076-.156.152-.232.226-.08.076-.156.152-.23.226-.076.076-.153.152-.223.227-.074.076-.145.157-.215.232a4.68 4.68 0 0 0-.211.226c-.069.076-.139.152-.204.232-.07.076-.135.152-.199.226-.065.076-.13.152-.189.232-.065.076-.125.152-.184.227-.059.081-.118.156-.177.232-.061.081-.12.156-.173.232-.054.081-.109.156-.162.232-.053.08-.109.155-.156.232-.055.08-.103.155-.152.237l-.145.232c-.044.08-.091.156-.135.236-.044.076-.086.156-.129.232a3.298 3.298 0 0 0-.118.238c-.044.074-.082.156-.12.236-.033.076-.071.158-.103.237-.038.076-.07.156-.103.238a3.203 3.203 0 0 0-.091.238c-.032.08-.059.156-.086.236-.026.081-.053.163-.076.243a5.335 5.335 0 0 0-.129.48c-.021.081-.038.16-.059.243-.015.08-.027.161-.044.241a3.559 3.559 0 0 0-.036.244l-.034.241c-.01.082-.015.164-.021.25l-.015.24c0 .083-.006.168-.006.25v.247c.006.082.006.162.011.25.004.08.01.167.021.246.006.082.015.168.027.248.006.087.021.167.032.255.012.08.027.167.044.247.015.085.032.173.053.253.017.087.038.173.059.254.023.086.044.172.071.253.021.086.049.172.076.259.026.08.059.167.085.253l.097.259c.033.085.071.173.109.258.032.088.07.173.112.259.038.087.082.173.12.258.042.088.086.174.135.259a9.369 9.369 0 0 0 .291.529c.048.085.103.173.156.264.053.086.112.173.173.264.053.086.112.18.177.265.059.091.124.177.183.27l.2.268c.064.087.135.179.205.264.07.091.147.185.215.276l.029.027.02.026.027.027.021.026.029.023.026.027.027.02.027.024.026.02.029.021.032.023.027.021.032.015.027.023.032.015.027.018.032.015.032.017.033.01.032.017.032.011.033.01.064.022.033.01.032.006.032.01.033.007.038.005.032.004.032.006.038.006h.033l.032.005h.173l.033-.005.036-.006h.032l.033-.006.038-.004.032-.011.032-.006.033-.011.038-.006.032-.01.065-.022.032-.015.032-.012.033-.015.032-.017.032-.015.033-.018.026-.015.033-.023.032-.015.029-.02.032-.023.053-.042 9.61-7.85v-14.932l-8.569 6.998c-.091.074-.183.15-.27.226zM299.885-58.494c2.017 2.474 5.668 2.841 8.149.814a5.792 5.792 0 0 0 .835-8.145 5.79 5.79 0 0 0-8.149-.814 5.782 5.782 0 0 0-.835 8.145zM267.856-54.645c-6.822 11.735-9.024 4.878-18.386 12.527l-8.126 6.63-.452.373-8.122 6.63a1.434 1.434 0 0 0-.206 2.012c4.713 5.777 10.015 4.91 15.871.129l17.696-14.441.047-.044.162-.135.059-.048.162-.13.049-.043 25.821-21.078a1.425 1.425 0 0 0 .206-2.004c-8.36-10.243-20.283 1.892-24.781 9.622zM256.875-58.473c2.018 2.474 5.669 2.841 8.15.814 2.481-2.027 2.852-5.677.835-8.15-2.022-2.475-5.667-2.836-8.148-.809-2.481 2.022-2.86 5.671-.837 8.145zM292.836-45.272c.086-.075.177-.15.265-.226.085-.076.171-.15.258-.226.086-.076.172-.15.254-.226.085-.076.167-.15.247-.227.082-.07.162-.146.243-.22.08-.076.156-.152.238-.232.074-.076.15-.152.227-.227.074-.076.15-.152.22-.226.076-.076.145-.152.221-.226.07-.076.141-.152.211-.232.071-.076.135-.152.204-.227l.196-.231c.064-.077.129-.153.188-.227.065-.076.124-.156.188-.232.059-.076.118-.152.177-.232.055-.076.114-.15.168-.232.061-.076.114-.15.167-.232.055-.074.103-.156.156-.232.05-.074.097-.156.152-.232l.139-.236c.05-.076.093-.157.135-.232.044-.081.088-.156.13-.237.043-.076.081-.156.125-.232.036-.08.074-.162.112-.238.039-.08.071-.156.109-.236.032-.082.065-.156.097-.238.032-.081.065-.161.091-.237.033-.08.059-.162.086-.242.028-.082.055-.158.076-.238.027-.081.049-.161.07-.243l.065-.236c.015-.081.038-.161.053-.243.017-.08.033-.162.044-.242.015-.081.027-.161.044-.243.009-.082.021-.167.027-.247.009-.082.015-.162.02-.244.012-.08.012-.161.018-.247.003-.082.003-.162.003-.243v-.248c0-.087-.003-.167-.009-.249l-.017-.247c-.01-.086-.015-.167-.027-.253-.011-.082-.021-.167-.038-.249-.009-.085-.027-.165-.042-.253l-.049-.253c-.021-.082-.044-.167-.065-.253a6.97 6.97 0 0 0-.07-.255c-.021-.085-.048-.165-.075-.253-.028-.085-.055-.172-.087-.258l-.097-.253c-.032-.086-.071-.173-.103-.259-.038-.087-.074-.173-.112-.258-.044-.088-.082-.173-.124-.259a4.156 4.156 0 0 0-.135-.264 5.493 5.493 0 0 0-.141-.259 6.743 6.743 0 0 0-.308-.529c-.053-.09-.112-.178-.165-.264-.061-.091-.12-.179-.179-.27-.065-.085-.124-.177-.189-.262a6.299 6.299 0 0 0-.199-.27c-.065-.092-.135-.18-.206-.27a8.463 8.463 0 0 0-.215-.27l-.023-.027c-.009-.011-.015-.021-.026-.027l-.021-.026-.027-.027-.026-.029-.029-.02-.027-.027-.026-.023-.08-.063-.033-.017-.028-.02-.032-.018-.027-.015-.032-.017-.033-.015-.032-.017-.027-.016-.064-.022-.033-.016-.064-.023-.038-.003-.033-.012-.032-.005-.032-.012-.033-.004-.038-.005-.032-.006h-.033l-.038-.006h-.032l-.032-.005h-.069l-.032.005h-.07l-.033.006-.038.006-.032.005-.033.004-.038.006-.032.011-.032.006-.033.01-.032.01-.038.012-.032.01-.033.011-.032.017-.032.016-.033.011-.026.015-.033.017-.032.021-.032.017-.027.021-.032.021-.027.017-.032.027-.029.02c-4.471 3.65-13.702 11.192-18.179 14.842-.091.076-.178.152-.27.226-.091.076-.179.146-.264.22-.091.077-.177.153-.265.229-.08.074-.167.15-.253.224-.08.076-.161.152-.247.228-.082.075-.162.15-.238.227-.082.074-.161.15-.238.226-.076.074-.156.15-.232.226-.074.074-.144.15-.22.227-.077.074-.145.15-.215.226-.071.08-.141.156-.212.232-.07.074-.14.15-.205.226-.065.074-.133.156-.198.232-.065.074-.125.15-.19.232-.065.074-.124.15-.183.226-.059.08-.118.156-.179.23-.059.077-.112.158-.171.233-.055.076-.108.157-.162.232-.055.076-.108.157-.158.232-.053.081-.1.156-.15.237-.047.076-.097.15-.144.232-.044.074-.094.156-.135.232-.044.08-.088.156-.13.236-.038.082-.082.158-.12.238-.038.076-.08.156-.112.232-.038.082-.076.161-.108.237-.038.08-.071.162-.103.236v.006c-.032.076-.059.156-.091.238-.027.076-.059.156-.086.237-.029.08-.05.162-.076.236-.021.082-.05.164-.071.244-.02.081-.043.161-.059.243-.02.08-.038.162-.053.242l-.049.243c-.016.08-.027.162-.038.242l-.033.243c-.005.08-.015.162-.021.242l-.017.249c0 .08-.004.161-.004.247 0 .082.001.161.004.249 0 .08.006.162.006.247.006.08.011.162.023.247a11.005 11.005 0 0 0 .059.502c.015.082.026.168.042.248.017.087.032.167.055.255.015.085.038.165.059.252.021.086.047.168.07.253.027.088.048.173.08.259.027.082.055.167.088.253.026.087.059.173.091.258.038.088.07.173.108.26l.113.26c.038.085.081.17.123.258.038.086.088.171.13.259.043.085.093.177.14.264l.151.265c.055.085.103.17.161.262l.168.264c.059.088.12.18.179.265l.188.27c.065.085.129.177.194.264.071.091.135.183.206.268.074.093.144.185.22.27l.021.032.023.027.027.029.026.02.021.027.029.027.026.023.054.042.032.022.027.021.026.021.033.017.028.015.033.023.032.015.027.018.032.01.032.016.033.01.032.017.032.011.033.01.064.023.033.005.032.01.038.006.097.017.038.004h.032l.033.005h.139l.032-.005h.038l.032-.004.033-.006.038-.006.097-.017.038-.01.032-.01.033-.006.032-.016.065-.023.032-.015.032-.011.033-.015.032-.018.032-.015.033-.017.026-.02.033-.018.026-.02.033-.022.028-.022.033-.021c4.469-3.655 13.701-11.192 18.172-14.847.092-.074.185-.15.276-.22zM267.856-.196c-6.822 11.732-9.024 4.88-18.386 12.523l-8.126 6.637-.452.37-8.122 6.632a1.425 1.425 0 0 0-.206 2.004c4.713 5.785 10.015 4.918 15.871.135l17.696-14.445.047-.038.162-.135.059-.05.162-.129.049-.042 25.821-21.084a1.425 1.425 0 0 0 .206-2.004c-8.36-10.237-20.283 1.892-24.781 9.626zM318.161 8.668l-.269.22c-.087.077-.173.15-.258.227-.088.076-.168.15-.255.226-.08.076-.168.15-.248.226l-.243.227c-.074.076-.156.15-.232.226a8.11 8.11 0 0 0-.23.226c-.076.076-.153.152-.223.227-.074.076-.145.152-.215.226a3.996 3.996 0 0 0-.211.232c-.069.076-.139.152-.204.226-.07.076-.135.156-.199.232-.065.076-.13.15-.189.227-.065.081-.125.155-.184.232l-.177.231c-.061.077-.12.156-.173.232l-.162.232a4.315 4.315 0 0 0-.156.232c-.055.08-.103.156-.152.232l-.145.236-.135.232c-.044.082-.086.156-.129.238a2.424 2.424 0 0 0-.118.238c-.044.074-.082.156-.12.23-.033.082-.071.163-.103.238-.038.081-.07.161-.103.237-.032.08-.064.162-.091.242-.032.076-.059.158-.086.238-.026.081-.053.161-.076.237-.026.08-.047.162-.07.242a6.083 6.083 0 0 0-.059.243c-.021.082-.038.162-.059.244-.015.08-.027.161-.044.241a3.401 3.401 0 0 0-.036.244l-.034.241c-.01.082-.015.162-.021.243l-.015.248c0 .081-.006.161-.006.249v.247c.006.082.006.162.011.247.004.082.01.162.021.25.006.08.015.167.027.246.006.088.021.168.032.253.012.082.027.168.044.25.015.085.032.167.053.253.017.085.038.167.059.252.023.088.044.168.071.255.021.086.049.171.076.253.026.086.059.171.085.259l.097.258c.033.086.071.168.109.253.032.086.07.173.112.265.038.085.082.173.12.258.042.086.086.173.135.259.042.085.091.173.139.264.049.086.097.173.152.259.048.091.103.179.156.264.053.091.112.179.173.27.053.086.112.171.177.265.059.085.124.177.183.268.064.087.131.178.2.264.064.091.135.185.205.27.07.091.147.183.215.27l.029.032.02.027.077.076.026.021.027.027.027.02.026.024.029.02.032.021.027.017.032.021.027.017.032.021.027.017.032.016.032.011.033.015.032.012.032.015.065.023.032.01.033.01.032.006.032.012.033.004.038.005.064.012.038.005h.033l.032.006h.141l.032-.006h.033l.036-.005.065-.012.038-.005.032-.004.032-.006.033-.011.038-.012.032-.01.065-.022.032-.01.032-.017.033-.01.032-.016.032-.015.033-.018.026-.02.033-.018.032-.02.029-.018.032-.02.027-.021.026-.027 9.61-7.845V1.443l-8.569 6.999c-.091.074-.183.15-.27.226zM182.086 21.944c-2.018-2.474-5.669-2.836-8.15-.809a5.79 5.79 0 0 0-.835 8.145 5.788 5.788 0 0 0 8.148.814c2.481-2.025 2.86-5.676.837-8.15zM96.408 21.782c-2.018-2.474-5.67-2.841-8.15-.814-2.48 2.027-2.852 5.677-.835 8.15 2.022 2.475 5.667 2.836 8.148.809 2.481-2.022 2.86-5.671.837-8.145zM292.836 9.174c.086-.076.177-.145.265-.22.085-.077.171-.153.258-.227l.254-.226.247-.227.243-.226c.08-.076.156-.152.238-.226.074-.076.15-.152.227-.227.074-.076.15-.152.22-.228.076-.074.145-.15.221-.226.07-.08.141-.156.211-.23.071-.076.135-.152.204-.228.064-.075.129-.156.196-.23.064-.077.129-.153.188-.227.065-.082.124-.158.188-.232.059-.076.118-.158.177-.232l.168-.232c.061-.076.114-.156.167-.232.055-.076.103-.156.156-.232.05-.08.097-.156.152-.232.048-.08.092-.156.139-.238.05-.074.093-.156.135-.23.044-.081.088-.158.13-.237.043-.076.081-.156.125-.238.036-.076.074-.156.112-.232.039-.08.071-.162.109-.236a7.64 7.64 0 0 1 .097-.238c.032-.081.065-.161.091-.243.033-.074.059-.156.086-.236.028-.082.055-.163.076-.238a3.71 3.71 0 0 0 .07-.243l.065-.242c.015-.081.038-.161.053-.243.017-.08.033-.162.044-.241.015-.082.027-.162.044-.244.009-.082.021-.162.027-.243a4.91 4.91 0 0 0 .02-.242c.012-.085.012-.167.018-.249.003-.08.003-.162.003-.247V.027c0-.082-.003-.162-.009-.25a14.73 14.73 0 0 1-.017-.247c-.01-.081-.015-.167-.027-.247-.011-.082-.021-.167-.038-.255-.009-.08-.027-.167-.042-.247l-.049-.253c-.021-.087-.044-.167-.065-.255a5.321 5.321 0 0 0-.07-.253 3.146 3.146 0 0 0-.075-.253c-.028-.085-.055-.173-.087-.258l-.097-.259c-.032-.087-.071-.167-.103-.253a18.527 18.527 0 0 1-.112-.264c-.044-.088-.082-.173-.124-.259-.044-.087-.087-.173-.135-.258-.044-.088-.091-.173-.141-.265-.047-.087-.097-.173-.146-.258a5.645 5.645 0 0 0-.162-.265c-.053-.09-.112-.178-.165-.27a7.002 7.002 0 0 1-.179-.264c-.065-.086-.124-.177-.189-.27-.064-.086-.129-.177-.199-.264a4.628 4.628 0 0 0-.206-.269c-.07-.09-.139-.184-.215-.27l-.023-.032c-.009-.006-.015-.017-.026-.027l-.021-.026-.027-.023-.026-.027-.029-.02-.027-.027-.026-.023-.054-.042-.026-.023-.033-.015-.028-.023-.032-.015-.027-.02-.032-.018-.033-.015-.032-.011-.027-.018-.032-.01-.032-.016-.033-.01-.064-.023-.038-.01-.033-.005-.032-.011-.065-.012-.038-.003-.065-.012h-.038l-.032-.006h-.133l-.038.006h-.032l-.033.006-.038.006-.032.003-.033.006-.038.006-.032.006-.032.01-.033.01-.032.012-.038.011-.032.01-.033.011-.032.015-.032.012-.033.017-.026.015-.033.017-.032.015-.032.021-.027.023-.032.015-.027.023-.032.021-.029.027-18.179 14.84c-.091.077-.178.15-.27.221-.091.076-.179.152-.264.226-.091.076-.177.153-.265.227-.08.076-.167.152-.253.226a12.968 12.968 0 0 0-.485.453c-.082.076-.161.152-.238.226l-.232.228c-.074.074-.144.15-.22.226-.077.075-.145.15-.215.227-.071.074-.141.15-.212.232-.07.074-.14.15-.205.226-.065.074-.133.15-.198.23-.065.076-.125.152-.19.228-.065.075-.124.156-.183.23-.059.076-.118.158-.179.232-.059.077-.112.153-.171.232a8.917 8.917 0 0 0-.162.232 6.352 6.352 0 0 0-.158.232c-.053.077-.1.156-.15.232-.047.08-.097.156-.144.238-.044.074-.094.156-.135.23-.044.082-.088.158-.13.238-.038.076-.082.156-.12.232-.038.082-.08.162-.112.238-.038.08-.076.156-.108.237-.038.08-.071.162-.103.236-.032.082-.059.162-.091.238-.027.082-.059.162-.086.243-.029.08-.05.156-.076.236-.021.082-.05.162-.071.244-.02.08-.043.161-.059.241-.02.076-.038.158-.053.238l-.049.243c-.016.08-.027.162-.038.242-.01.087-.021.167-.033.249-.005.08-.015.162-.021.241l-.017.25c0 .08-.004.161-.004.241 0 .086.001.167.004.25 0 .085.006.165.006.246.006.086.011.168.023.248.004.087.015.167.026.254.01.08.021.166.033.248.015.085.026.167.042.252.017.088.032.168.055.253.015.082.038.168.059.255.021.08.047.166.07.253.027.086.048.168.08.253.027.086.055.173.088.259.026.085.059.167.091.253.038.087.07.173.108.258.037.088.075.173.113.259.038.087.081.173.123.264.038.088.088.173.13.259.043.087.093.173.14.26v.004c.05.088.097.173.151.259.055.093.103.179.161.264.056.093.109.179.168.264.059.092.12.18.179.27a9.4 9.4 0 0 0 .188.265c.065.091.129.177.194.27l.206.268c.074.091.144.179.22.27l.021.027.023.026.027.029.026.026.021.027.029.021.026.027.027.023.027.02.032.021.027.023.026.015.033.023.028.015.033.017.032.016.027.017.032.015.032.017.033.01.032.017.032.01.065.022.032.006.033.01.032.005.038.011.032.006.033.004.032.006h.038l.032.005h.033l.036.006h.103l.032-.006h.038l.065-.011.038-.004.064-.011.033-.012.038-.005.032-.01.065-.023.032-.01.033-.01.032-.016.032-.011.033-.017.032-.016.032-.017.033-.02.026-.016.033-.023.026-.02.033-.018.028-.026.033-.021c4.469-3.65 13.701-11.192 18.172-14.841.092-.076.185-.15.276-.226zM189.134 8.727c-.086.074-.177.15-.263.226-.088.076-.173.15-.261.22-.085.077-.171.151-.253.227-.085.076-.167.152-.247.226l-.244.227c-.079.076-.156.152-.235.226a40.609 40.609 0 0 0-.455.458c-.069.076-.145.152-.215.227l-.209.226c-.071.076-.135.152-.206.232-.065.076-.129.152-.194.226-.065.076-.129.158-.194.232-.059.076-.124.152-.185.232l-.176.226c-.056.082-.115.156-.168.232-.059.082-.114.156-.167.232-.054.08-.103.156-.156.238-.05.074-.103.15-.153.232-.047.074-.091.156-.138.23-.05.082-.092.158-.135.238-.044.076-.086.156-.13.232-.044.082-.082.156-.124.238l-.114.236c-.038.076-.07.157-.108.237-.032.076-.065.156-.097.238-.032.08-.065.156-.091.238-.033.08-.059.161-.086.236a5.677 5.677 0 0 0-.076.243c-.027.08-.048.156-.071.238-.021.08-.041.161-.064.241-.015.082-.038.162-.054.244-.017.08-.032.161-.043.241h-.006c-.01.082-.021.162-.036.243-.012.08-.023.162-.029.242-.009.082-.015.167-.021.25a1.78 1.78 0 0 0-.015.24c-.006.088-.006.168-.006.25-.005.08 0 .167 0 .247 0 .082.006.167.01.25l.017.246c.012.086.015.168.027.247.011.088.021.168.038.255.011.08.026.166.044.253l.047.247c.021.088.044.174.065.253.023.088.044.174.07.261.021.08.05.165.076.253.027.085.054.167.086.253l.097.258c.032.086.07.174.103.26.038.085.076.172.112.258.044.087.082.173.125.258.042.088.086.173.13.265l.144.258c.05.088.097.179.147.265l.162.264c.053.085.112.179.167.264.059.086.118.177.177.265.065.09.124.176.188.27.065.085.13.176.2.268.065.087.135.179.206.27.07.085.14.179.215.27l.022.026.027.027.021.027.027.026.028.023.027.027.026.02.027.024.053.041.029.023.032.021.027.015.032.023.027.015.032.018.032.015.033.017.026.01.033.016.032.012.033.01.064.022.033.01.038.011.064.012.033.003.038.006.097.017h.211l.032-.006h.033l.036-.005.064-.012.038-.01.033-.005.032-.011.032-.006.033-.01.038-.01.032-.012.033-.016.032-.011.032-.015.033-.017.026-.015.033-.018.032-.015.032-.023.029-.015.032-.02.027-.024.032-.02.027-.021c4.471-3.655 13.704-11.192 18.178-14.841.094-.076.179-.152.271-.226l.264-.227c.091-.076.179-.152.259-.222.087-.074.173-.15.258-.227.082-.074.162-.15.244-.226.086-.074.167-.15.242-.226.081-.074.161-.15.237-.227l.233-.226c.076-.074.146-.15.22-.232.071-.074.147-.15.217-.226l.209-.226c.071-.075.141-.15.206-.232.065-.075.135-.15.2-.227.059-.074.123-.156.188-.232.059-.074.124-.15.183-.232.06-.074.119-.15.178-.226.059-.08.113-.156.174-.23.053-.082.106-.158.161-.232.054-.082.107-.158.156-.238.054-.076.103-.15.151-.232a4.76 4.76 0 0 0 .14-.232l.141-.238c.042-.074.086-.156.13-.23.036-.081.079-.158.117-.237.039-.082.077-.156.115-.238.036-.076.074-.156.106-.238a2.84 2.84 0 0 0 .103-.236c.032-.081.059-.157.091-.237.027-.082.059-.162.088-.238.026-.08.047-.162.074-.242.023-.081.049-.161.07-.237a2.69 2.69 0 0 0 .059-.244c.023-.08.038-.161.055-.241.016-.082.033-.162.048-.244.011-.08.027-.161.038-.241.012-.082.021-.162.032-.244.006-.085.018-.167.021-.247l.018-.243c0-.086.005-.168.005-.247 0-.082 0-.168-.005-.25 0-.08-.006-.167-.006-.247-.006-.082-.012-.167-.021-.247-.006-.087-.017-.167-.027-.25-.011-.085-.023-.166-.032-.252-.017-.082-.029-.167-.044-.253-.017-.082-.038-.167-.053-.249-.023-.086-.038-.171-.061-.253-.021-.086-.048-.173-.07-.259a8.766 8.766 0 0 1-.08-.253 3.31 3.31 0 0 0-.086-.252c-.028-.088-.061-.173-.093-.26-.036-.087-.069-.172-.107-.26l-.114-.258a5.97 5.97 0 0 0-.124-.259 11.843 11.843 0 0 1-.129-.264c-.049-.086-.091-.171-.141-.259-.047-.085-.097-.177-.15-.264-.053-.086-.103-.177-.162-.263-.053-.087-.108-.178-.167-.264-.059-.087-.118-.179-.179-.264-.059-.092-.124-.179-.188-.27a7.01 7.01 0 0 1-.194-.27c-.071-.086-.135-.177-.21-.268-.07-.088-.14-.18-.217-.27l-.02-.027c-.006-.012-.018-.017-.021-.027l-.056-.055-.02-.02-.027-.027-.027-.023-.028-.021-.033-.027-.026-.017-.054-.042-.032-.017-.026-.02-.033-.018-.032-.015-.029-.017-.032-.015-.032-.012-.033-.015-.064-.023-.033-.01-.064-.022-.033-.01-.032-.005-.036-.006-.033-.012-.032-.005h-.032l-.038-.004-.033-.006h-.205l-.038.006h-.033l-.032.004-.038.005-.032.006-.033.012-.032.005-.038.01-.032.005-.033.012-.032.01-.032.01-.033.018-.032.01-.032.017-.033.015-.032.017-.032.015-.033.017-.026.021-.033.017-.026.021-.033.021-.026.023-.033.02a41567.957 41567.957 0 0 1-18.175 14.842l-.275.226zM299.885-4.043c2.017 2.474 5.668 2.84 8.149.814 2.481-2.027 2.851-5.677.835-8.15-2.023-2.477-5.668-2.836-8.149-.81a5.784 5.784 0 0 0-.835 8.146zM181.837-.152c-6.822 11.73-9.016 4.88-18.384 12.522l-8.122 6.635-.452.367-8.128 6.637a1.425 1.425 0 0 0-.205 2.005c4.72 5.779 10.02 4.916 15.872.135l17.694-14.447.053-.042.158-.131.059-.048.162-.135.053-.038 25.817-21.082a1.43 1.43 0 0 0 .204-2.006c-8.354-10.24-20.283 1.892-24.781 9.628zM267.268 30.052c2.481-2.027 2.852-5.67.835-8.145a5.788 5.788 0 0 0-8.148-.815c-2.481 2.027-2.858 5.676-.835 8.15 2.016 2.476 5.667 2.836 8.148.81zM301.858 4.199l-.053.042-.156.135-.061.05-.162.129-.053.041-25.815 21.079a1.432 1.432 0 0 0-.206 2.01c8.354 10.237 20.283-1.898 24.781-9.627 6.822-11.731 9.018-4.88 18.384-12.528l8.121-6.631.362-.297v-12.655c-2.372.344-4.859 1.692-7.446 3.81L301.858 4.2zM98.04 17.961c0 .08.012.162.018.248.005.08.015.167.026.247l.033.255c.017.08.032.165.043.247.016.086.038.167.054.253l.059.253c.023.087.05.167.07.255l.082.258c.027.08.053.168.086.253.026.086.059.173.097.259.032.085.064.173.102.258.038.082.076.174.113.259.038.086.081.173.125.259.042.087.086.173.13.258.047.088.09.18.138.265.05.087.103.173.153.264.053.085.106.173.161.259.054.09.109.178.168.27.059.085.118.177.177.264l.188.268c.065.088.129.179.194.264.07.094.141.185.211.27.071.092.141.183.215.27l.023.033.027.027.021.026.026.023.029.027.021.026.026.021.027.023.032.02.027.022.029.023.032.02.026.016.027.017.032.02.033.018.026.015.033.011.032.016.032.011.033.017.032.01.065.022.032.01.033.006.038.011.032.006.032.004.033.005.038.006.032.006h.032l.038.006h.135l.033-.006h.038l.065-.012.036-.005.032-.004.032-.006.038-.006.033-.011.032-.01.032-.005.033-.017.032-.01.033-.011.032-.017.032-.01.033-.017.032-.015.032-.017.033-.015.028-.023.032-.015.033-.021.026-.023.027-.021.032-.027c4.471-3.65 13.704-11.186 18.175-14.84.092-.077.183-.15.274-.221l.265-.226c.085-.077.173-.153.258-.227.088-.076.173-.152.253-.226.088-.076.168-.152.25-.226.08-.07.161-.147.241-.223.082-.074.158-.156.238-.232.076-.074.15-.15.226-.226.077-.074.153-.15.227-.226.07-.075.146-.15.217-.227.068-.074.139-.15.209-.232.07-.074.135-.15.206-.226.064-.074.129-.15.194-.232l.194-.226.182-.232c.059-.075.12-.156.179-.23.053-.077.112-.153.168-.232.058-.077.112-.153.167-.232.053-.077.101-.156.156-.232.048-.077.103-.156.15-.232.05-.082.097-.156.141-.238.048-.074.091-.156.135-.232.048-.08.091-.156.129-.236.042-.076.086-.158.124-.232.038-.082.076-.162.114-.238.036-.08.075-.156.107-.237l.097-.236c.032-.082.065-.162.097-.238l.082-.243c.026-.08.053-.156.08-.236l.064-.244c.027-.08.044-.161.065-.237.023-.08.038-.162.055-.242.015-.082.033-.161.048-.243.011-.08.026-.162.038-.242a3.89 3.89 0 0 0 .026-.249c.012-.08.018-.162.027-.241a3.32 3.32 0 0 0 .011-.25c.006-.08.006-.161.006-.241.006-.088 0-.167 0-.25 0-.085-.006-.167-.011-.246l-.015-.248c-.012-.087-.018-.167-.027-.254-.011-.08-.023-.168-.038-.248a4.46 4.46 0 0 0-.044-.253c-.015-.087-.032-.167-.047-.254-.023-.08-.044-.166-.067-.253-.021-.08-.042-.168-.065-.253-.026-.086-.053-.168-.08-.253a3.924 3.924 0 0 0-.085-.259c-.033-.087-.065-.167-.097-.255-.033-.085-.065-.17-.103-.258a34.754 34.754 0 0 1-.114-.259 5.976 5.976 0 0 0-.124-.259l-.129-.264c-.05-.085-.092-.171-.141-.258-.048-.092-.103-.177-.15-.265-.054-.091-.109-.177-.162-.262a4.377 4.377 0 0 0-.167-.265c-.059-.093-.118-.178-.179-.27a7.221 7.221 0 0 0-.189-.264c-.064-.091-.129-.179-.194-.27-.07-.091-.14-.177-.209-.268a6.804 6.804 0 0 0-.217-.27l-.021-.027c-.011-.011-.017-.023-.026-.028l-.023-.027-.054-.053-.026-.021-.027-.029-.026-.02-.029-.021-.027-.023-.026-.021-.033-.015-.026-.023-.033-.015-.026-.018-.033-.015-.032-.017-.028-.015-.033-.017-.032-.01-.032-.011-.033-.017-.032-.01-.032-.011-.033-.006-.036-.01-.032-.005-.033-.011-.064-.012-.038-.004h-.033l-.032-.005h-.038l-.032-.006h-.071l-.032.006h-.071l-.032.005-.038.004-.097.017-.038.012-.032.003-.065.023-.032.01-.037.011-.034.012-.032.015-.033.017-.026.01-.032.017-.033.015-.032.023-.033.015-.026.023-.032.02-.027.016-.032.028-.027.021c-4.471 3.65-13.704 11.192-18.181 14.84-.091.075-.177.151-.27.227a7.343 7.343 0 0 0-.262.22l-.261.227c-.086.076-.171.15-.253.226-.086.076-.167.15-.247.227-.082.076-.162.152-.244.226-.08.076-.162.152-.236.226l-.228.227c-.074.076-.15.152-.226.226-.069.076-.145.152-.215.226a9.021 9.021 0 0 1-.21.232c-.07.076-.135.152-.205.227-.065.076-.13.157-.194.232a9.52 9.52 0 0 0-.194.232c-.059.076-.124.152-.185.226-.059.082-.118.156-.177.232-.059.076-.114.156-.173.232l-.162.232a5.54 5.54 0 0 0-.156.232c-.05.08-.102.156-.152.236-.047.076-.097.152-.139.232-.05.076-.091.158-.14.232-.044.082-.086.156-.124.237a3.115 3.115 0 0 0-.124.238c-.038.074-.076.156-.114.232a8.03 8.03 0 0 0-.109.236c-.032.082-.068.162-.1.238-.033.081-.061.161-.094.243l-.08.236a5.976 5.976 0 0 1-.081.238c-.021.081-.048.161-.07.243-.022.08-.043.162-.06.242-.02.081-.038.161-.053.243-.017.08-.032.162-.05.241-.009.082-.026.162-.035.244-.012.08-.023.161-.033.241-.005.082-.017.162-.023.244-.005.085-.01.167-.01.247-.005.082-.005.162-.01.25 0 .079 0 .16.005.246 0 .082.006.162.01.25zM139.417 21.761c-2.023-2.474-5.668-2.835-8.149-.814-2.481 2.027-2.859 5.677-.837 8.15 2.017 2.475 5.669 2.836 8.148.815 2.481-2.028 2.854-5.677.838-8.151zM256.875-4.022c2.018 2.474 5.669 2.835 8.15.814 2.481-2.027 2.852-5.677.835-8.15-2.022-2.475-5.667-2.836-8.148-.815-2.481 2.027-2.86 5.677-.837 8.15zM249.828 9.195c.085-.075.177-.15.262-.227.088-.068.174-.144.259-.22.088-.076.173-.15.255-.227.086-.076.167-.15.247-.226l.244-.226.236-.226c.076-.077.152-.15.226-.227.076-.076.152-.152.229-.226.068-.076.144-.152.214-.232.071-.076.141-.15.21-.226.07-.076.135-.152.205-.227.065-.081.13-.156.194-.232.065-.076.13-.15.194-.232.059-.076.124-.15.185-.226.059-.082.118-.156.177-.232.059-.08.114-.156.167-.232l.168-.232c.053-.08.102-.156.156-.232.049-.08.102-.156.152-.236.047-.076.097-.158.139-.232a5.73 5.73 0 0 0 .135-.237c.049-.077.091-.156.129-.232.044-.08.086-.156.124-.238.038-.074.076-.156.114-.236.038-.076.076-.156.108-.238.033-.076.069-.156.097-.237.033-.075.065-.156.098-.236.026-.082.053-.158.079-.238l.082-.243c.021-.075.042-.156.069-.236.023-.082.038-.162.061-.244.021-.081.036-.161.053-.243l.047-.242c.012-.081.029-.161.039-.243.011-.08.022-.162.028-.241.01-.082.015-.162.027-.25.005-.08.009-.161.009-.241.006-.082.006-.167.012-.25 0-.08 0-.16-.006-.246 0-.08-.006-.162-.01-.248a20.833 20.833 0 0 0-.017-.249 3.453 3.453 0 0 0-.026-.247c-.012-.087-.021-.167-.038-.253a4.335 4.335 0 0 0-.044-.249c-.015-.086-.033-.171-.048-.253-.023-.086-.038-.173-.059-.253-.028-.087-.049-.173-.07-.253l-.082-.26c-.027-.08-.053-.166-.086-.253-.032-.086-.059-.171-.097-.259-.032-.085-.064-.173-.102-.259a28.973 28.973 0 0 1-.113-.258 5.092 5.092 0 0 0-.125-.259l-.129-.258c-.048-.086-.092-.18-.139-.265-.05-.085-.103-.173-.153-.264a25.4 25.4 0 0 1-.161-.264l-.168-.265c-.059-.085-.118-.177-.177-.264-.059-.091-.123-.177-.188-.268-.065-.088-.129-.179-.196-.265a7.667 7.667 0 0 0-.209-.27c-.071-.09-.141-.182-.215-.273l-.023-.029c-.01-.004-.015-.015-.027-.027l-.021-.026-.026-.027-.029-.023-.026-.026-.054-.042-.026-.023-.029-.02-.027-.022-.032-.023-.026-.015-.033-.023-.026-.015-.033-.017-.032-.015-.027-.012-.032-.015-.032-.017-.033-.01-.064-.022-.033-.01-.032-.011-.033-.006-.038-.011-.032-.004-.065-.011-.038-.006-.032-.006h-.032l-.038-.006h-.168l-.038.006-.032.006h-.033l-.036.006-.032.005-.032.01-.038.005-.033.012-.032.006-.032.01-.033.01-.032.018-.038.01-.033.01-.032.016-.027.017-.032.015-.032.017-.033.015-.028.023-.032.015-.033.023-.026.021-.033.021-.026.023c-4.471 3.655-13.704 11.19-18.175 14.844-.091.07-.183.147-.274.221-.088.076-.179.152-.265.228-.087.074-.173.15-.258.227-.088.074-.173.15-.253.22-.088.074-.168.15-.25.226-.08.076-.161.15-.241.227-.082.076-.158.15-.238.226l-.226.226c-.077.082-.153.156-.227.232-.07.076-.146.15-.217.227-.068.076-.139.15-.209.226-.07.082-.135.156-.205.232l-.195.226c-.064.08-.129.156-.194.232l-.182.232c-.061.074-.12.15-.179.232-.059.074-.112.15-.168.232-.058.074-.112.15-.167.23-.053.076-.103.152-.156.232l-.15.232c-.05.077-.097.156-.141.232-.048.082-.091.156-.141.238a5.196 5.196 0 0 0-.123.232c-.044.08-.086.162-.124.236-.038.082-.076.158-.114.238-.036.081-.074.156-.107.237-.032.08-.07.156-.103.238-.026.08-.059.156-.091.236l-.082.243a23.23 23.23 0 0 0-.08.238c-.022.08-.049.162-.07.242-.023.076-.038.155-.059.237-.023.08-.038.162-.055.242l-.048.243c-.011.082-.026.162-.038.244-.011.08-.021.161-.026.247a3.267 3.267 0 0 0-.038.49c-.006.08-.006.162-.012.242 0 .082 0 .167.006.249 0 .08.006.167.011.247 0 .082.01.168.015.25.006.085.018.167.027.252.012.08.023.168.032.247l.05.255c.011.08.032.166.048.253.022.08.038.168.06.253.021.08.048.168.069.253.028.082.055.168.082.253.026.087.053.173.085.259.033.081.061.167.097.255.033.085.065.17.103.258l.114.259c.038.085.08.173.124.258.044.086.085.177.129.265.05.085.092.17.141.258.048.092.103.177.15.265.054.085.109.176.162.264.053.086.108.177.167.264.059.092.118.177.179.268.059.088.124.18.189.265.064.091.129.179.194.27.07.085.139.177.209.27.07.085.141.177.217.268l.021.029.026.026.023.027.053.053.027.023.021.02.032.027.029.021.027.023.026.015.033.023.026.021.033.015.026.017.033.016.032.017.028.015.033.011.032.018.032.009.033.011.032.016.032.005.065.023.036.004.033.011.064.012.038.006h.033l.032.003h.07l.033.006h.038l.032-.006h.033l.038-.003h.032l.032-.006.038-.006.065-.011.038-.01.032-.005.065-.023.032-.01.033-.011.032-.015.032-.012.033-.017.032-.015.033-.012.032-.02.032-.018.027-.015.032-.02.033-.024.026-.02.032-.021.027-.023L249.552 9.42l.276-.226zM224.258 30.073c2.481-2.027 2.859-5.676.837-8.15-2.017-2.474-5.668-2.836-8.148-.809-2.481 2.028-2.854 5.671-.838 8.145a5.79 5.79 0 0 0 8.149.814zM145.36 24.305l.033-.017.032-.015.032-.017.033-.015.032-.017.027-.021.032-.015.027-.023.032-.021.026-.021.033-.023 9.606-7.848v-.07l8.234-6.723c5.858-4.78 7.76-9.8 3.048-15.579a1.438 1.438 0 0 0-2.008-.2c-4.474 3.65-13.707 11.192-18.178 14.841-5.858 4.781-7.766 9.8-3.048 15.585a1.433 1.433 0 0 0 2.007.2zM233.535-10.204 215.841 4.24l-.049.044-.162.129-.059.05-.162.132-.055.038-25.815 21.084a1.429 1.429 0 0 0-.206 2.005c8.36 10.242 20.283-1.892 24.783-9.628 6.82-11.73 9.021-4.878 18.384-12.521l8.127-6.637.447-.367 8.128-6.635c.609-.496.7-1.396.203-2.006-4.718-5.778-10.013-4.916-15.87-.133zM213.866-4.001c2.017 2.474 5.668 2.835 8.149.808 2.481-2.021 2.859-5.67.837-8.145a5.79 5.79 0 0 0-8.15-.814c-2.479 2.027-2.852 5.677-.836 8.15zM171.693-12.129a5.798 5.798 0 0 0-.835 8.15c2.022 2.475 5.667 2.836 8.148.809 2.481-2.027 2.858-5.67.836-8.145-2.017-2.476-5.668-2.841-8.149-.814zM129.023-12.313c-2.479 2.027-2.857 5.67-.835 8.145 2.017 2.474 5.668 2.84 8.149.813a5.8 5.8 0 0 0 .837-8.15c-2.023-2.474-5.67-2.836-8.151-.808zM310.277 30.03a5.789 5.789 0 0 0 .835-8.145 5.788 5.788 0 0 0-8.148-.814c-2.481 2.027-2.858 5.676-.836 8.15 2.017 2.474 5.668 2.836 8.149.808zM318.781 25.928a1.433 1.433 0 0 0-.203 2.006c2.631 3.217 5.441 4.376 8.422 3.94V19.217l-.091.076-8.128 6.635zM128.435 17.933c6.823-11.73 9.024-4.878 18.386-12.52l8.122-6.638.453-.367 8.128-6.635c.608-.496.7-1.401.203-2.006-2.629-3.22-5.437-4.376-8.422-3.942v-.004c-.025.004-.048.01-.073.013a11.53 11.53 0 0 0-.481.087l-.106.024a9.52 9.52 0 0 0-.383.093l-.122.032a9.395 9.395 0 0 0-.494.15c-.134.042-.265.09-.396.137-.034.014-.067.025-.099.036-.15.057-.301.118-.451.181-.015.008-.03.013-.044.02a15.61 15.61 0 0 0-1.543.77c-.028.014-.059.034-.087.049-.139.08-.278.163-.419.249l-.129.08c-.127.078-.253.16-.381.241-.049.033-.098.067-.15.1-.122.08-.243.163-.365.248l-.158.109a65.65 65.65 0 0 0-.367.264l-.154.114c-.13.095-.259.196-.39.295l-.134.103c-.173.135-.348.273-.523.416L130.163 4.079l-.055.038-.156.135-.059.05-.162.129-.055.042-25.816 21.084a1.428 1.428 0 0 0-.205 2.004c8.36 10.237 20.283-1.892 24.78-9.628zM120.736 46.51c.609-.497.7-1.396.203-2.007-8.357-10.236-20.282 1.892-24.78 9.629-6.822 11.73-9.022 4.877-18.384 12.522l-8.128 6.635-.447.373-8.128 6.631a1.426 1.426 0 0 0-.204 2.004c4.718 5.785 10.014 4.916 15.871.135l17.694-14.447.05-.038.162-.135.059-.047.161-.13.054-.043 25.817-21.082zM77.621 46.51c.61-.497.7-1.396.204-2.007-8.358-10.236-20.283 1.892-24.78 9.629-6.823 11.73-9.023 4.877-18.385 12.522l-8.127 6.635-.448.373-8.127 6.631a1.426 1.426 0 0 0-.205 2.004c4.719 5.785 10.015 4.916 15.872.135l17.694-14.447.05-.038.161-.135.06-.047.16-.13.054-.043L77.621 46.51zM96.408 76.233c-2.018-2.474-5.67-2.841-8.15-.814-2.48 2.027-2.852 5.677-.835 8.15 2.022 2.475 5.667 2.836 8.148.809 2.481-2.027 2.86-5.671.837-8.145zM53.398 76.25c-2.017-2.476-5.668-2.835-8.149-.81a5.794 5.794 0 0 0-.836 8.147 5.791 5.791 0 0 0 8.15.814c2.48-2.028 2.857-5.677.835-8.151zM10.284 76.25c-2.017-2.476-5.668-2.835-8.15-.81a5.794 5.794 0 0 0-.835 8.147 5.791 5.791 0 0 0 8.149.814c2.48-2.028 2.858-5.677.836-8.151zM206.414 46.677a1.43 1.43 0 0 0 .204-2.006c-8.354-10.243-20.283 1.892-24.781 9.622-6.822 11.735-9.016 4.878-18.384 12.528l-8.122 6.63-.452.372-8.128 6.635a1.428 1.428 0 0 0-.205 2.007c4.72 5.779 10.02 4.91 15.872.135l17.694-14.447.053-.044.158-.135.059-.042.162-.135.053-.044 25.817-21.076zM299.885 50.406c2.017 2.474 5.668 2.836 8.149.814 2.481-2.027 2.851-5.676.835-8.15-2.023-2.475-5.668-2.836-8.149-.815-2.486 2.028-2.857 5.677-.835 8.151zM310.277 84.48c2.481-2.027 2.854-5.67.835-8.145a5.788 5.788 0 0 0-8.148-.813c-2.481 2.027-2.858 5.67-.836 8.144 2.017 2.475 5.668 2.842 8.149.815zM318.161 63.113c-.092.074-.177.15-.269.227-.087.074-.173.15-.258.226-.088.074-.168.15-.255.226-.08.074-.168.15-.248.226-.081.07-.161.145-.243.221-.074.076-.156.15-.232.232a8.11 8.11 0 0 0-.23.226c-.076.076-.153.15-.223.227-.074.076-.145.15-.215.226-.076.076-.146.15-.211.232-.069.076-.139.15-.204.226a3.74 3.74 0 0 0-.199.232c-.065.076-.13.15-.189.227-.065.076-.125.155-.184.232-.059.075-.118.15-.177.231a2.55 2.55 0 0 0-.173.233 6.35 6.35 0 0 0-.162.23 6.744 6.744 0 0 0-.156.232c-.055.076-.103.157-.152.232-.048.081-.097.156-.145.237l-.135.232c-.044.08-.086.156-.129.238-.044.074-.082.156-.118.23-.044.082-.082.164-.12.238-.033.082-.071.156-.103.238-.038.08-.07.155-.103.237a8.037 8.037 0 0 0-.177.48c-.026.08-.053.155-.076.237-.026.08-.047.162-.07.242-.021.081-.042.161-.059.237-.021.08-.038.162-.059.244-.015.08-.027.162-.044.241a3.393 3.393 0 0 0-.036.244l-.034.247c-.01.082-.015.162-.021.243-.006.08-.01.162-.015.248 0 .081-.006.161-.006.243v.247c.006.086.006.168.011.247.004.088.01.168.021.25.006.085.015.167.027.252.006.08.021.168.032.248.012.087.027.167.044.255a8.567 8.567 0 0 0 .112.506c.023.081.044.167.071.252.021.088.049.168.076.253.026.088.059.173.085.26.033.086.065.166.097.254.033.085.071.17.109.258.032.086.07.173.112.259.038.086.082.173.12.259.042.09.086.178.135.264.042.085.091.173.139.259a4.4 4.4 0 0 0 .152.264c.048.091.103.177.156.264.053.091.112.177.173.265.053.09.112.176.177.268.059.087.124.178.183.264.064.091.131.179.2.27.064.091.135.179.205.27.07.091.147.177.215.268l.029.029.02.026.027.027.021.027.029.026.026.023.027.027.027.02.026.023.029.021.032.021.027.017.032.021.027.017.032.016.027.017.032.015.032.017.033.015.032.012.032.01.033.016.032.012.032.01.033.005.032.011.032.006.033.01.038.005.064.012h.038l.033.005h.032l.038.004h.065l.038-.004h.065l.036-.005.065-.012.038-.005.032-.006.032-.01.033-.005.038-.012.032-.01.065-.022.032-.01.032-.017.033-.015.032-.011.032-.017.033-.016.026-.02.033-.018.032-.02.029-.023.032-.016.027-.026.026-.023 9.61-7.843V55.894l-8.569 6.997c-.091.076-.183.152-.27.222zM301.858 58.648l-.053.044-.156.129-.061.05-.162.134-.053.042-25.815 21.079a1.425 1.425 0 0 0-.206 2.004c8.354 10.242 20.283-1.892 24.781-9.628 6.822-11.73 9.018-4.878 18.384-12.521l8.121-6.637.362-.29V40.395c-2.372.34-4.859 1.692-7.446 3.807l-17.696 14.445zM232.144 63.155l-.265.226c-.087.076-.173.147-.258.223-.088.074-.173.15-.253.226-.088.074-.168.15-.25.226-.08.075-.161.15-.241.227-.082.074-.158.15-.238.226-.076.074-.15.15-.226.226a9.69 9.69 0 0 0-.227.227c-.07.08-.146.156-.217.232l-.209.226a22.784 22.784 0 0 0-.4.458c-.064.074-.129.156-.194.232-.059.074-.123.15-.182.23-.061.076-.12.152-.179.228-.059.08-.112.156-.168.23-.058.082-.112.158-.167.233l-.156.237c-.048.076-.103.15-.15.232-.05.076-.097.156-.141.232-.048.08-.091.156-.141.238a6.52 6.52 0 0 0-.123.23c-.044.082-.086.158-.124.238-.038.082-.076.156-.114.238-.036.076-.074.156-.107.237-.032.074-.07.156-.103.236-.026.076-.059.158-.091.238-.027.082-.055.156-.082.237l-.08.242c-.022.082-.049.158-.07.238-.023.082-.038.161-.059.243-.023.08-.038.162-.055.242l-.048.243c-.011.08-.026.162-.038.242a3.343 3.343 0 0 0-.026.243c-.012.08-.023.167-.027.247a3.305 3.305 0 0 0-.011.244c-.006.08-.006.167-.012.247 0 .082 0 .167.006.249 0 .08.006.165.011.247 0 .082.01.168.015.247.006.082.018.168.027.25.012.085.023.167.032.252.018.082.033.168.05.253.011.082.032.168.048.25.022.085.038.17.06.252.021.086.048.173.069.253l.082.259c.026.087.053.167.085.253.033.087.061.173.097.259.033.087.065.173.103.26l.114.259c.038.085.08.17.124.258.044.086.085.172.129.259.05.091.092.177.141.264.048.086.103.177.15.265.054.085.109.17.162.262.053.087.108.179.167.264.059.088.118.18.179.265.059.091.124.178.189.27.064.085.129.177.194.27.07.085.139.177.209.268.07.087.141.179.217.27l.021.027.026.026.023.029.027.026.026.021.027.027.021.023.032.02.029.022.027.022.026.021.033.021.026.017.033.021.026.017.033.016.032.017.028.015.033.011.032.016.065.022.032.01.065.023.032.01.036.005.097.017.038.006.033.004.032.005h.206l.038-.005h.032l.032-.004.038-.006.033-.006.032-.011.038-.006.032-.01.033-.005.032-.011.032-.01.033-.011.032-.017.032-.01.033-.017.032-.015.033-.017.032-.016.032-.017.027-.02.032-.018.033-.02.026-.022.032-.022.027-.021c4.471-3.655 13.704-11.192 18.175-14.847.091-.068.183-.144.276-.22.085-.077.177-.15.262-.227.088-.076.174-.15.259-.226.088-.07.173-.145.255-.22.086-.077.167-.153.247-.227.082-.076.162-.152.244-.226.08-.076.156-.152.236-.227l.226-.226c.076-.076.152-.158.229-.232.068-.076.144-.152.214-.226l.21-.226c.07-.077.135-.158.205-.232l.194-.227c.065-.076.13-.158.194-.232.059-.076.124-.152.185-.232.059-.076.118-.15.177-.232a5.53 5.53 0 0 0 .167-.226c.059-.082.114-.156.168-.238.053-.074.102-.15.156-.232.049-.074.102-.15.152-.232.047-.074.097-.156.139-.23.049-.082.091-.158.135-.238.049-.076.091-.156.129-.232.044-.081.086-.156.124-.237.038-.08.076-.156.114-.238.038-.08.076-.156.108-.236.033-.082.069-.156.097-.238l.098-.237a22.447 22.447 0 0 1 .161-.48c.021-.08.042-.161.069-.237.023-.08.038-.162.061-.242.021-.081.036-.161.053-.243l.047-.242c.012-.081.029-.161.039-.243.011-.08.022-.162.028-.241.01-.088.015-.168.027-.25.005-.08.009-.161.009-.241.006-.088.006-.167.012-.25 0-.08 0-.167-.006-.246 0-.082-.006-.168-.01-.25l-.017-.247a3.614 3.614 0 0 0-.026-.253c-.012-.082-.021-.161-.038-.249a4.775 4.775 0 0 0-.044-.253l-.048-.247c-.023-.087-.038-.173-.059-.253a3.591 3.591 0 0 1-.07-.26c-.027-.08-.055-.166-.082-.253-.027-.086-.053-.172-.086-.253-.032-.086-.059-.173-.097-.259-.032-.086-.064-.173-.102-.259a28.972 28.972 0 0 1-.113-.258 4.419 4.419 0 0 0-.125-.259c-.042-.087-.086-.173-.129-.264l-.139-.259-.153-.264c-.053-.086-.106-.179-.161-.264-.054-.086-.109-.18-.168-.265-.059-.085-.118-.177-.177-.264-.059-.091-.123-.177-.188-.27-.065-.091-.129-.177-.196-.268l-.209-.27c-.071-.086-.141-.18-.215-.27l-.023-.027c-.01-.012-.015-.015-.027-.027l-.021-.026-.026-.027-.029-.023-.026-.026-.027-.021-.027-.027-.026-.023-.029-.02-.027-.018-.032-.02-.026-.016-.033-.023-.026-.015-.033-.017-.032-.015-.027-.017-.032-.01-.032-.017-.033-.011-.032-.01-.065-.023-.032-.01-.033-.01-.038-.006-.032-.006-.032-.01-.033-.005h-.038l-.064-.012h-.206l-.038.006h-.032l-.033.006-.036.006-.032.003-.032.006-.038.011-.033.006-.032.01-.065.022-.032.01-.038.017-.033.011-.032.016-.027.017-.032.015-.032.017-.033.015-.028.017-.065.042-.026.023-.033.021-.026.02c-4.471 3.656-13.704 11.192-18.175 14.842l-.274.226zM182.086 76.394c-2.018-2.474-5.669-2.84-8.15-.813-2.481 2.027-2.852 5.676-.835 8.15 2.022 2.474 5.667 2.836 8.148.814 2.481-2.027 2.86-5.676.837-8.15zM225.095 76.374c-2.017-2.474-5.668-2.836-8.148-.814-2.481 2.027-2.854 5.676-.838 8.15a5.79 5.79 0 0 0 8.149.814c2.481-2.027 2.859-5.676.837-8.15zM233.535 44.245l-17.694 14.447-.049.043-.162.13-.059.047-.162.13-.055.043-25.815 21.082a1.43 1.43 0 0 0-.206 2.007c8.36 10.236 20.283-1.893 24.783-9.629 6.82-11.73 9.021-4.877 18.384-12.522l8.127-6.635.447-.367 8.128-6.635c.609-.496.7-1.402.203-2.006-4.718-5.78-10.013-4.916-15.87-.135zM139.417 76.212a5.79 5.79 0 0 0-8.149-.814c-2.481 2.027-2.859 5.677-.837 8.15 2.017 2.475 5.669 2.836 8.148.809a5.792 5.792 0 0 0 .838-8.145zM136.337 51.096c2.48-2.027 2.853-5.676.837-8.15-2.023-2.474-5.67-2.836-8.151-.808-2.479 2.021-2.857 5.67-.835 8.145 2.017 2.474 5.668 2.84 8.149.813zM98.04 72.405c0 .087.012.167.018.249.005.086.015.167.026.253.012.082.021.167.033.247.017.088.032.167.043.255.016.085.038.167.054.253.02.08.038.167.059.253.023.081.05.167.07.253.027.087.055.167.082.254.027.086.053.172.086.26.026.085.059.166.097.252.032.086.064.173.102.259l.113.258c.038.086.081.173.125.259.042.091.086.179.13.264.047.086.09.173.138.259.05.091.103.179.153.264.053.091.106.179.161.265.054.09.109.176.168.264.059.091.118.177.177.27.059.085.123.177.188.262.065.093.129.18.194.27.07.092.141.18.211.27.071.092.141.177.215.27l.023.027.027.027.021.026.026.027.029.027.021.022.026.027.027.02.032.024.027.02.029.022.032.017.026.02.027.018.032.015.033.017.026.015.033.017.032.016.032.011.033.015.065.023.032.01.032.005.033.012.038.005.032.01.065.011.038.006h.032l.032.006h.038l.033.005h.102l.033-.005h.038l.065-.012.036-.005.032-.006.032-.004.038-.011.033-.006.032-.011.032-.01.065-.023.033-.01.032-.016.032-.01.033-.017.032-.015.032-.017.033-.021.028-.017.032-.021.033-.023.026-.015.027-.027.032-.023c4.471-3.65 13.704-11.19 18.175-14.839l.274-.226c.088-.076.179-.146.265-.222.085-.075.173-.15.258-.227a5.69 5.69 0 0 0 .253-.226c.088-.074.168-.15.25-.226.08-.075.161-.15.241-.227.082-.074.158-.15.238-.226l.226-.226c.077-.076.153-.15.227-.227.07-.076.146-.15.217-.226.068-.082.139-.156.209-.232.07-.076.135-.15.206-.226.064-.076.129-.156.194-.232l.194-.226c.059-.08.123-.156.182-.232l.179-.232.168-.233c.058-.074.112-.155.167-.23.053-.076.101-.157.156-.232.048-.081.103-.157.15-.232.05-.081.097-.156.141-.237.048-.076.091-.156.135-.232.048-.08.091-.156.129-.238.042-.074.086-.156.124-.236.038-.076.076-.158.114-.232.036-.082.075-.161.107-.237a15.3 15.3 0 0 1 .097-.238l.097-.242.082-.237c.026-.08.053-.162.08-.238l.064-.242c.027-.081.044-.161.065-.243.023-.08.038-.162.055-.242.015-.081.033-.161.048-.243.011-.08.026-.162.038-.241.011-.082.021-.164.026-.244.012-.082.018-.162.027-.243.006-.086.011-.166.011-.248.006-.08.006-.161.006-.247.006-.082 0-.161 0-.249 0-.08-.006-.162-.011-.247-.006-.082-.01-.162-.015-.25-.012-.08-.018-.165-.027-.246a5.516 5.516 0 0 0-.038-.253 4.317 4.317 0 0 0-.044-.25c-.015-.085-.032-.165-.047-.252l-.067-.253a11.886 11.886 0 0 0-.065-.253 7.224 7.224 0 0 0-.08-.253 4.365 4.365 0 0 0-.085-.26 15.87 15.87 0 0 1-.097-.26c-.033-.085-.065-.17-.103-.252l-.114-.265a5.978 5.978 0 0 0-.124-.258c-.044-.086-.085-.171-.129-.259-.05-.085-.092-.173-.141-.264-.048-.086-.103-.171-.15-.265-.054-.085-.109-.17-.162-.258a9.795 9.795 0 0 0-.167-.268l-.179-.265c-.059-.087-.124-.178-.189-.27-.064-.085-.129-.178-.194-.264-.07-.091-.14-.183-.209-.27a4.845 4.845 0 0 0-.217-.268l-.021-.032c-.011-.006-.017-.018-.026-.03l-.023-.026-.027-.02-.027-.027-.026-.023-.027-.027-.026-.02-.029-.022-.027-.022-.026-.021-.033-.017-.026-.021-.033-.017-.026-.021-.033-.015-.032-.018-.028-.011-.033-.015-.032-.012-.032-.015-.065-.023-.032-.01-.033-.01-.036-.006-.032-.01-.097-.017-.038-.006-.033-.005h-.032l-.038-.004h-.135l-.038.004h-.033l-.032.005-.038.006-.097.017-.038.004-.065.023-.032.01-.032.01-.037.012-.034.01-.032.017-.033.011-.026.015-.032.017-.033.016-.032.017-.033.02-.026.022-.032.017-.027.02-.032.023-.027.027-18.181 14.839c-.091.076-.177.152-.27.222-.091.075-.177.15-.262.227-.088.074-.173.15-.261.226-.086.074-.171.15-.253.226a503.49 503.49 0 0 0-.491.453c-.08.076-.162.15-.236.226l-.228.227c-.074.076-.15.15-.226.226-.069.076-.145.15-.215.226a7.962 7.962 0 0 0-.21.232l-.205.226c-.065.077-.13.15-.194.233l-.194.226c-.059.076-.124.156-.185.232l-.177.232a7.87 7.87 0 0 0-.173.232c-.053.074-.108.15-.162.232a4.566 4.566 0 0 0-.156.232l-.152.23c-.047.082-.097.158-.139.238-.05.076-.091.156-.14.232-.044.081-.086.156-.124.237a3.922 3.922 0 0 0-.124.232c-.038.08-.076.162-.114.236-.038.082-.076.158-.109.238-.032.082-.068.162-.1.237-.033.08-.061.162-.094.238l-.08.242c-.026.082-.053.156-.081.238-.021.08-.048.161-.07.241-.022.082-.043.162-.06.243-.02.076-.038.156-.053.238-.017.08-.032.162-.05.242-.009.081-.026.161-.035.243l-.033.247c-.005.082-.017.162-.023.244a3.45 3.45 0 0 0-.01.247c-.005.082-.005.162-.01.243 0 .086 0 .168.005.248 0 .085.006.167.01.247zM213.866 50.45c2.017 2.474 5.668 2.835 8.149.808 2.481-2.027 2.859-5.67.837-8.145a5.79 5.79 0 0 0-8.15-.814c-2.479 2.027-2.852 5.677-.836 8.15zM59.681 78.59c4.47-3.65 13.704-11.192 18.18-14.842 5.851-4.78 7.76-9.8 3.041-15.584a1.433 1.433 0 0 0-2.006-.2c-4.47 3.655-13.703 11.192-18.174 14.847-5.857 4.78-7.766 9.8-3.047 15.578a1.433 1.433 0 0 0 2.006.2zM16.567 78.59c4.47-3.65 13.703-11.192 18.18-14.842 5.85-4.78 7.76-9.8 3.04-15.584a1.433 1.433 0 0 0-2.005-.2C31.31 51.62 22.078 59.156 17.607 62.811c-5.856 4.78-7.766 9.8-3.047 15.578a1.433 1.433 0 0 0 2.007.2zM145.36 78.75l.033-.01.032-.016.032-.017.033-.015.032-.023.027-.015.032-.023.027-.015.032-.021.026-.023.033-.027 9.606-7.842v-.07l8.234-6.723c5.858-4.78 7.76-9.8 3.048-15.579a1.43 1.43 0 0 0-2.008-.2 29439.95 29439.95 0 0 0-18.178 14.841c-5.858 4.781-7.766 9.8-3.048 15.579a1.43 1.43 0 0 0 2.007.2zM183.719 72.572l.017.25c.012.08.015.167.027.246.011.086.021.168.038.253.011.082.026.168.044.25l.047.252c.021.086.044.168.065.253.023.088.044.173.07.253.021.088.05.173.076.26.027.08.054.166.086.254.032.085.065.17.097.258.032.086.07.173.103.259.038.086.076.173.112.259.044.085.082.173.125.258.042.086.086.173.13.259l.144.264c.05.086.097.173.147.265l.162.264c.053.085.112.171.167.264.059.086.118.177.177.265.065.09.124.176.188.268.065.087.13.178.2.264.065.091.135.184.206.27.07.091.14.183.215.27l.022.032.027.027.021.027.027.02.028.027.027.029.053.042.027.022.026.021.029.021.032.023.027.015.032.017.027.021.032.017.032.016.033.011.026.015.033.017.032.01.065.023.032.01.033.01.038.006.032.012.032.004.033.005.038.006.064.011h.033l.038.006h.173l.065-.011h.036l.032-.006.032-.011.038-.004.033-.006.064-.023.033-.004.038-.011.032-.017.033-.01.032-.011.032-.015.033-.017.026-.016.033-.017.032-.015.032-.023.029-.015.032-.023.027-.02.032-.022.027-.022c4.471-3.655 13.704-11.19 18.178-14.845l.271-.22c.091-.077.178-.153.264-.229a4.51 4.51 0 0 0 .259-.226c.087-.074.173-.15.258-.226.082-.075.162-.145.244-.221.086-.076.167-.15.242-.226.081-.076.161-.15.237-.227l.233-.232c.076-.076.146-.15.22-.226.071-.076.147-.15.217-.226l.209-.227c.071-.081.141-.155.206-.231.065-.077.135-.15.2-.227.059-.081.123-.156.188-.232l.183-.232c.06-.074.119-.15.178-.232.059-.074.113-.15.174-.232a16.134 16.134 0 0 0 .317-.462c.054-.076.103-.158.151-.232.049-.082.097-.156.14-.238.048-.076.092-.15.141-.232l.13-.237c.036-.075.079-.156.117-.23l.115-.238c.036-.082.074-.156.106-.238.038-.08.071-.156.103-.238.032-.08.059-.161.091-.235.027-.082.059-.162.088-.244.026-.076.047-.156.074-.237.023-.08.049-.162.07-.242.023-.082.044-.156.059-.238.023-.08.038-.161.055-.241l.048-.244c.011-.081.027-.161.038-.243.012-.08.021-.165.032-.247.006-.082.018-.162.021-.244l.018-.247c0-.08.005-.162.005-.241 0-.088 0-.168-.005-.25 0-.085-.006-.167-.006-.247a6.005 6.005 0 0 0-.021-.249c-.006-.086-.017-.167-.027-.253a10.45 10.45 0 0 1-.032-.247c-.017-.088-.029-.167-.044-.255-.017-.08-.038-.165-.053-.253-.023-.08-.038-.167-.061-.253-.021-.08-.048-.167-.07-.253-.027-.087-.054-.167-.08-.253a5.284 5.284 0 0 0-.086-.26c-.028-.086-.061-.166-.093-.253-.036-.086-.069-.171-.107-.259a33 33 0 0 1-.114-.258 5.068 5.068 0 0 0-.124-.259c-.043-.085-.085-.177-.129-.264-.049-.086-.091-.173-.141-.259a4.341 4.341 0 0 0-.15-.264c-.053-.086-.103-.177-.162-.264-.053-.086-.108-.177-.167-.265-.059-.091-.118-.177-.179-.268a6.701 6.701 0 0 0-.188-.264l-.194-.27c-.071-.092-.135-.177-.21-.27a7.29 7.29 0 0 0-.217-.269l-.02-.028c-.006-.01-.018-.021-.021-.027l-.029-.026-.027-.027-.02-.027-.027-.022-.027-.027-.028-.021-.033-.02-.026-.024-.027-.02-.027-.018-.032-.02-.026-.016-.033-.017-.032-.015-.029-.017-.032-.016-.032-.017-.033-.011-.032-.01-.032-.017-.033-.011-.032-.01-.032-.005-.033-.012-.032-.005-.036-.01-.097-.017h-.038l-.033-.006h-.032l-.038-.003h-.071l-.032.003h-.07l-.065.012-.038.005-.065.012-.032.01-.038.005-.032.011-.033.01-.097.034-.032.015-.032.017-.033.01-.032.017-.032.021-.033.017-.026.015-.033.021-.026.023-.033.021-.026.02-.033.024-18.175 14.84-.275.227c-.086.074-.177.15-.263.22-.088.075-.173.15-.261.227-.085.076-.171.15-.253.226-.085.076-.167.15-.247.226l-.244.227-.235.226c-.077.076-.153.15-.227.226l-.228.227c-.069.076-.145.152-.215.231-.071.077-.141.15-.209.227-.071.076-.135.15-.206.226-.065.082-.129.156-.194.232-.065.076-.129.15-.194.232-.059.076-.124.15-.185.226-.059.082-.118.156-.176.232-.056.076-.115.156-.168.232-.059.075-.114.156-.167.232-.054.08-.103.156-.156.232-.05.08-.103.156-.153.236-.047.076-.091.152-.138.232-.05.076-.092.156-.135.232l-.13.238c-.044.08-.082.156-.124.238-.038.074-.076.156-.114.236-.038.076-.07.155-.108.231l-.097.244a2.798 2.798 0 0 0-.091.236 5.681 5.681 0 0 0-.162.481c-.027.074-.048.156-.071.236-.021.081-.041.161-.064.243-.015.082-.038.162-.054.244-.017.08-.032.161-.043.241h-.006a4.08 4.08 0 0 1-.036.243 6.01 6.01 0 0 0-.05.49c-.011.08-.015.163-.015.243-.006.081-.006.167-.006.249-.005.08 0 .161 0 .247 0 .08.006.162.01.247zM318.781 80.373a1.438 1.438 0 0 0-.203 2.01c2.631 3.22 5.441 4.372 8.422 3.942V73.668l-.091.074-8.128 6.63zM267.856 54.255c-6.822 11.73-9.024 4.88-18.386 12.523l-8.126 6.637-.452.365-8.122 6.637a1.425 1.425 0 0 0-.206 2.004c4.713 5.78 10.015 4.916 15.871.135l17.696-14.447.047-.042.162-.13.059-.049.162-.13.049-.043 25.821-21.082a1.425 1.425 0 0 0 .206-2.004c-8.36-10.237-20.283 1.892-24.781 9.626zM256.875 50.429c2.018 2.474 5.669 2.835 8.15.808a5.79 5.79 0 0 0 .835-8.145 5.788 5.788 0 0 0-8.148-.814c-2.481 2.026-2.86 5.677-.837 8.15zM171.693 42.32c-2.481 2.027-2.852 5.67-.835 8.145a5.786 5.786 0 0 0 8.148.814c2.481-2.025 2.858-5.675.836-8.149-2.017-2.476-5.668-2.837-8.149-.81zM292.836 63.625c.086-.076.177-.153.265-.227.085-.07.171-.146.258-.22l.254-.226c.085-.077.167-.153.247-.229.082-.074.162-.15.243-.226.08-.074.156-.15.238-.226l.227-.227c.074-.074.15-.15.22-.226.076-.074.145-.156.221-.232l.211-.226c.071-.074.135-.15.204-.227.064-.08.129-.155.196-.232.064-.074.129-.15.188-.232.065-.074.124-.15.188-.226.059-.08.118-.156.177-.23.055-.082.114-.158.168-.232.061-.082.114-.158.167-.232.055-.082.103-.156.156-.232.05-.082.097-.156.152-.238.048-.076.092-.156.139-.232.05-.08.093-.156.135-.237.044-.075.088-.156.13-.23.043-.082.081-.158.125-.238l.112-.238c.039-.076.071-.156.109-.238a10.17 10.17 0 0 0 .42-1.19l.065-.244c.015-.08.038-.161.053-.241.017-.082.033-.162.044-.243.015-.08.027-.162.044-.242.009-.082.021-.162.027-.243.009-.08.015-.162.02-.248.012-.081.012-.161.018-.243.003-.08.003-.167.003-.247v-.25c0-.08-.003-.161-.009-.247a20.53 20.53 0 0 1-.017-.247c-.01-.081-.015-.167-.027-.249-.011-.085-.021-.167-.038-.253-.009-.08-.027-.167-.042-.247-.017-.087-.032-.173-.049-.255l-.065-.253a3.621 3.621 0 0 0-.07-.253 6.308 6.308 0 0 0-.162-.512l-.097-.258c-.032-.087-.071-.173-.103-.258l-.112-.261c-.044-.086-.082-.171-.124-.259-.044-.085-.087-.17-.135-.258a4.197 4.197 0 0 0-.141-.265c-.047-.085-.097-.17-.146-.262l-.162-.264c-.053-.088-.112-.174-.165-.265-.061-.087-.12-.178-.179-.264-.065-.091-.124-.179-.189-.27-.064-.086-.129-.177-.199-.27a10.685 10.685 0 0 0-.206-.264c-.07-.092-.139-.183-.215-.274l-.023-.027a.168.168 0 0 0-.026-.027l-.021-.028-.027-.027-.026-.02-.029-.027-.027-.023-.053-.042-.027-.023-.026-.02-.033-.022-.028-.017-.032-.02-.027-.018-.032-.015-.033-.017-.032-.015-.027-.012-.032-.015-.065-.023-.032-.01-.032-.01-.038-.012-.033-.006-.032-.01-.065-.01-.038-.006-.032-.006-.033-.004h-.038l-.032-.006h-.171l-.032.006-.033.004h-.038l-.065.011-.038.012-.032.006-.032.009-.033.006-.032.011-.038.01-.032.017-.033.011-.032.01-.032.017-.033.015-.026.017-.033.015-.032.017-.032.021-.027.017-.032.021-.027.021-.032.023-.029.021a49392.48 49392.48 0 0 1-18.179 14.846c-.091.07-.178.145-.27.221-.091.076-.179.15-.264.226-.091.076-.177.15-.265.227-.08.076-.167.146-.253.22-.08.076-.161.152-.247.227-.082.076-.162.152-.238.226-.082.076-.161.152-.238.226-.076.076-.156.152-.232.226-.074.076-.144.158-.22.232-.077.076-.145.153-.215.227-.071.076-.141.152-.212.226-.07.076-.14.158-.205.232-.065.076-.133.152-.198.226-.065.082-.125.158-.19.232a35.822 35.822 0 0 0-.362.464c-.059.076-.112.15-.171.232-.055.076-.108.15-.162.232-.055.076-.108.15-.158.232-.053.075-.1.156-.15.232l-.144.23c-.044.082-.094.158-.135.238-.044.076-.088.156-.13.232-.038.082-.082.162-.12.238-.038.08-.08.156-.112.238-.038.08-.076.156-.108.235a4.067 4.067 0 0 0-.103.238l-.091.238c-.027.08-.059.162-.086.236-.029.081-.05.161-.076.243-.021.082-.05.162-.071.243-.02.075-.043.157-.059.236-.02.082-.038.162-.053.244l-.049.241a4.099 4.099 0 0 0-.038.244l-.033.243c-.005.086-.015.165-.021.247l-.017.242c0 .087-.004.167-.004.249 0 .08.001.167.004.247 0 .082.006.167.006.25.006.08.011.167.023.246.004.086.015.168.026.253.01.082.021.168.033.25.015.085.026.167.042.252.017.08.032.168.055.253.015.082.038.168.059.253.021.082.047.168.07.255.027.08.048.166.08.253.027.086.055.173.088.253.026.086.059.173.091.259.038.085.07.173.108.258.037.088.075.173.113.259.038.087.081.173.123.258.038.088.088.18.13.265.043.087.093.173.14.258.05.088.097.18.151.265.055.087.103.178.161.264.056.086.109.179.168.264.059.092.12.18.179.265.059.091.123.177.188.27l.194.268c.071.088.135.179.206.27.074.086.144.179.22.27l.021.027.023.026.053.054.021.022.029.027.026.02.027.03.027.02.032.021.027.017.026.021.033.021.028.017.033.016.032.017.027.015.032.017.032.011.033.016.032.011.032.01.065.022.032.01.033.011.032.006.038.006.032.01.033.005h.032l.038.006.032.005h.204l.038-.005h.032l.033-.006.038-.006.032-.004.032-.005.033-.012.038-.005.032-.01.065-.023.032-.01.033-.016.032-.012.032-.015.033-.017.032-.015.032-.017.033-.016.026-.017.033-.02.026-.022.033-.022.028-.021.033-.021c4.469-3.655 13.701-11.192 18.172-14.841.092-.076.185-.15.276-.226zM267.268 84.501a5.798 5.798 0 0 0 .835-8.15c-2.022-2.474-5.667-2.836-8.148-.808-2.481 2.027-2.858 5.67-.835 8.144 2.016 2.475 5.667 2.842 8.148.814zM86.015 42.153c-2.48 2.027-2.858 5.676-.836 8.15 2.017 2.476 5.668 2.836 8.149.814 2.48-2.025 2.858-5.674.835-8.15-2.016-2.474-5.667-2.836-8.148-.814zM42.9 42.153c-2.48 2.027-2.858 5.676-.835 8.15 2.017 2.476 5.668 2.836 8.148.814 2.481-2.025 2.858-5.674.836-8.15-2.017-2.474-5.668-2.836-8.148-.814zM128.435 72.384c6.823-11.73 9.024-4.878 18.386-12.529l8.122-6.629.362-.296.091-.077 8.128-6.629c.608-.502.7-1.401.203-2.012-2.629-3.22-5.437-4.374-8.422-3.938v-.002c-.008.002-.015.004-.023.004-.09.013-.181.03-.272.047a7.097 7.097 0 0 0-.464.095l-.227.054a7.33 7.33 0 0 0-.489.14 4.575 4.575 0 0 0-.232.075c-.089.028-.181.06-.27.093-.07.024-.141.051-.213.078l-.31.123-.175.073a10.834 10.834 0 0 0-.489.222c-.17.08-.339.165-.508.253l-.091.05a14.785 14.785 0 0 0-.558.31c-.12.07-.242.14-.363.214l-.164.103c-.116.072-.232.145-.348.22-.057.039-.114.075-.171.113-.116.078-.232.156-.348.236l-.172.12c-.118.083-.236.169-.355.256-.054.04-.109.078-.162.118-.128.095-.257.194-.384.293a22.727 22.727 0 0 0-.661.521l-17.693 14.441-.055.044-.156.135-.059.048-.162.129-.055.044L103.86 80c-.342.28-.521.689-.525 1.101-.002.32.103.641.32.905 8.36 10.243 20.283-1.892 24.78-9.622z"/>
            </g>
        </mask>
        <g mask="url(#fx2cm9333b)">
            <path d="M-14.1 86.495h341.067V-113.6s-82.892-95.682-130.901 11.415C148.056 4.913 87.628 69.365-14.101 86.495z" fill="#1A79CB"/>
        </g>
    </g>
    <defs>
        <clipPath id="u6yjcg7o9a">
            <path fill="#fff" d="M0 0h327v86H0z"/>
        </clipPath>
    </defs>
</svg>
