<svg width="487" height="100" viewBox="0 0 487 100" fill="none" xmlns="http://www.w3.org/2000/svg">
    <g clip-path="url(#yaitdgadma)">
        <mask id="5eww6aw8qb" style="mask-type:alpha" maskUnits="userSpaceOnUse" x="0" y="-203" width="487" height="312">
            <g opacity=".8" fill-rule="evenodd" clip-rule="evenodd" fill="#1A79CB">
                <path d="M269.934-137.182c3.695-3.019 4.259-8.445 1.247-12.13-3.006-3.685-8.444-4.231-12.139-1.212-3.694 3.016-4.247 8.454-1.243 12.139 3.011 3.684 8.44 4.222 12.135 1.203zM383.81-200.124c-3.695 3.019-4.259 8.446-1.247 12.13 3.006 3.693 8.443 4.232 12.138 1.212 3.695-3.016 4.247-8.445 1.244-12.13-3.012-3.684-8.441-4.231-12.135-1.212zM316.085-182.261a7.87 7.87 0 0 0-.031-.377c-.009-.122-.026-.241-.04-.368-.017-.122-.034-.25-.048-.371-.025-.128-.042-.255-.065-.377-.026-.127-.057-.249-.079-.377-.034-.13-.057-.249-.091-.376-.031-.131-.071-.25-.105-.38-.04-.127-.079-.255-.119-.377-.04-.127-.079-.257-.127-.385a12.8 12.8 0 0 0-.139-.385c-.054-.119-.102-.249-.159-.377l-.17-.385a7.371 7.371 0 0 0-.184-.393l-.193-.386c-.073-.13-.136-.257-.209-.393a7.41 7.41 0 0 0-.224-.385c-.08-.136-.153-.267-.241-.394a7.107 7.107 0 0 0-.249-.394c-.088-.136-.176-.266-.267-.402a18.523 18.523 0 0 0-.28-.394c-.097-.136-.193-.271-.289-.399-.105-.136-.202-.266-.312-.402-.105-.136-.21-.272-.323-.402l-.031-.04c-.009-.017-.026-.031-.031-.048l-.043-.031-.04-.04-.031-.042-.039-.032-.04-.039-.043-.034-.048-.031-.039-.031-.04-.034-.04-.023-.048-.031-.04-.026-.048-.022-.048-.026-.042-.023-.049-.025-.048-.023-.048-.017-.048-.025-.048-.014-.097-.034-.048-.006-.096-.034-.054-.008-.048-.009-.048-.006-.048-.008-.057-.009h-.048l-.048-.008h-.21l-.048.008h-.057l-.096.017-.057.006-.144.026-.057.017-.048.014-.097.034-.048.014-.048.017-.048.025-.048.014-.048.026-.049.023-.048.025-.048.031-.04.026-.048.031-.039.023-.049.034-.039.031-.049.039c-6.658 5.435-20.409 16.659-27.067 22.103-.136.113-.272.223-.411.337-.128.104-.264.218-.391.328-.13.113-.258.227-.388.337l-.377.337c-.128.114-.249.227-.368.337l-.363.34c-.119.111-.232.224-.351.337-.114.111-.227.224-.338.337l-.34.337c-.102.111-.215.224-.32.337-.105.111-.209.232-.311.346-.105.11-.202.224-.306.337-.097.11-.193.224-.289.345-.097.111-.193.224-.289.337-.088.119-.185.233-.275.346-.088.11-.176.232-.264.343l-.249.345c-.088.113-.17.235-.25.346-.079.113-.153.235-.232.345-.074.122-.153.232-.227.346l-.206.354c-.074.11-.136.232-.202.345l-.192.351c-.065.114-.122.235-.184.346v.008l-.17.346c-.057.122-.105.241-.162.354-.048.119-.096.241-.144.351-.049.122-.097.241-.136.363-.049.113-.088.232-.128.354-.04.119-.079.232-.113.351-.04.122-.071.241-.105.362-.031.119-.062.241-.096.36-.023.122-.057.235-.08.354a5.758 5.758 0 0 0-.065.363h-.008a6.66 6.66 0 0 1-.054.368c-.017.122-.034.241-.043.362-.014.119-.022.241-.031.36a2.718 2.718 0 0 0-.023.371c-.008.119-.008.241-.008.368-.009.122 0 .241 0 .363 0 .127.008.249.014.368l.026.377c.017.121.022.24.039.371.017.119.031.249.057.368.017.13.04.258.065.376.023.131.048.25.071.38.031.127.065.246.096.377.034.127.065.249.105.376.031.128.074.258.113.377.04.13.08.258.128.385l.144.385c.049.122.105.25.153.38.057.127.114.255.168.385.065.128.121.263.187.394.062.127.127.255.192.385.071.127.145.255.216.391l.218.388c.079.136.158.263.241.391.079.138.167.266.249.402.088.13.176.258.263.393.097.128.185.267.281.394.096.136.193.272.298.402.096.136.201.264.306.4.104.138.209.274.32.402l.034.039.039.049.032.034.039.039.043.04.039.031.04.043.079.062.04.034.042.031.049.023.039.034.049.022.039.026.048.031.049.017.048.023.039.025.049.014.048.026.048.017.048.014.048.017.048.008.057.017.048.015.097.016.056.009.048.008.049.006h.048l.056.009h.202l.056-.009h.048l.049-.006.053-.008.097-.017.056-.008.049-.009.048-.014.096-.034.057-.014.096-.034.048-.023.048-.017.049-.023.039-.025.048-.023.049-.034.048-.022.042-.034.048-.023.04-.031.048-.034.04-.04c6.658-5.435 20.409-16.659 27.073-22.102.139-.111.267-.224.403-.337.136-.105.266-.215.393-.329.136-.113.267-.223.386-.337.13-.113.258-.223.385-.337l.363-.337c.127-.113.249-.224.36-.337.122-.113.241-.226.354-.337.113-.113.232-.226.346-.337.113-.113.218-.226.328-.337.105-.113.218-.226.323-.337.102-.113.207-.235.312-.345.105-.114.21-.227.306-.337.096-.114.201-.227.297-.346.088-.113.185-.227.281-.337.088-.122.184-.232.272-.346.091-.113.178-.232.266-.345.088-.113.167-.232.258-.346.08-.113.159-.232.241-.345.079-.111.159-.232.232-.346.08-.11.153-.232.224-.345.074-.119.145-.232.21-.351.071-.114.136-.235.209-.346.063-.122.128-.235.193-.354.054-.113.119-.232.176-.354.057-.11.113-.232.17-.345.054-.119.11-.241.159-.352.056-.121.104-.24.153-.354.048-.121.087-.24.136-.362.039-.111.087-.232.13-.351.04-.122.071-.235.11-.354.034-.122.074-.241.105-.363.034-.119.065-.241.088-.36.034-.121.057-.24.082-.354l.071-.359c.017-.122.04-.25.057-.371.017-.119.031-.241.048-.36.008-.122.025-.241.031-.363l.026-.368c0-.121.008-.24.008-.371 0-.119 0-.24-.008-.359 0-.131-.009-.25-.009-.371zM473.836-169.095c-.136.114-.264.227-.4.337-.13.114-.258.224-.385.337l-.38.332c-.119.11-.249.224-.368.334l-.363.34c-.11.11-.232.224-.346.337-.119.11-.232.224-.342.337-.114.11-.227.232-.332.343-.11.113-.215.226-.32.339a5.435 5.435 0 0 0-.315.337c-.102.111-.206.233-.303.346-.105.11-.201.224-.297.337-.097.119-.193.232-.281.343a6.493 6.493 0 0 0-.275.345c-.087.114-.175.227-.263.346a4.688 4.688 0 0 0-.258.345c-.079.114-.161.224-.241.346-.079.113-.161.224-.232.345-.082.114-.153.233-.227.346-.071.11-.144.232-.215.345-.065.119-.136.233-.201.354-.066.111-.128.233-.193.343a8.912 8.912 0 0 0-.176.354 6.51 6.51 0 0 0-.178.354c-.048.119-.105.232-.153.351a7.011 7.011 0 0 0-.153.354c-.048.122-.096.233-.136.354-.048.119-.088.241-.128.354-.039.119-.079.241-.113.36-.04.122-.071.241-.105.363a6.315 6.315 0 0 0-.088.354c-.031.119-.056.24-.088.359-.022.122-.039.241-.065.363a6.382 6.382 0 0 0-.054.36l-.051.362c-.014.128-.022.249-.031.368l-.022.363c0 .127-.009.249-.009.368v.368c.009.122.009.249.017.371.006.119.014.249.031.368.009.131.023.25.04.38.008.119.031.246.048.368.017.127.04.249.065.377.023.121.048.249.08.376.025.122.056.25.087.371.034.128.066.255.105.386.031.119.074.249.114.376.039.128.087.258.127.377.048.13.096.258.145.385.048.13.104.258.161.385.048.131.105.258.167.385.057.131.122.258.179.386.062.13.127.257.201.393.062.131.136.258.207.385.074.131.144.267.227.394.07.13.152.266.232.394.079.13.167.266.258.394.079.135.167.266.263.393.088.136.184.266.272.402.097.136.196.264.298.403.096.127.201.263.306.399.105.13.218.266.32.402l.042.04.032.039.039.04.031.042.043.032.04.039.039.034.04.04.04.031.042.031.048.026.04.031.048.025.04.031.048.026.04.023.048.025.048.023.048.017.048.022.097.034.048.015.096.034.048.014.097.017.056.017.048.005h.049l.056.009.048.008h.306l.049-.008h.053l.049-.009.048-.005.056-.009.049-.008.048-.017.048-.009.057-.014.096-.034.048-.014.048-.026.048-.014.049-.025.048-.023.048-.025.048-.023.04-.026.048-.022.048-.034.043-.031.048-.031.039-.034.04-.032L487-157.605v-22.238l-12.762 10.42a8.982 8.982 0 0 0-.402.328zM474.76-143.387c-.899.736-1.043 2.087-.304 2.985 3.919 4.801 8.104 6.52 12.544 5.877v-18.851l-.136.105-12.104 9.884zM462.094-137.27c3.695-3.019 4.25-8.454 1.244-12.138-3.012-3.685-8.441-4.223-12.135-1.207-3.695 3.011-4.256 8.446-1.244 12.133 3.003 3.685 8.44 4.229 12.135 1.212zM446.618-188.016c3.003 3.684 8.441 4.222 12.135 1.203 3.695-3.01 4.248-8.445 1.244-12.13-3.012-3.685-8.44-4.231-12.135-1.212-3.704 3.019-4.256 8.454-1.244 12.139zM449.556-175.742l-.079.065-.232.193-.091.071-.241.192-.079.066-38.447 31.397a2.125 2.125 0 0 0-.306 2.988c12.442 15.254 30.207-2.818 36.905-14.339 10.161-17.469 13.431-7.265 27.38-18.65l12.096-9.882.538-.433v-18.859c-3.533.512-7.237 2.52-11.09 5.675l-26.354 21.516zM372.068-168.299c.127-.113.263-.226.391-.337l.385-.337c.13-.113.258-.226.38-.337.127-.113.249-.218.368-.331.122-.111.241-.224.363-.337.119-.111.232-.224.351-.337.113-.111.227-.233.337-.346.114-.11.227-.224.34-.337.102-.11.216-.224.32-.337.105-.11.21-.224.312-.337.105-.119.201-.232.306-.345.097-.111.193-.224.289-.337v-.009c.096-.11.193-.224.289-.337l.275-.345a12.798 12.798 0 0 0 .513-.689c.088-.113.17-.226.249-.345.08-.114.153-.227.233-.346l.226-.345c.071-.122.145-.233.207-.354.074-.111.136-.224.201-.346.074-.119.136-.232.193-.351.065-.113.127-.235.184-.346.057-.121.113-.232.17-.354.057-.119.113-.232.162-.354.048-.119.102-.232.144-.351.048-.122.096-.241.145-.354.039-.122.079-.241.119-.362.039-.111.079-.233.121-.352.032-.121.063-.24.102-.362.034-.119.057-.232.091-.354.031-.119.054-.241.079-.36.023-.122.049-.24.071-.362.017-.119.043-.241.057-.36.017-.122.034-.249.043-.371.014-.119.022-.241.039-.36.009-.121.014-.24.014-.371.009-.119.009-.24.017-.359 0-.131 0-.25-.008-.371 0-.128-.009-.25-.014-.369l-.026-.368a5.41 5.41 0 0 0-.04-.379c-.017-.119-.031-.249-.056-.368a6.059 6.059 0 0 0-.065-.377c-.023-.122-.049-.249-.071-.377-.034-.122-.057-.249-.088-.379-.043-.119-.074-.25-.105-.377-.04-.127-.082-.249-.122-.377a5.974 5.974 0 0 0-.127-.385c-.048-.13-.088-.249-.145-.379a7.915 7.915 0 0 0-.153-.386c-.056-.127-.113-.254-.167-.385-.057-.127-.122-.255-.187-.385-.062-.136-.127-.263-.193-.394-.07-.127-.136-.254-.206-.385-.074-.136-.153-.263-.227-.393-.079-.128-.159-.264-.241-.391-.079-.13-.161-.266-.249-.394-.088-.139-.176-.266-.264-.402a11.943 11.943 0 0 0-.28-.394c-.097-.136-.193-.263-.292-.402-.102-.136-.207-.263-.312-.399-.105-.139-.209-.266-.32-.402l-.034-.04c-.014-.017-.023-.034-.04-.04l-.031-.042-.039-.04-.043-.039-.04-.032-.039-.042-.04-.031-.04-.031-.042-.034-.04-.032-.048-.022-.04-.034-.048-.023-.039-.025-.049-.023-.048-.026-.039-.022-.049-.026-.048-.014-.048-.017-.048-.025-.048-.014-.048-.017-.049-.009-.048-.017-.057-.006-.048-.017-.096-.017-.057-.005h-.048l-.048-.009h-.057l-.048-.008h-.105l-.048.008h-.105l-.048.009-.048.005-.054.009-.096.017-.057.014-.048.009-.096.034-.049.014-.048.017-.056.017-.049.022-.048.026-.039.014-.049.025-.048.032-.048.025-.042.023-.049.034-.048.031-.039.031-.049.034-.039.031c-6.659 5.435-20.409 16.668-27.068 22.102-.136.111-.272.224-.408.338-.13.11-.266.223-.394.328-.13.113-.258.224-.385.337-.13.113-.258.224-.377.337-.13.113-.249.227-.371.337-.119.113-.241.224-.36.337-.122.113-.235.227-.354.337-.114.113-.224.227-.337.337l-.338.337c-.104.114-.218.227-.323.34a9.408 9.408 0 0 1-.311.343c-.105.113-.201.226-.306.337a9.728 9.728 0 0 1-.289.345c-.097.114-.193.227-.289.346-.088.113-.184.226-.272.337-.091.122-.179.232-.267.345-.087.114-.167.233-.249.346-.088.113-.167.232-.249.345-.08.119-.153.233-.233.346-.07.119-.153.232-.224.351a5.476 5.476 0 0 0-.209.346c-.071.113-.136.235-.21.345-.062.122-.127.232-.184.354a6.616 6.616 0 0 0-.184.354c-.057.111-.113.233-.17.351a12.78 12.78 0 0 0-.159.346c-.048.122-.105.241-.153.363-.04.113-.088.232-.136.354-.04.119-.082.232-.122.351-.039.122-.079.24-.119.362-.034.114-.073.232-.105.354-.034.119-.056.241-.087.36-.034.122-.057.241-.083.362-.022.119-.048.241-.07.36-.017.122-.04.241-.057.363-.017.119-.031.24-.04.359-.017.122-.034.241-.039.363a5.247 5.247 0 0 0-.017.368c-.009.122-.009.241-.017.371 0 .119 0 .241.008.368 0 .122.009.241.017.371 0 .119.014.241.023.368.008.122.025.25.039.369.017.13.034.249.049.379.025.119.048.247.073.368.017.128.049.25.071.377.034.13.057.249.091.38.031.127.071.254.102.376.042.128.082.255.122.385.039.119.079.25.127.377.048.128.091.258.145.385.048.128.096.258.153.385l.17.386c.056.127.119.257.184.385.065.13.127.257.192.385.074.13.136.266.21.394.071.13.153.257.224.393.079.128.162.258.241.394.079.127.161.258.249.394.088.127.176.263.267.393.087.136.184.264.28.4.096.13.193.266.289.393.105.139.207.275.312.402.105.136.209.272.323.403l.031.048.04.039.034.04.039.031.04.043.071.071.048.034.042.031.04.031.04.034.048.031.04.023.048.025.039.031.049.026.048.022.042.017.048.023.049.017.048.026.048.014.096.034.048.014.049.008.053.017.097.017.048.006.057.009.048.008h.048l.057.008h.201l.048-.008h.057l.048-.008h.048l.057-.009.048-.014.048-.009.057-.008.048-.017.048-.014.048-.009.048-.017.048-.022.049-.017.048-.026.048-.014.048-.026.048-.022.048-.026.049-.022.039-.034.049-.023.048-.031.039-.034.048-.031.04-.031c6.659-5.444 20.409-16.668 27.068-22.111.136-.114.272-.218.411-.329zM398.917-182.284c-10.16 17.469-13.439 7.264-27.382 18.65l-12.101 9.881-.675.547-12.096 9.881a2.126 2.126 0 0 0-.306 2.988c7.019 8.607 14.915 7.321 23.637.201l26.353-21.516.071-.065.241-.192.088-.071.241-.201.073-.065 38.456-31.389a2.127 2.127 0 0 0 .306-2.988c-12.45-15.254-30.207 2.818-36.906 14.339zM398.042-137.238c3.694-3.019 4.247-8.454 1.244-12.139-3.012-3.685-8.441-4.223-12.136-1.212-3.695 3.019-4.256 8.454-1.244 12.138 3.004 3.685 8.441 4.223 12.136 1.213zM436.12-168.333c.128-.11.264-.224.394-.337l.385-.337c.128-.105.255-.215.377-.328.128-.114.249-.224.369-.337l.362-.337c.119-.114.232-.224.354-.337.111-.114.224-.227.337-.337.111-.114.224-.233.329-.346.114-.113.215-.224.329-.337.105-.113.21-.227.314-.337.105-.113.202-.232.304-.346.096-.113.192-.223.291-.337.097-.121.193-.232.281-.345.096-.113.184-.224.28-.346.088-.11.176-.223.264-.345.082-.111.17-.224.249-.337.091-.119.17-.232.25-.354.082-.111.153-.224.232-.343.074-.113.144-.235.227-.345.07-.114.136-.236.206-.346.074-.122.139-.232.202-.354.065-.113.13-.232.192-.346.065-.118.122-.232.187-.351.054-.122.111-.235.167-.354.057-.122.105-.232.162-.354.048-.122.096-.232.144-.354.049-.119.097-.232.136-.351.049-.122.088-.244.128-.354a4.7 4.7 0 0 0 .113-.362c.04-.119.074-.241.105-.355l.096-.359c.023-.122.057-.241.08-.363.025-.119.048-.24.065-.359.023-.122.04-.241.065-.363.014-.119.031-.241.04-.36.014-.13.022-.249.031-.371.017-.119.017-.24.026-.359.005-.131.005-.25.005-.371v-.369a5.05 5.05 0 0 0-.014-.368 49.702 49.702 0 0 0-.026-.371c-.014-.127-.022-.249-.039-.376-.017-.122-.031-.241-.057-.369-.014-.13-.04-.249-.062-.379-.026-.119-.048-.249-.074-.368-.031-.128-.065-.258-.096-.377a5.606 5.606 0 0 0-.105-.385c-.031-.122-.071-.249-.111-.38-.042-.127-.082-.255-.13-.376l-.144-.386c-.049-.127-.105-.257-.153-.385-.057-.127-.111-.257-.168-.385-.065-.127-.121-.258-.184-.385-.065-.127-.13-.258-.201-.394a8.638 8.638 0 0 0-.21-.385c-.07-.127-.144-.266-.218-.394-.079-.127-.158-.263-.241-.393-.079-.128-.167-.264-.246-.394-.091-.136-.179-.263-.266-.394-.097-.135-.185-.263-.281-.399a10.135 10.135 0 0 0-.297-.402l-.306-.402c-.105-.128-.207-.264-.321-.402l-.034-.04-.039-.04-.031-.039-.04-.04-.04-.034-.042-.04-.04-.031-.04-.039-.039-.034-.04-.032-.04-.022-.048-.034-.042-.023-.048-.034-.04-.023-.048-.025-.048-.023-.049-.025-.039-.014-.048-.026-.049-.014-.144-.051-.057-.014-.048-.017-.048-.009-.048-.005-.049-.017-.056-.009h-.048l-.049-.008-.056-.009h-.303l-.049.009h-.048l-.056.008-.097.017-.056.009-.049.014-.048.008-.048.017-.048.015-.057.017-.048.017-.048.022-.048.017-.048.023-.049.025-.039.023-.048.025-.049.023-.048.026-.039.031-.049.034-.039.031-.048.031-.043.034a36630.079 36630.079 0 0 1-27.073 22.099c-.136.114-.267.227-.403.34-.136.111-.266.224-.393.335-.136.113-.264.218-.394.331-.119.11-.25.224-.377.337-.119.11-.241.224-.368.337-.122.11-.241.224-.355.337-.121.113-.24.224-.354.337-.113.113-.232.224-.346.337-.11.113-.215.224-.328.337-.114.122-.216.232-.32.346-.105.113-.21.223-.315.337-.105.113-.21.223-.306.345-.096.113-.198.224-.295.337-.096.113-.187.232-.283.346a9.123 9.123 0 0 0-.272.337c-.088.119-.176.232-.266.345-.088.119-.167.233-.255.346l-.241.345c-.082.119-.162.233-.235.343-.08.122-.15.235-.224.354l-.215.346c-.066.121-.139.232-.202.354-.065.11-.13.232-.192.345-.057.119-.122.232-.179.351-.056.122-.119.235-.167.354a4.548 4.548 0 0 0-.161.354c-.057.111-.105.233-.154.354-.048.111-.087.233-.136.352-.039.121-.087.232-.127.354-.043.121-.074.24-.113.362-.032.119-.074.232-.105.351-.031.122-.065.241-.088.363a5.254 5.254 0 0 0-.079.359c-.026.122-.049.241-.074.363-.023.119-.04.241-.057.36-.014.121-.031.243-.048.362-.008.122-.023.249-.031.368l-.026.363c0 .122-.005.249-.005.371 0 .119 0 .246.005.368 0 .119.009.241.009.368.008.122.017.25.034.371.006.119.023.247.04.368.014.128.031.25.048.377.022.122.039.249.062.371.026.128.048.255.082.377a5.2 5.2 0 0 0 .088.377c.031.127.071.257.105.376.04.13.071.258.119.385.04.131.082.25.13.38.04.127.088.255.136.385.057.128.105.255.162.385.054.128.11.255.167.385.057.128.122.255.184.386.057.127.131.257.193.385.065.136.139.263.209.393.074.128.145.264.224.394.083.128.153.255.241.394.082.127.162.255.25.393.087.128.178.264.266.391.088.139.184.267.28.402.097.128.193.267.289.403.105.127.202.263.306.402.111.127.216.263.329.399l.031.043.034.039.153.153.08.063.039.034.048.031.04.031.04.034.048.022.042.032.049.025.048.023.039.025.049.026.048.014.048.025.048.015.096.034.049.014.048.017.048.008.048.014.057.009.144.025.057.009.048.008h.303l.057-.008h.048l.048-.009.057-.008.048-.009.048-.017.048-.005.057-.017.048-.009.048-.017.049-.014.048-.017.048-.023.048-.017.048-.022.097-.051.048-.023.048-.025.04-.032.048-.022.04-.034.048-.031.042-.031.048-.034c6.656-5.444 20.407-16.668 27.065-22.108.136-.105.275-.218.411-.332zM318.51-187.96c3.004 3.685 8.441 4.232 12.136 1.212 3.695-3.019 4.259-8.454 1.247-12.138-3.007-3.685-8.444-4.223-12.139-1.204-3.692 3.016-4.247 8.446-1.244 12.13zM282.279-143.701a2.138 2.138 0 0 0-.306 2.993c12.45 15.246 30.208-2.823 36.909-14.336 10.157-17.469 13.436-7.268 27.379-18.65l12.104-9.884.666-.553 12.105-9.875a2.127 2.127 0 0 0 .303-2.986c-7.027-8.615-14.913-7.321-23.637-.201l-26.35 21.508-.074.062-.241.201-.088.074-.241.193-.082.065-38.447 31.389zM335.233-149.346c-3.003-3.685-8.441-4.228-12.135-1.212-3.695 3.019-4.25 8.454-1.247 12.139 3.012 3.684 8.444 4.222 12.136 1.206 3.694-3.013 4.258-8.448 1.246-12.133zM308.013-87.183l.393-.328c.136-.113.267-.227.386-.337l.385-.337c.122-.113.241-.227.363-.337.127-.113.249-.227.36-.337.122-.114.241-.227.354-.34l.346-.334c.113-.114.218-.227.328-.34.105-.11.218-.224.323-.346l.312-.334c.105-.113.21-.226.306-.34.096-.119.201-.232.297-.345.088-.11.185-.224.281-.343.088-.113.184-.227.272-.337.091-.122.178-.235.266-.345.088-.114.167-.236.258-.346.08-.113.159-.232.241-.346.079-.121.159-.232.232-.345a6.39 6.39 0 0 0 .224-.354c.074-.11.145-.232.21-.346.071-.11.136-.232.209-.345.063-.12.128-.232.193-.351.054-.122.119-.233.176-.354.057-.114.113-.233.17-.354.054-.11.11-.233.159-.352.056-.113.104-.235.153-.354.048-.113.087-.232.136-.354.039-.118.087-.232.13-.354.04-.119.071-.24.11-.36.034-.113.074-.231.105-.353a4.29 4.29 0 0 0 .088-.36c.034-.122.057-.24.082-.362l.071-.363c.017-.119.04-.24.057-.36l.048-.362c.008-.12.025-.241.031-.368l.026-.363c0-.119.008-.246.008-.368s0-.241-.008-.368c0-.122-.009-.241-.009-.371a8.745 8.745 0 0 0-.031-.369c-.009-.121-.026-.249-.04-.371-.017-.127-.034-.246-.048-.376-.025-.119-.042-.249-.065-.368-.026-.128-.057-.258-.079-.377-.034-.13-.057-.249-.091-.38-.031-.127-.071-.254-.105-.376l-.119-.385c-.04-.122-.079-.25-.127-.377a9.762 9.762 0 0 0-.139-.385c-.054-.131-.102-.258-.159-.385a49.04 49.04 0 0 0-.17-.386 7.513 7.513 0 0 0-.184-.385l-.193-.388c-.073-.127-.136-.263-.209-.391-.071-.13-.145-.257-.224-.393-.08-.131-.153-.258-.241-.394-.08-.13-.162-.258-.249-.394-.088-.127-.176-.266-.267-.393-.088-.136-.184-.267-.28-.403-.097-.127-.193-.263-.289-.393-.105-.136-.202-.272-.312-.4-.105-.138-.21-.274-.323-.41l-.031-.04a.122.122 0 0 1-.031-.039l-.043-.04-.04-.034-.031-.04-.039-.039-.04-.034-.043-.032-.048-.031-.039-.034-.08-.062-.048-.026-.04-.022-.048-.034-.048-.023-.042-.025-.049-.014-.048-.026-.048-.023-.048-.017-.048-.014-.145-.051-.048-.005-.048-.017-.054-.009-.096-.017-.048-.006-.057-.008h-.048l-.048-.009h-.258l-.057.009-.048.008h-.048l-.057.006-.048.017-.096.017-.057.014-.048.009-.097.034-.048.022-.048.017-.048.015-.048.025-.048.023-.049.025-.048.023-.048.025-.04.031-.048.026-.039.031-.049.031-.039.034-.049.031c-6.658 5.444-20.409 16.668-27.067 22.111-.136.11-.272.216-.411.329-.128.113-.264.224-.391.337l-.388.337c-.128.113-.255.226-.377.337-.128.105-.249.218-.368.328l-.363.34c-.119.11-.232.224-.351.334a12.85 12.85 0 0 0-.338.346l-.34.34c-.102.11-.215.224-.32.334-.105.113-.209.227-.311.34-.105.119-.202.232-.306.345-.097.11-.193.224-.289.335a10.43 10.43 0 0 1-.289.345c-.088.113-.185.235-.275.346-.088.113-.176.226-.264.345-.082.113-.17.227-.249.346a12.182 12.182 0 0 0-.482.691l-.227.345c-.07.12-.136.232-.206.346-.074.119-.136.232-.202.351-.065.113-.127.235-.192.354-.065.113-.122.232-.184.346-.057.121-.114.232-.17.353-.057.12-.105.233-.162.354-.048.12-.096.233-.144.352-.049.121-.097.24-.136.354-.049.119-.088.24-.128.36a6.18 6.18 0 0 0-.113.354c-.04.121-.071.24-.105.362a15.41 15.41 0 0 1-.096.351c-.023.122-.057.24-.08.363-.025.119-.048.24-.065.362h-.008c-.015.12-.032.241-.054.36-.017.122-.034.24-.043.368-.014.122-.022.244-.031.363-.017.121-.023.24-.023.37-.008.12-.008.241-.008.36-.009.128 0 .25 0 .369 0 .121.008.249.014.37l.026.369c.017.13.022.249.039.376.017.122.031.25.057.371.017.128.04.25.065.377l.071.377c.031.121.065.249.096.376.034.122.065.25.105.38.031.127.074.25.113.377.04.127.08.257.128.385.048.122.096.249.144.376.049.13.105.258.153.386.057.13.114.257.168.385.065.13.121.258.187.385.062.13.127.266.192.394.071.13.145.257.216.385.073.139.144.266.218.394.079.13.158.266.241.393.079.13.167.266.249.394.088.136.176.266.263.402.097.128.185.263.281.394.096.136.193.263.298.402.096.136.201.263.306.4.104.135.209.265.32.401l.034.04.039.04.032.04.039.042.043.04.079.062.04.042.079.063.042.025.049.031.039.034.049.023.039.022.048.026.049.023.048.025.039.023.097.034.048.022.048.017.048.009.048.017.057.014.048.009.048.017.049.008.056.006.048.008h.049l.048.009h.056l.049.008h.104l.049-.008h.104l.049-.009.053-.008.049-.006.048-.008.056-.009.049-.017.048-.008.048-.015.048-.017.057-.017.048-.014.048-.017.048-.025.048-.023.049-.017.039-.022.048-.035.097-.045.042-.034.048-.031.04-.034.048-.031.04-.031c6.658-5.435 20.409-16.668 27.073-22.103.139-.113.267-.223.403-.337zM319.754-119.008c-3.692 3.019-4.247 8.454-1.244 12.139 3.004 3.688 8.441 4.223 12.136 1.212 3.695-3.016 4.259-8.451 1.247-12.138-3.007-3.685-8.444-4.223-12.139-1.213zM207.633-68.501c-3.012-3.685-8.441-4.223-12.136-1.204-3.695 3.01-4.259 8.445-1.247 12.13 3.004 3.685 8.444 4.231 12.136 1.212 3.695-3.019 4.25-8.454 1.247-12.138zM245.108-110.321a164156.29 164156.29 0 0 1-27.074 22.102c-8.724 7.123-11.566 14.605-4.539 23.21.74.9 2.08 1.036 2.989.297l.049-.023.048-.025.048-.023.048-.025.048-.023.04-.025.048-.032.04-.034.048-.03.04-.032.048-.034 14.306-11.68v-.105l12.263-10.011c8.724-7.12 11.557-14.603 4.539-23.21a2.139 2.139 0 0 0-2.989-.297zM271.181-68.227c-3.006-3.687-8.444-4.223-12.139-1.206-3.694 3.019-4.247 8.445-1.243 12.133 3.011 3.684 8.44 4.228 12.135 1.212 3.695-3.02 4.259-8.454 1.247-12.139zM231.334-72.603l-.674.544-12.104 9.884a2.124 2.124 0 0 0-.306 2.986c7.029 8.607 14.923 7.324 23.639.2l26.351-21.515.079-.063.235-.192.088-.074.241-.192.079-.066 38.45-31.397a2.123 2.123 0 0 0 .303-2.985c-12.441-15.246-30.207 2.818-36.905 14.336-10.161 17.472-13.428 7.268-27.38 18.65l-12.096 9.884zM254.458-106.835c3.012 3.685 8.441 4.223 12.136 1.204 3.694-3.011 4.255-8.446 1.243-12.131-3.003-3.684-8.44-4.231-12.135-1.212-3.695 3.019-4.247 8.454-1.244 12.139zM462.094-56.179c3.695-3.016 4.25-8.45 1.244-12.138-3.012-3.685-8.441-4.223-12.135-1.213-3.695 3.02-4.256 8.454-1.244 12.14 3.003 3.684 8.44 4.222 12.135 1.211zM347.802-116.108l-26.35 21.517-.074.062-.241.2-.088.066-.241.201-.082.062-38.447 31.392a2.129 2.129 0 0 0-.306 2.985c12.45 15.255 30.208-2.818 36.909-14.33 10.157-17.478 13.436-7.265 27.379-18.656l12.104-9.876.666-.552 12.105-9.884a2.125 2.125 0 0 0 .303-2.985c-7.027-8.607-14.913-7.324-23.637-.202zM372.068-87.214a15 15 0 0 0 .391-.331c.13-.11.258-.224.385-.337.13-.11.258-.224.38-.337.127-.11.249-.224.368-.337.122-.11.241-.224.363-.337l.351-.337c.113-.11.227-.224.337-.337l.34-.337c.102-.114.216-.224.32-.337.105-.114.21-.233.312-.346.105-.113.201-.224.306-.337.097-.113.193-.232.289-.345a34.8 34.8 0 0 0 .289-.337c.088-.12.184-.233.275-.346.088-.113.176-.232.264-.345.087-.11.17-.233.249-.346.088-.11.17-.232.249-.343.08-.113.153-.235.233-.345.073-.122.153-.235.226-.346.071-.121.145-.232.207-.354.074-.113.136-.232.201-.345.074-.12.136-.233.193-.354.065-.11.127-.233.184-.352.057-.113.113-.235.17-.345.057-.122.113-.24.162-.354.048-.119.102-.24.144-.354l.145-.36.119-.354a9.97 9.97 0 0 1 .121-.354c.032-.119.063-.24.102-.36.034-.121.057-.24.091-.362.031-.119.054-.24.079-.36.023-.113.049-.232.071-.362.017-.12.043-.24.057-.36.017-.122.034-.24.043-.362.014-.12.022-.241.039-.36.009-.13.014-.25.014-.371.009-.122.009-.241.017-.368 0-.122 0-.241-.008-.363 0-.127-.009-.249-.014-.368l-.026-.377a5.251 5.251 0 0 0-.04-.371c-.017-.119-.031-.249-.056-.368a5.24 5.24 0 0 0-.065-.379c-.023-.128-.049-.247-.071-.377-.034-.127-.057-.249-.088-.377a4.397 4.397 0 0 1-.105-.376 14.16 14.16 0 0 0-.122-.377 5.777 5.777 0 0 0-.127-.385c-.048-.131-.088-.258-.145-.388-.048-.119-.096-.249-.153-.377-.056-.127-.113-.255-.167-.385-.057-.136-.122-.263-.187-.394-.062-.127-.127-.255-.193-.385-.07-.127-.136-.258-.206-.394-.074-.127-.153-.254-.227-.385a12.442 12.442 0 0 0-.241-.393 9.686 9.686 0 0 0-.249-.4c-.088-.13-.176-.258-.264-.393a8.813 8.813 0 0 0-.28-.394c-.097-.136-.193-.275-.292-.402-.102-.136-.207-.267-.312-.402-.105-.136-.209-.272-.32-.4l-.034-.048c-.014-.008-.023-.025-.04-.042l-.07-.071-.043-.04-.04-.034-.039-.04-.04-.031-.04-.034-.042-.031-.04-.031-.048-.025-.04-.032-.048-.025-.039-.023-.049-.031-.048-.017-.039-.025-.049-.023-.048-.017-.048-.023-.096-.034-.048-.014-.049-.017-.048-.008-.057-.014-.144-.026-.057-.008-.048-.009h-.048l-.057-.006h-.201l-.048.006h-.057l-.096.017-.054.008-.096.018-.057.005-.096.034-.048.014-.097.034-.056.017-.049.023-.048.017-.039.023-.049.025-.048.023-.048.031-.042.025-.049.032-.048.025-.039.031-.049.031-.039.043a61826.247 61826.247 0 0 0-27.068 22.102c-.136.11-.272.224-.408.329-.13.11-.266.223-.394.337-.13.113-.258.223-.385.337a8.98 8.98 0 0 0-.377.337c-.13.113-.249.223-.371.337-.119.113-.241.224-.36.337-.122.113-.235.224-.354.337l-.337.337c-.114.113-.227.224-.338.337-.104.113-.218.226-.323.337-.102.113-.206.226-.311.345-.105.114-.201.224-.306.337-.097.114-.193.227-.289.346l-.289.337c-.088.122-.184.232-.272.346-.091.113-.179.232-.267.345a6.743 6.743 0 0 0-.249.346c-.088.113-.167.232-.249.345-.08.11-.153.232-.233.343-.07.113-.153.235-.224.345-.073.122-.144.235-.209.354-.071.114-.136.233-.21.346-.062.122-.127.232-.184.354-.065.11-.127.232-.184.345-.057.12-.113.241-.17.352-.054.121-.111.24-.159.354-.048.121-.105.24-.153.354-.04.119-.088.24-.136.354l-.122.36c-.039.121-.079.232-.119.353-.034.12-.073.241-.105.36-.034.122-.056.24-.087.362-.034.114-.057.233-.083.355-.022.119-.048.24-.07.36-.017.121-.04.24-.057.37-.017.12-.031.241-.04.36-.017.122-.034.24-.039.362-.009.12-.017.25-.017.369-.009.122-.009.24-.017.368 0 .122 0 .243.008.362 0 .128.009.25.017.369 0 .13.014.249.023.379.008.119.025.24.039.368l.049.368.073.38c.017.127.049.25.071.377.034.121.057.249.091.376.031.13.071.25.102.377.042.13.082.25.122.38.039.127.079.254.127.385.048.127.091.255.145.376.048.128.096.258.153.385l.17.386c.056.127.119.257.184.393.065.128.127.258.192.385.074.128.136.258.21.394.071.128.153.258.224.385.079.136.162.264.241.394.079.136.161.264.249.394.088.136.176.263.267.402.087.127.184.263.28.39.096.14.193.267.289.403l.312.402c.105.136.209.264.323.402l.031.04.04.04.034.04.079.078.04.034.031.04.048.031.042.034.04.031.04.032.048.025.04.031.048.026.039.022.049.026.048.023.042.025.048.023.049.017.048.022.096.034.048.014.048.009.049.017.053.008.049.015.096.017.057.008.048.009v-.009l.048.009h.057l.048.008h.153l.048-.008h.057l.096-.017.057-.009.048-.008.048-.006.057-.009.096-.034.048-.014.096-.034.049-.014.048-.025.048-.017.048-.023.048-.026.048-.022.049-.031.039-.026.049-.03.048-.026.039-.032.048-.03.04-.043c6.659-5.435 20.409-16.665 27.068-22.1.136-.113.272-.226.411-.337zM333.987-56.122c3.694-3.02 4.258-8.446 1.246-12.13-3.003-3.685-8.441-4.232-12.135-1.213-3.695 3.02-4.25 8.455-1.247 12.14 3.012 3.684 8.444 4.222 12.136 1.203zM449.556-94.648l-.079.062-.232.195-.091.071-.241.193-.079.065-38.447 31.398a2.122 2.122 0 0 0-.306 2.985c12.442 15.245 30.207-2.818 36.905-14.337 10.161-17.469 13.431-7.267 27.38-18.65l12.096-9.881.538-.442v-18.851c-3.533.513-7.237 2.521-11.09 5.676l-26.354 21.516zM398.042-56.153c3.694-3.01 4.247-8.446 1.244-12.13-3.012-3.685-8.441-4.232-12.136-1.213-3.695 3.02-4.256 8.454-1.244 12.14 3.004 3.684 8.441 4.222 12.136 1.203zM474.76-62.296a2.135 2.135 0 0 0-.304 2.988c3.919 4.792 8.104 6.52 12.544 5.877v-18.86l-.136.113-12.104 9.882zM473.836-88.001c-.136.113-.264.224-.4.337-.13.105-.258.215-.385.329-.13.113-.25.223-.38.336-.119.114-.249.227-.368.338-.122.113-.241.226-.363.337-.11.113-.232.226-.346.337-.119.113-.232.226-.342.337-.114.113-.227.226-.332.337-.11.113-.215.235-.32.345a7.255 7.255 0 0 0-.315.337c-.102.114-.206.227-.303.346-.105.113-.201.226-.297.337a6.289 6.289 0 0 0-.281.345c-.096.114-.187.227-.275.337-.087.122-.175.233-.263.346-.091.122-.179.232-.258.345-.079.122-.161.233-.241.346-.079.119-.161.232-.232.346a7.104 7.104 0 0 0-.227.353c-.071.11-.144.233-.215.346-.065.119-.136.232-.201.351-.066.114-.128.232-.193.346a5.315 5.315 0 0 0-.176.354c-.065.11-.122.232-.178.35-.048.114-.105.236-.153.355a4.263 4.263 0 0 0-.153.354 4.56 4.56 0 0 0-.136.354 6.198 6.198 0 0 0-.128.351c-.039.122-.079.244-.113.363a7.94 7.94 0 0 0-.193.713c-.031.122-.056.241-.088.363-.022.119-.039.24-.065.36a6.893 6.893 0 0 0-.054.362l-.051.36c-.014.122-.022.243-.031.37l-.022.36c0 .122-.009.25-.009.372v.368c.009.121.009.24.017.37.006.12.014.25.031.369.009.122.023.25.04.368.008.13.031.25.048.38.017.119.04.249.065.368.023.127.048.257.08.376.025.13.056.258.087.38.034.127.066.255.105.377.031.127.074.255.114.385.039.119.087.25.127.376l.145.386c.048.127.104.257.161.385.048.13.105.258.167.385.057.13.122.258.179.385.062.13.127.258.201.385.062.136.136.267.207.394.074.13.144.258.227.394.07.127.152.258.232.393.079.128.167.258.258.394.079.127.167.266.263.394.088.136.184.263.272.402.097.127.196.263.298.4.096.13.201.266.306.393.105.136.218.275.32.41l.042.04.032.04.039.04.031.04.043.033.04.04.039.031.04.034.04.031.042.031.048.034.04.031.048.023.04.034.048.023.04.025.048.023.048.025.048.014.048.026.048.017.049.014.096.034.048.014.048.009.048.017.049.008.056.009.048.005.049.009.056.008h.048l.049.009h.257l.049-.008.053-.009h.049l.048-.008.056-.006.049-.017.048-.009.048-.017.057-.008.048-.014.096-.034.048-.023.048-.017.049-.023.048-.025.048-.023.048-.025.04-.023.048-.034.048-.023.043-.03.048-.035.079-.062L487-76.522V-98.76l-12.762 10.422c-.136.11-.272.224-.402.337zM446.618-106.931c3.003 3.684 8.441 4.231 12.135 1.212 3.695-3.019 4.248-8.446 1.244-12.13-3.012-3.685-8.44-4.232-12.135-1.212-3.704 3.019-4.256 8.445-1.244 12.13zM398.917-101.199c-10.16 17.477-13.439 7.264-27.382 18.656l-12.101 9.875-.675.555-12.096 9.873a2.137 2.137 0 0 0-.306 2.997c7.019 8.604 14.915 7.313 23.637.192l26.353-21.507.071-.065.241-.201.088-.071.241-.196.073-.062 38.456-31.392a2.123 2.123 0 0 0 .306-2.985c-12.45-15.254-30.207 2.818-36.906 14.331zM382.563-106.9c3.006 3.685 8.443 4.231 12.138 1.212 3.695-3.019 4.247-8.454 1.244-12.139-3.012-3.684-8.441-4.222-12.135-1.203-3.695 3.01-4.259 8.445-1.247 12.13zM436.12-87.24c.128-.112.264-.223.394-.336.127-.113.255-.224.385-.337.128-.114.255-.224.377-.337.128-.114.249-.224.369-.337.121-.105.24-.218.362-.329.119-.113.232-.226.354-.345.111-.114.224-.227.337-.337.111-.114.224-.227.329-.337.114-.114.215-.227.329-.337.105-.114.21-.227.314-.346.105-.113.202-.227.304-.337l.291-.346c.097-.113.193-.226.281-.337.096-.113.184-.232.28-.345.088-.113.176-.227.264-.346.082-.113.17-.223.249-.345.091-.113.17-.224.25-.346.082-.11.153-.232.232-.345.074-.11.144-.232.227-.346l.206-.35c.074-.114.139-.236.202-.346.065-.122.13-.233.192-.354.065-.114.122-.233.187-.346.054-.119.111-.24.167-.354.057-.119.105-.232.162-.351.048-.122.096-.232.144-.354.049-.122.097-.24.136-.354.049-.12.088-.24.128-.36.042-.122.082-.235.113-.354.04-.122.074-.24.105-.362.031-.12.065-.241.096-.352.023-.121.057-.24.08-.362.025-.119.048-.24.065-.36.023-.122.04-.24.065-.362.014-.122.031-.25.04-.368.014-.122.022-.241.031-.363.017-.119.017-.241.026-.368.005-.122.005-.241.005-.363v-.368c0-.13-.005-.249-.014-.371a29.05 29.05 0 0 0-.026-.368c-.014-.128-.022-.249-.039-.377-.017-.122-.031-.249-.057-.371-.014-.127-.04-.246-.062-.376-.026-.128-.048-.25-.074-.377-.031-.122-.065-.249-.096-.377a7.885 7.885 0 0 0-.105-.379c-.031-.128-.071-.247-.111-.377-.042-.127-.082-.258-.13-.385l-.144-.377c-.049-.127-.105-.258-.153-.385-.057-.13-.111-.258-.168-.385-.065-.13-.121-.258-.184-.385a6.04 6.04 0 0 0-.201-.394 8.115 8.115 0 0 0-.21-.385 9.373 9.373 0 0 0-.459-.788c-.079-.136-.167-.266-.246-.393-.091-.136-.179-.266-.266-.402-.097-.128-.185-.264-.281-.391a10.135 10.135 0 0 0-.297-.402c-.097-.136-.202-.267-.306-.403a12.544 12.544 0 0 0-.321-.402l-.034-.039c-.014-.017-.022-.032-.039-.04l-.031-.04-.04-.039-.04-.043-.042-.031-.04-.04-.04-.034-.119-.093-.048-.026-.042-.031-.048-.025-.04-.023-.048-.025-.048-.023-.049-.026-.039-.022-.097-.034-.048-.023-.096-.034-.057-.005-.048-.017-.048-.009-.048-.017-.049-.006-.056-.008-.048-.009h-.049l-.056-.008h-.048l-.048-.009h-.103l-.048.009h-.105l-.048.008-.056.009-.049.008-.048.006-.056.009-.049.017-.048.008-.048.014-.048.017-.057.017-.048.014-.048.017-.048.026-.048.022-.049.017-.039.023-.048.026-.049.031-.048.025-.039.031-.049.032-.039.025-.048.04-.043.031c-6.658 5.435-20.406 16.667-27.073 22.102-.136.113-.267.227-.403.337-.136.114-.266.218-.393.329-.136.113-.264.226-.394.34-.119.11-.25.223-.377.334a15.41 15.41 0 0 1-.368.34c-.122.11-.241.223-.355.337-.121.11-.24.223-.354.337-.113.11-.232.223-.346.337-.11.11-.215.223-.328.337-.114.11-.216.224-.32.337-.105.119-.21.232-.315.345a8.02 8.02 0 0 0-.306.337c-.096.11-.198.233-.295.346a9.29 9.29 0 0 0-.283.345c-.096.11-.184.224-.272.337a9.321 9.321 0 0 1-.266.343c-.088.113-.167.235-.255.346-.082.113-.162.235-.241.345-.082.113-.162.235-.235.346-.08.121-.15.232-.224.354-.071.113-.145.223-.215.345-.066.11-.139.233-.202.346-.065.119-.13.232-.192.35-.057.123-.122.236-.179.355-.056.113-.119.232-.167.346-.057.121-.113.24-.161.353-.057.12-.105.241-.154.352v.008c-.048.113-.087.232-.136.354-.039.113-.087.232-.127.354-.043.12-.074.241-.113.351-.032.122-.074.244-.105.363-.031.122-.065.24-.088.362-.031.12-.057.241-.079.36-.026.122-.049.24-.074.363-.023.119-.04.24-.057.36-.014.121-.031.24-.048.362-.008.119-.023.24-.031.36l-.026.37c0 .12-.005.241-.005.369 0 .121 0 .24.005.37 0 .12.009.242.009.369.008.119.017.24.034.368.006.122.023.25.04.371.014.128.031.25.048.377.022.122.039.249.062.368.026.13.048.25.082.38.023.127.057.246.088.376.031.128.071.25.105.377.04.13.071.258.119.385.04.122.082.25.13.377.04.13.088.257.136.385.057.13.105.258.162.385.054.13.11.258.167.388.057.127.122.255.184.385.057.128.131.255.193.385.065.128.139.264.209.394.074.128.145.255.224.394.083.127.153.255.241.39.082.13.162.258.25.394a31.406 31.406 0 0 0 .546.796c.097.128.193.264.289.394.105.136.202.272.306.4.111.138.216.274.329.401l.031.048.034.04.04.043.04.03.031.04.042.04.04.034.079.062.048.034.04.031.04.032.048.025.042.023.049.034.048.022.039.026.049.014.048.026.048.014.048.025.048.017.048.014.097.034.048.009.048.014.057.008.144.026.057.006h.048l.048.008h.207l.048-.008h.057l.048-.006.048-.009.057-.008.144-.025.057-.015.048-.017.048-.008.049-.023.096-.034.048-.022.048-.017.049-.023.048-.026.048-.022.048-.026.04-.03.048-.026.04-.032.048-.03.042-.035.048-.03c6.656-5.444 20.407-16.668 27.065-22.112.136-.11.275-.223.411-.328zM398.917-20.108c-10.16 17.471-13.439 7.267-27.382 18.65l-12.101 9.884-.675.552-12.096 9.876a2.123 2.123 0 0 0-.306 2.985c7.019 8.616 14.915 7.324 23.637.201L396.347.527l.071-.057.241-.2.088-.074.241-.193.073-.062 38.456-31.4a2.123 2.123 0 0 0 .306-2.986c-12.45-15.245-30.207 2.818-36.906 14.337zM473.836-6.907c-.136.11-.264.215-.4.328-.13.113-.258.224-.385.337-.13.113-.25.224-.38.337-.119.113-.249.224-.368.337l-.363.337c-.11.113-.232.224-.346.337-.119.114-.232.224-.342.337-.114.114-.227.227-.332.337-.11.114-.215.227-.32.337a6.167 6.167 0 0 0-.315.346c-.102.113-.206.226-.303.337-.105.113-.201.232-.297.345-.097.114-.193.224-.281.337-.096.122-.187.233-.275.346-.087.113-.175.232-.263.345a6.447 6.447 0 0 0-.258.346l-.241.346a7.03 7.03 0 0 0-.232.345c-.082.119-.153.232-.227.346-.071.119-.144.232-.215.35-.065.114-.136.233-.201.346-.066.122-.128.232-.193.354a3.826 3.826 0 0 0-.176.354c-.065.11-.122.233-.178.343-.048.122-.105.244-.153.354-.057.122-.105.24-.153.354-.048.119-.096.24-.136.36-.048.113-.088.235-.128.354-.039.122-.079.24-.113.354-.04.119-.071.24-.105.36-.031.121-.062.243-.088.362-.031.122-.056.24-.088.362-.022.12-.039.241-.065.36a6.47 6.47 0 0 0-.054.363l-.051.36c-.014.121-.022.24-.031.362l-.022.368c0 .122-.009.24-.009.371v.368c.009.122.009.241.017.368.006.122.014.241.031.372.009.118.023.249.04.368.008.13.031.249.048.376.017.122.04.25.065.371.023.128.048.25.08.377.025.127.056.25.087.377.034.13.066.249.105.38.031.127.074.254.114.376.039.127.087.255.127.385.048.127.096.258.145.385.048.128.104.25.161.377.048.127.105.258.167.394.057.127.122.257.179.385.062.127.127.258.201.385.062.127.136.258.207.394.074.127.144.257.227.385.07.136.152.266.232.393.079.136.167.267.258.403a9.5 9.5 0 0 0 .263.393c.088.128.184.264.272.4.097.13.196.266.298.393.096.136.201.275.306.403.105.135.218.271.32.402l.042.048.032.04.113.113.04.03.039.04.04.032.04.034.042.03.048.032.04.025.048.032.04.025.048.031.04.026.048.022.048.017.048.023.048.017.048.023.097.034.048.014.048.017.048.008.048.017.049.006.056.008.097.017.056.009h.048l.049.008h.209l.048-.008h.049l.053-.009.097-.017.056-.008.049-.006.048-.008.048-.017.057-.017.048-.014.096-.034.048-.014.048-.026.049-.014.048-.026.048-.022.048-.026.04-.03.048-.026.048-.032.043-.025.048-.031.039-.031.04-.04L487 4.571v-22.238L474.238-7.245c-.136.11-.272.224-.402.338zM271.181 12.864c-3.006-3.685-8.444-4.223-12.139-1.204-3.694 3.01-4.247 8.446-1.243 12.13 3.011 3.685 8.44 4.232 12.135 1.213 3.695-3.017 4.259-8.454 1.247-12.139zM143.58 12.623c-3.006-3.684-8.443-4.231-12.138-1.212-3.694 3.02-4.248 8.454-1.244 12.139 3.012 3.684 8.441 4.223 12.136 1.203 3.694-3.01 4.258-8.445 1.246-12.13zM436.12-6.154c.128-.113.264-.215.394-.329a44.943 44.943 0 0 0 .762-.674c.128-.113.249-.226.369-.337.121-.113.24-.226.362-.337.119-.113.232-.226.354-.337.111-.113.224-.226.337-.337.111-.113.224-.226.329-.34.114-.11.215-.223.329-.337.105-.119.21-.232.314-.342.105-.114.202-.227.304-.34.096-.11.192-.232.291-.343.097-.113.193-.226.281-.337.096-.122.184-.235.28-.345.088-.114.176-.236.264-.346.082-.113.17-.232.249-.346.091-.113.17-.232.25-.345.082-.113.153-.232.232-.346.074-.118.144-.232.227-.345l.206-.354c.074-.11.139-.232.202-.343.065-.122.13-.235.192-.354.065-.113.122-.232.187-.354.054-.113.111-.232.167-.345.057-.12.105-.241.162-.352.048-.121.096-.243.144-.354.049-.121.097-.24.136-.362.049-.11.088-.232.128-.351a6.56 6.56 0 0 0 .113-.354c.04-.122.074-.241.105-.363l.096-.36c.023-.121.057-.24.08-.362.025-.119.048-.24.065-.36.023-.121.04-.24.065-.362.014-.122.031-.241.04-.363.014-.119.022-.24.031-.36.017-.127.017-.249.026-.37.005-.12.005-.241.005-.369v-.368a5.3 5.3 0 0 0-.014-.37l-.026-.369c-.014-.122-.022-.25-.039-.368-.017-.122-.031-.25-.057-.38-.014-.119-.04-.249-.062-.368-.026-.127-.048-.25-.074-.377-.031-.13-.065-.249-.096-.38a6.461 6.461 0 0 0-.105-.376 4.672 4.672 0 0 0-.111-.377c-.042-.127-.082-.257-.13-.385l-.144-.385c-.049-.13-.105-.249-.153-.377-.057-.13-.111-.257-.168-.393-.065-.13-.121-.258-.184-.385a9.448 9.448 0 0 0-.201-.386c-.065-.13-.136-.257-.21-.393-.07-.13-.144-.258-.218-.385a7.586 7.586 0 0 0-.241-.394c-.079-.136-.167-.266-.246-.402a9.258 9.258 0 0 1-.266-.394c-.097-.127-.185-.263-.281-.402-.096-.128-.193-.263-.297-.394a7.87 7.87 0 0 0-.306-.4c-.105-.135-.207-.274-.321-.401l-.034-.048c-.014-.009-.022-.026-.039-.04l-.031-.04-.04-.034-.04-.04-.042-.03-.04-.04-.04-.034-.079-.062-.04-.034-.048-.023-.042-.034-.048-.023-.04-.03-.048-.026-.048-.023-.049-.017-.039-.026-.048-.014-.049-.025-.048-.014-.096-.034-.057-.014-.048-.009-.048-.017-.097-.017-.056-.006-.097-.017h-.056l-.048-.008h-.199l-.056.008h-.049l-.048.009-.056.008-.049.006-.048.009-.056.008-.049.009-.048.017-.048.014-.048.017-.057.017-.048.014-.048.017-.048.022-.048.017-.049.026-.039.023-.048.025-.049.023-.048.031-.039.034-.049.023-.039.034-.048.03-.043.04-27.073 22.103c-.136.113-.267.223-.403.328-.136.114-.266.227-.393.337-.136.114-.264.227-.394.337-.119.114-.25.227-.377.337-.119.114-.241.227-.368.337-.122.114-.241.227-.355.337-.121.114-.24.227-.354.337-.113.114-.232.227-.346.34-.11.11-.215.224-.328.337-.114.11-.216.224-.32.337-.105.11-.21.224-.315.346-.105.11-.21.224-.306.337-.096.11-.198.224-.295.343-.096.113-.187.226-.283.34-.096.11-.184.232-.272.342-.088.113-.176.235-.266.346-.088.113-.167.226-.255.345-.082.113-.162.227-.241.346a7.818 7.818 0 0 0-.235.345c-.08.113-.15.232-.224.346-.071.119-.145.232-.215.354-.066.11-.139.232-.202.342-.065.122-.13.236-.192.354-.057.114-.122.233-.179.346-.056.122-.119.24-.167.354-.057.119-.113.232-.161.354-.057.119-.105.24-.154.351-.048.122-.087.241-.136.354-.039.122-.087.241-.127.363-.043.119-.074.232-.113.351-.032.122-.074.24-.105.362-.031.12-.065.241-.088.36a4.382 4.382 0 0 0-.079.354c-.026.122-.049.24-.074.363-.023.119-.04.24-.057.36-.014.13-.031.249-.048.37-.008.12-.023.241-.031.36l-.026.371c0 .119-.005.24-.005.36 0 .127 0 .249.005.37 0 .128.009.247.009.369.008.127.017.25.034.368.006.13.023.25.04.38.014.119.031.246.048.368.022.127.039.25.062.377.026.13.048.249.082.376.023.122.057.25.088.38.031.119.071.246.105.376.04.128.071.25.119.377a7.3 7.3 0 0 0 .13.385c.04.128.088.25.136.377.057.13.105.258.162.385.054.13.11.258.167.385.057.13.122.258.184.394.057.13.131.258.193.385.065.13.139.258.209.388v.006c.074.13.145.257.224.385.083.139.153.266.241.394.082.138.162.266.25.393.087.136.178.267.266.402.088.128.184.264.28.394.097.136.193.264.289.402l.306.4c.111.136.216.266.329.402l.031.04.034.04.04.042.04.04.031.039.042.031.04.04.04.034.039.03.048.032.04.034.04.023.048.034.042.022.049.026.048.022.039.026.049.023.048.025.048.014.048.026.048.014.097.034.048.008.048.015.048.008.057.017.048.008.048.006.048.009h.057l.048.008h.048l.054.009h.153l.048-.009h.057l.096-.017.057-.006.096-.016.048-.017.057-.009.048-.014.097-.034.048-.014.048-.017.048-.023.048-.017.049-.025.048-.023.048-.026.048-.03.04-.023.048-.034.04-.032.048-.025.042-.04.048-.03C415.3 10.85 429.051-.383 435.709-5.818c.136-.113.275-.224.411-.337zM281.676-6.82c-.128.11-.264.224-.391.337-.13.114-.258.224-.388.329-.128.113-.255.224-.377.337-.128.113-.249.227-.368.337-.122.113-.241.227-.363.337-.119.113-.232.227-.351.337l-.338.337c-.113.113-.226.227-.34.346-.102.113-.215.226-.32.337l-.311.337c-.105.113-.202.226-.306.345-.097.113-.193.227-.289.337-.097.114-.193.235-.289.346-.088.113-.185.226-.275.345-.088.114-.176.224-.264.337-.082.122-.17.233-.249.346-.088.122-.17.232-.25.345l-.232.354c-.074.11-.153.224-.227.346-.07.11-.136.232-.206.343-.074.121-.136.235-.202.354-.065.113-.127.232-.192.345-.065.122-.122.232-.184.354-.057.12-.114.232-.17.351-.057.114-.105.235-.162.354a15.2 15.2 0 0 0-.144.354c-.049.12-.097.233-.136.354-.049.12-.088.241-.128.352a8.39 8.39 0 0 0-.113.362c-.04.12-.071.232-.105.354-.031.12-.062.24-.096.36-.023.122-.057.24-.08.362-.025.12-.048.241-.065.36h-.008c-.015.122-.032.24-.054.363-.017.119-.034.24-.043.36-.014.121-.022.248-.031.37-.017.12-.023.241-.023.36-.008.13-.008.25-.008.37-.009.12 0 .25 0 .37s.008.248.014.37l.026.368c.017.128.022.25.039.369.017.13.031.249.057.379.017.119.04.246.065.377l.071.368c.031.13.065.258.096.377.034.13.065.257.105.388.031.119.074.246.113.376.04.128.08.25.128.377l.144.385c.049.128.105.258.153.385.057.128.114.258.168.386.065.13.121.257.187.385.062.13.127.257.192.393l.216.386c.073.13.144.266.218.393l.241.394c.079.127.167.266.249.393.088.128.176.264.263.394.097.136.185.264.281.402.096.128.193.264.298.4.096.13.201.266.306.402.104.127.209.266.32.402l.034.04.039.04.032.039.039.04.043.034.039.04.04.03.04.034.079.063.042.034.049.03.039.023.049.035.039.022.048.026.049.022.048.026.039.014.049.025.048.017.048.015.096.033.048.015.057.017.096.017.049.005.056.009.145.025h.314l.048-.008h.049l.053-.009.097-.017.056-.014.049-.008.048-.017.048-.009.048-.014.057-.017.048-.017.048-.023.048-.017.048-.022.049-.026.039-.022.048-.026.049-.022.048-.035.042-.022.048-.031.04-.034.048-.032.04-.03c6.658-5.444 20.409-16.668 27.073-22.103.139-.113.267-.226.403-.337.136-.113.266-.227.393-.337.136-.113.267-.227.386-.331.13-.11.258-.224.385-.337.122-.11.241-.224.363-.337.127-.11.249-.224.36-.337.122-.11.241-.224.354-.337.113-.11.232-.224.346-.337a7.59 7.59 0 0 0 .328-.346c.105-.11.218-.224.323-.337l.312-.337c.105-.11.21-.224.306-.346.096-.11.201-.223.297-.337.088-.11.185-.232.281-.345.088-.11.184-.224.272-.346.091-.11.178-.223.266-.337.088-.119.167-.232.258-.342.08-.122.159-.236.241-.346.079-.122.159-.235.232-.354.08-.113.153-.224.224-.345.074-.114.145-.233.21-.346l.209-.354c.063-.11.128-.232.193-.343.054-.122.119-.235.176-.354.057-.121.113-.232.17-.354.054-.113.11-.232.159-.354.056-.11.104-.232.153-.35.048-.123.087-.236.136-.355.039-.122.087-.24.13-.354.04-.119.071-.24.11-.36.034-.121.074-.24.105-.354.034-.122.065-.24.088-.362.034-.12.057-.24.082-.36l.071-.362c.017-.12.04-.241.057-.36l.048-.363c.008-.127.025-.249.031-.368l.026-.362c0-.128.008-.25.008-.368 0-.122 0-.25-.008-.372 0-.119-.009-.249-.009-.368a7.325 7.325 0 0 0-.031-.368c-.009-.13-.026-.25-.04-.37-.017-.128-.034-.25-.048-.378-.025-.121-.042-.249-.065-.376-.026-.122-.057-.25-.079-.371-.034-.128-.057-.255-.091-.377-.031-.127-.071-.258-.105-.385-.04-.12-.079-.25-.119-.377-.04-.13-.079-.258-.127-.377a9.825 9.825 0 0 0-.139-.385c-.054-.13-.102-.257-.159-.388a52.236 52.236 0 0 1-.17-.385 10.104 10.104 0 0 0-.184-.385 12.88 12.88 0 0 1-.193-.394c-.073-.127-.136-.255-.209-.385-.071-.127-.145-.263-.224-.393-.08-.128-.153-.264-.241-.391-.08-.13-.162-.267-.249-.394-.088-.13-.176-.266-.267-.394-.088-.136-.184-.266-.28-.402a10.953 10.953 0 0 1-.289-.402c-.105-.128-.202-.263-.312-.4-.105-.13-.21-.266-.323-.402l-.031-.04c-.009-.016-.026-.025-.031-.039l-.083-.082-.031-.031-.039-.04-.04-.034-.043-.031-.048-.04-.039-.025-.08-.062-.048-.026-.04-.031-.048-.025-.048-.023-.042-.026-.049-.022-.048-.017-.048-.023-.096-.034-.048-.014-.097-.034-.048-.014-.048-.009-.054-.008-.048-.017-.048-.009h-.048l-.057-.005-.048-.009h-.306l-.057.009h-.048l-.048.005-.057.009-.048.008-.048.017-.048.009-.057.014-.048.008-.048.017-.049.014-.048.017-.048.026-.048.014-.048.026-.048.022-.049.026-.048.023-.048.025-.04.031-.048.026-.039.03-.049.032-.039.034-.049.031c-6.658 5.444-20.409 16.667-27.067 22.102-.136.11-.272.224-.411.337zM446.618-25.838c3.003 3.685 8.441 4.229 12.135 1.213 3.695-3.02 4.248-8.455 1.244-12.14-3.012-3.687-8.44-4.222-12.135-1.206-3.704 3.01-4.256 8.446-1.244 12.133zM270.81-20.043c-10.161 17.469-13.428 7.267-27.38 18.65l-12.096 9.881-.674.547-12.104 9.884a2.123 2.123 0 0 0-.306 2.985c7.029 8.607 14.923 7.321 23.639.201L268.24.59l.079-.062.235-.195.088-.071.241-.201.079-.057 38.45-31.397a2.127 2.127 0 0 0 .303-2.988c-12.441-15.252-30.207 2.818-36.905 14.339zM398.042 24.94c3.694-3.019 4.247-8.445 1.244-12.13-3.012-3.687-8.441-4.231-12.136-1.215-3.695 3.02-4.256 8.454-1.244 12.139 3.004 3.687 8.441 4.223 12.136 1.206zM449.556-13.563l-.079.062-.232.201-.091.074-.241.193-.079.062-38.447 31.392a2.133 2.133 0 0 0-.306 2.993c12.442 15.246 30.207-2.826 36.905-14.336 10.161-17.472 13.431-7.268 27.38-18.659l12.096-9.875.538-.442v-18.848c-3.533.512-7.237 2.52-11.09 5.675l-26.354 21.508zM146.012 6.933c0 .12.017.241.025.369.009.119.023.249.04.368l.048.38c.025.118.048.246.065.367.023.128.057.25.079.377.032.13.057.25.088.377.034.13.074.25.105.38.04.127.082.254.122.385.04.119.079.249.127.376.04.128.088.258.145.385.048.128.096.258.153.386.057.121.113.257.167.385.057.127.122.257.187.385.062.13.128.258.193.385.071.13.136.266.207.394.073.13.153.258.226.393.08.128.159.258.241.386.079.136.162.266.249.402.088.127.176.263.264.393.088.128.184.264.281.4.096.13.192.266.289.393.104.14.209.275.314.403.105.136.21.272.32.402l.034.048.04.04.031.04.04.033.042.04.031.04.04.03.04.035.048.03.04.032.042.034.048.031.04.023.04.025.048.031.048.026.04.023.048.017.048.022.048.017.048.026.048.014.097.034.048.014.048.008.057.018.048.008.048.006.048.008.057.009.048.008h.048l.057.009h.201l.048-.009h.057l.096-.017.054-.008.048-.006.048-.008.057-.009.048-.017.048-.014.049-.009.048-.025.048-.014.048-.017.048-.026.048-.014.049-.026.048-.022.048-.026.048-.022.043-.034.048-.023.048-.031.04-.034.039-.031.048-.04C159.595 10.666 173.346-.558 180.004-6c.136-.113.272-.224.408-.329.131-.113.267-.226.394-.337l.385-.337c.131-.113.258-.226.377-.337.131-.113.25-.226.371-.337.119-.105.241-.218.36-.331.122-.11.235-.232.354-.346.114-.11.224-.223.338-.337.113-.11.226-.223.337-.337.105-.11.218-.223.323-.337.102-.11.207-.223.311-.345.105-.11.202-.224.306-.337.097-.11.193-.224.289-.346.097-.11.193-.224.289-.337.088-.11.185-.232.272-.345.088-.11.179-.233.267-.343.079-.113.167-.227.249-.346.088-.113.167-.226.25-.345.079-.113.15-.232.232-.346.071-.113.153-.232.224-.345.073-.122.144-.232.209-.354.071-.11.136-.232.202-.346.07-.119.136-.232.192-.35.063-.114.128-.236.184-.346.057-.122.114-.241.17-.355.054-.118.111-.232.159-.354l.145-.35c.048-.122.096-.241.144-.355.04-.121.082-.24.122-.362l.119-.351c.034-.122.065-.241.096-.363.04-.119.065-.24.097-.354.034-.119.056-.24.082-.36.022-.121.048-.24.071-.362.017-.12.039-.24.056-.36a6.6 6.6 0 0 0 .04-.37c.017-.12.025-.242.04-.36.008-.122.017-.241.017-.371.008-.12.008-.241.008-.36.009-.13 0-.25 0-.371 0-.128-.008-.25-.017-.368-.008-.128-.014-.25-.023-.369-.017-.13-.025-.249-.039-.38-.017-.118-.034-.248-.057-.367a6.193 6.193 0 0 0-.065-.377c-.023-.13-.048-.25-.071-.38-.034-.118-.065-.246-.099-.376-.031-.12-.062-.25-.096-.377-.04-.127-.08-.25-.119-.377-.04-.13-.08-.257-.128-.385-.048-.13-.096-.249-.144-.38-.049-.127-.097-.254-.153-.384a28.332 28.332 0 0 1-.17-.386 8.876 8.876 0 0 0-.185-.385 25.58 25.58 0 0 0-.192-.393c-.074-.128-.136-.255-.21-.386-.071-.136-.153-.263-.224-.393-.079-.136-.161-.264-.241-.391a6.511 6.511 0 0 0-.249-.394c-.088-.139-.176-.266-.266-.402a11.871 11.871 0 0 0-.281-.394c-.096-.136-.192-.266-.289-.402-.105-.136-.209-.263-.311-.4-.105-.138-.21-.265-.324-.401l-.031-.04c-.017-.017-.025-.034-.039-.042l-.034-.04-.08-.08-.039-.03-.04-.043-.04-.031-.042-.031-.04-.034-.04-.032-.048-.022-.039-.034-.049-.023-.039-.025-.048-.023-.049-.025-.042-.023-.048-.025-.048-.015-.049-.017-.048-.025-.048-.014-.048-.017-.048-.009-.054-.014-.048-.008-.048-.018-.097-.017-.056-.005h-.049l-.048-.009h-.056l-.049-.008h-.104l-.049.008h-.104l-.049.009-.056.005-.145.026-.056.017-.049.006-.096.034-.048.014-.054.017-.051.017-.048.023-.048.025-.04.014-.048.026-.048.022-.048.034-.049.023-.039.034-.048.031-.04.023-.048.042-.04.031c-6.659 5.435-20.409 16.668-27.076 22.103-.136.11-.264.223-.402.337-.137.11-.264.215-.392.328l-.388.337c-.127.113-.255.224-.377.337-.127.114-.249.224-.368.337-.122.114-.241.227-.363.337-.119.114-.24.227-.351.337-.113.114-.227.227-.34.337-.11.114-.224.227-.337.337-.102.114-.215.227-.32.337-.105.122-.21.235-.312.346-.105.113-.201.227-.306.337-.096.113-.193.235-.289.345-.096.114-.193.227-.289.346-.088.113-.184.227-.275.337-.088.122-.175.232-.263.346-.088.113-.17.232-.258.345l-.241.346c-.079.113-.162.232-.232.345-.074.12-.153.232-.227.351-.071.114-.145.227-.207.346-.074.113-.136.235-.21.345-.065.122-.127.233-.184.354a4.818 4.818 0 0 0-.184.354c-.057.11-.113.233-.17.346-.057.119-.113.24-.161.351-.049.122-.102.24-.151.354-.048.122-.09.24-.138.363-.04.11-.08.232-.119.35-.04.123-.08.242-.122.355-.031.122-.071.24-.105.362-.031.12-.062.241-.088.36a5.22 5.22 0 0 0-.079.363c-.026.119-.048.24-.074.36-.014.121-.04.24-.054.362-.017.119-.034.24-.048.36-.008.121-.025.24-.034.362-.008.127-.014.25-.014.368-.009.122-.009.24-.017.371 0 .12 0 .24.008.368 0 .122.009.241.015.371zM207.633 12.592c-3.012-3.685-8.441-4.223-12.136-1.212-3.695 3.019-4.259 8.454-1.247 12.139 3.004 3.684 8.444 4.222 12.136 1.212 3.695-3.02 4.25-8.454 1.247-12.139zM382.563-25.806c3.006 3.684 8.443 4.222 12.138 1.212 3.695-3.02 4.247-8.454 1.244-12.139-3.012-3.685-8.441-4.223-12.135-1.212-3.695 3.019-4.259 8.454-1.247 12.139zM372.068-6.123c.127-.11.263-.224.391-.337a8.07 8.07 0 0 0 .385-.328c.13-.114.258-.224.38-.337.127-.114.249-.224.368-.338l.363-.337.351-.337c.113-.113.227-.223.337-.337l.34-.337c.102-.113.216-.226.32-.345.105-.113.21-.224.312-.337.105-.113.201-.227.306-.337.097-.122.193-.232.289-.346.096-.113.193-.223.289-.345.088-.114.184-.224.275-.337.088-.122.176-.233.264-.346.087-.119.17-.232.249-.345.088-.12.17-.233.249-.346.08-.119.153-.232.233-.345.073-.12.153-.233.226-.352a8.68 8.68 0 0 0 .207-.345c.074-.122.136-.232.201-.354.074-.113.136-.232.193-.346.065-.119.127-.232.184-.354.057-.11.113-.232.17-.35.057-.114.113-.233.162-.355.048-.113.102-.232.144-.354.048-.11.096-.232.145-.351.039-.122.079-.235.119-.354.039-.122.079-.24.121-.363.032-.11.063-.232.102-.35.034-.123.057-.242.091-.363.031-.122.054-.241.079-.363.023-.119.049-.24.071-.36.017-.121.043-.24.057-.362a5.5 5.5 0 0 0 .043-.36c.014-.122.022-.24.039-.37.009-.12.014-.241.014-.36.009-.122.009-.25.017-.372 0-.118 0-.24-.008-.368 0-.119-.009-.24-.014-.368l-.026-.37a5.118 5.118 0 0 0-.04-.37c-.017-.13-.031-.248-.056-.376a5.99 5.99 0 0 0-.065-.37c-.023-.128-.049-.256-.071-.377-.034-.128-.057-.258-.088-.377-.043-.13-.074-.258-.105-.377-.04-.13-.082-.257-.122-.388-.039-.119-.079-.246-.127-.377-.048-.127-.088-.254-.145-.385-.048-.127-.096-.257-.153-.385a32.02 32.02 0 0 1-.167-.385 8.545 8.545 0 0 0-.187-.385 17.522 17.522 0 0 0-.193-.385c-.07-.128-.136-.267-.206-.394-.074-.127-.153-.258-.227-.394a36.77 36.77 0 0 1-.241-.393c-.079-.128-.161-.255-.249-.394-.088-.128-.176-.263-.264-.394-.088-.136-.184-.263-.28-.399-.097-.13-.193-.266-.292-.394a11.303 11.303 0 0 0-.312-.402c-.105-.136-.209-.272-.32-.408l-.034-.042c-.014-.006-.023-.023-.04-.04l-.031-.04-.039-.04-.043-.033-.04-.04-.079-.062-.04-.034-.042-.031-.04-.031-.048-.034-.04-.023-.048-.034-.039-.023-.049-.025-.048-.023-.039-.017-.049-.022-.048-.026-.048-.014-.096-.034-.048-.014-.049-.017-.048-.009-.057-.017-.048-.005-.096-.017-.057-.009-.048-.008h-.048l-.057-.009h-.249l-.057.009-.048.008h-.048l-.054.009-.048.008-.048.014-.057.009-.048.017-.048.008-.048.014-.049.017-.048.026-.056.014-.049.017-.048.023-.039.025-.049.023-.048.025-.048.023-.042.034-.049.023-.048.034-.039.03-.049.032-.039.034c-6.659 5.443-20.409 16.664-27.068 22.108-.136.105-.272.218-.408.328-.13.114-.266.227-.394.34-.13.11-.258.224-.385.337-.13.11-.258.224-.377.329-.13.11-.249.224-.371.337-.119.113-.241.224-.36.337-.122.113-.235.224-.354.337l-.337.337c-.114.122-.227.232-.338.345-.104.114-.218.224-.323.337-.102.114-.206.224-.311.337-.105.122-.201.233-.306.346l-.289.337c-.097.119-.193.232-.289.346l-.272.345a6.84 6.84 0 0 0-.267.346 5.66 5.66 0 0 0-.249.345 6.07 6.07 0 0 0-.249.343c-.08.113-.153.226-.233.345-.07.114-.153.235-.224.346a7.94 7.94 0 0 0-.209.345c-.071.122-.136.233-.21.354a8.9 8.9 0 0 0-.184.346c-.065.119-.127.24-.184.351-.057.122-.113.235-.17.354-.054.122-.111.232-.159.354-.048.12-.105.232-.153.354-.04.12-.088.232-.136.351l-.122.363-.119.354c-.034.119-.073.24-.105.36-.034.113-.056.232-.087.354-.034.119-.057.24-.083.36-.022.121-.048.24-.07.362-.017.122-.04.24-.057.362-.017.12-.031.241-.04.369-.017.119-.034.24-.039.362-.009.119-.017.24-.017.368-.009.12-.009.241-.017.36 0 .122 0 .25.008.371 0 .119.009.25.017.368 0 .122.014.25.023.371.008.128.025.25.039.377.017.119.034.25.049.368l.073.38c.017.118.049.246.071.376.034.12.057.25.091.377.031.119.071.25.102.377.042.121.082.249.122.376.039.13.079.258.127.386.048.121.091.249.145.379.048.127.096.255.153.385l.17.385c.056.128.119.258.184.386.065.127.127.263.192.393.074.128.136.255.21.385.071.136.153.264.224.394l.241.394c.079.127.161.263.249.393.088.136.176.264.267.4.087.13.184.266.28.393.096.136.193.267.289.402.105.128.207.264.312.403.105.127.209.263.323.399l.031.043.04.04.034.039.079.08.04.033.031.031.048.04.042.031.04.034.04.023.048.034.04.03.048.023.039.026.049.023.048.025.042.023.048.017.049.025.048.014.048.017.048.023.048.009.097.033.053.006.049.017.096.017.057.009h.048l.048.005h.105l.048.009h.057l.048-.009h.048l.057-.005h.048l.048-.009.057-.008.096-.017.057-.015.048-.008.096-.034.048-.014.048-.017.049-.023.048-.017.048-.025.048-.023.048-.017.048-.031.049-.026.039-.022.049-.031.048-.034.039-.032.048-.03.04-.035c6.659-5.434 20.409-16.664 27.068-22.102.136-.11.272-.224.411-.337zM333.987 24.971c3.694-3.019 4.258-8.454 1.246-12.138-3.003-3.685-8.441-4.223-12.135-1.204-3.695 3.02-4.25 8.446-1.247 12.13 3.012 3.685 8.444 4.232 12.136 1.212zM216.484 16.381l.049-.025.048-.023.048-.025.048-.023.048-.025.04-.031.048-.023.04-.034.048-.031.04-.031.048-.034 14.306-11.689v-.105l12.263-10.011c8.724-7.12 11.557-14.594 4.539-23.201a2.14 2.14 0 0 0-2.989-.298c-6.665 5.435-20.415 16.668-27.074 22.102-8.724 7.12-11.566 14.595-4.539 23.21.74.9 2.08 1.037 2.989.297zM347.802-35.014 321.452-13.5l-.074.065-.241.193-.088.074-.241.198-.082.057-38.447 31.4a2.129 2.129 0 0 0-.306 2.985c12.45 15.254 30.208-2.818 36.909-14.34 10.157-17.468 13.436-7.264 27.379-18.646l12.104-9.885.666-.546 12.105-9.882a2.128 2.128 0 0 0 .303-2.988c-7.027-8.604-14.913-7.32-23.637-.198zM318.51-25.775c3.004 3.684 8.441 4.222 12.136 1.203 3.695-3.01 4.259-8.445 1.247-12.13-3.007-3.685-8.444-4.231-12.139-1.212-3.692 3.019-4.247 8.454-1.244 12.139zM255.702-37.88c-3.695 3.016-4.247 8.451-1.244 12.139 3.012 3.684 8.441 4.222 12.136 1.203 3.694-3.019 4.255-8.445 1.243-12.13-3.003-3.687-8.44-4.231-12.135-1.212zM192.154-38.155c-3.692 3.02-4.256 8.446-1.244 12.13 3.003 3.685 8.441 4.232 12.136 1.213 3.694-3.017 4.25-8.446 1.246-12.14-3.012-3.684-8.443-4.222-12.138-1.203zM462.094 24.906c3.695-3.01 4.25-8.445 1.244-12.13-3.012-3.685-8.441-4.231-12.135-1.212-3.695 3.02-4.256 8.454-1.244 12.139 3.003 3.684 8.44 4.222 12.135 1.203zM474.76 18.797a2.135 2.135 0 0 0-.304 2.988c3.919 4.792 8.104 6.517 12.544 5.869V8.803l-.136.113-12.104 9.881zM191.278 6.89c10.161-17.468 13.439-7.264 27.382-18.646l12.096-9.884.675-.547 12.104-9.881a2.127 2.127 0 0 0 .303-2.988c-3.915-4.795-8.098-6.517-12.543-5.872v-.005c-.037.005-.071.014-.108.02a16.881 16.881 0 0 0-.717.13l-.158.034c-.19.042-.38.088-.57.139a14.022 14.022 0 0 0-.918.272c-.198.062-.394.133-.589.203-.051.02-.1.037-.148.054-.224.085-.447.176-.671.27l-.065.028c-.76.325-1.525.708-2.298 1.147-.043.022-.088.05-.131.073a33.35 33.35 0 0 0-.623.371l-.193.12c-.189.115-.377.237-.566.359-.074.048-.148.1-.224.147-.182.122-.363.244-.544.371l-.235.162-.547.393-.23.17c-.192.142-.385.292-.581.44l-.198.152c-.258.201-.518.408-.779.62L193.851-13.74l-.082.056-.232.201-.088.074-.241.193-.082.062-38.447 31.4a2.126 2.126 0 0 0-.306 2.985c12.45 15.246 30.207-2.818 36.905-14.34zM179.811 49.45a2.127 2.127 0 0 0 .304-2.988c-12.448-15.246-30.207 2.818-36.906 14.34-10.16 17.468-13.436 7.264-27.38 18.65l-12.103 9.88-.667.556-12.104 9.875a2.125 2.125 0 0 0-.305 2.986c7.028 8.615 14.915 7.321 23.637.201l26.352-21.516.074-.057.241-.201.088-.07.241-.193.079-.066 38.449-31.397zM115.601 49.45a2.126 2.126 0 0 0 .303-2.988c-12.447-15.246-30.207 2.818-36.905 14.34-10.16 17.468-13.437 7.264-27.38 18.65l-12.104 9.88-.666.556-12.104 9.875a2.125 2.125 0 0 0-.306 2.986c7.028 8.615 14.916 7.321 23.638.201L76.43 81.434l.074-.057.24-.201.088-.07.241-.193.08-.066L115.6 49.45zM143.58 93.717c-3.006-3.685-8.443-4.231-12.138-1.212-3.694 3.019-4.248 8.454-1.244 12.138 3.012 3.685 8.441 4.223 12.136 1.204 3.694-3.019 4.258-8.445 1.246-12.13zM79.526 93.742c-3.004-3.687-8.442-4.222-12.136-1.206-3.695 3.019-4.249 8.445-1.245 12.133 3.012 3.685 8.441 4.228 12.136 1.212 3.694-3.019 4.257-8.454 1.245-12.139zM15.315 93.742c-3.003-3.687-8.441-4.222-12.135-1.206-3.695 3.019-4.25 8.445-1.245 12.133 3.011 3.685 8.44 4.228 12.136 1.212 3.694-3.019 4.256-8.454 1.244-12.139zM307.412 49.7a2.127 2.127 0 0 0 .303-2.989c-12.441-15.254-30.207 2.818-36.905 14.331-10.161 17.477-13.428 7.265-27.38 18.658l-12.096 9.873-.674.556-12.104 9.881a2.127 2.127 0 0 0-.306 2.988c7.029 8.607 14.923 7.313 23.639.201l26.351-21.516.079-.065.235-.201.088-.063.241-.2.079-.066 38.45-31.389zM446.618 55.253c3.003 3.685 8.441 4.223 12.135 1.212 3.695-3.019 4.248-8.454 1.244-12.138-3.012-3.685-8.44-4.223-12.135-1.213-3.704 3.02-4.256 8.454-1.244 12.14zM462.094 106c3.695-3.019 4.25-8.446 1.244-12.13-3.012-3.685-8.441-4.232-12.135-1.212-3.695 3.019-4.256 8.445-1.244 12.13 3.003 3.684 8.44 4.231 12.135 1.212zM473.836 74.178c-.136.11-.264.224-.4.337-.13.11-.258.224-.385.337-.13.11-.25.224-.38.337-.119.11-.249.224-.368.337-.122.105-.241.215-.363.328-.11.114-.232.224-.346.346-.119.113-.232.224-.342.337-.114.113-.227.224-.332.337-.11.113-.215.224-.32.337a4.156 4.156 0 0 0-.315.346c-.102.113-.206.223-.303.337a5.6 5.6 0 0 0-.297.345c-.097.113-.193.224-.281.337-.096.113-.187.232-.275.346-.087.113-.175.223-.263.345-.091.11-.179.224-.258.346-.079.11-.161.223-.241.342-.079.114-.161.235-.232.346-.082.113-.153.235-.227.345-.071.122-.144.233-.215.354-.065.114-.136.233-.201.346-.066.119-.128.232-.193.354-.065.11-.122.232-.176.343-.065.121-.122.243-.178.354-.048.121-.105.232-.153.354a10.853 10.853 0 0 0-.417 1.068c-.039.118-.079.232-.113.353-.04.12-.071.241-.105.36-.031.122-.062.24-.088.354-.031.12-.056.24-.088.363-.022.119-.039.24-.065.36-.022.121-.039.24-.054.362l-.051.368c-.014.122-.022.24-.031.363l-.022.368c0 .122-.009.24-.009.362v.368c.009.128.009.25.017.369.006.13.014.249.031.37.009.128.023.25.04.377.008.12.031.25.048.368.017.13.04.25.065.38.023.127.048.246.08.377.025.119.056.249.087.376.034.122.066.25.105.377.031.13.074.25.114.377.039.13.087.257.127.388.048.127.096.246.145.377.048.127.104.254.161.385.048.127.105.257.167.385.057.127.122.257.179.385.062.136.127.266.201.394.062.127.136.257.207.385a6.5 6.5 0 0 0 .227.393c.07.136.152.264.232.394.079.136.167.264.258.394.079.136.167.263.263.4.088.13.184.265.272.393.097.136.196.266.298.402.096.136.201.266.306.402.105.136.218.264.32.4l.042.042.032.04.039.04.031.039.043.04.04.034.039.04.04.03.04.034.042.031.048.032.04.025.048.031.04.026.048.022.04.026.048.023.048.025.048.023.048.017.048.014.049.025.048.017.048.014.048.009.048.017.048.009.049.014.056.008.097.017h.056l.048.009h.049l.056.005h.097l.056-.005h.097l.053-.009.097-.017.056-.008.049-.009.048-.014.048-.008.057-.017.048-.015.096-.034.048-.014.048-.025.049-.023.048-.017.048-.025.048-.023.04-.031.048-.026.048-.03.043-.035.048-.023.039-.04.04-.033L487 85.665V63.427l-12.762 10.42c-.136.113-.272.226-.402.33zM449.556 67.528l-.079.065-.232.192-.091.074-.241.201-.079.063-38.447 31.391a2.122 2.122 0 0 0-.306 2.985c12.442 15.254 30.207-2.818 36.905-14.339 10.161-17.469 13.431-7.264 27.38-18.647l12.096-9.884.538-.433V40.344c-3.533.508-7.237 2.521-11.09 5.67l-26.354 21.514zM345.731 74.24c-.13.113-.266.227-.394.337-.13.113-.258.218-.385.331a8.98 8.98 0 0 0-.377.337c-.13.11-.249.224-.371.337-.119.11-.241.224-.36.337-.122.11-.235.224-.354.338-.114.11-.224.223-.337.337-.114.11-.227.223-.338.337-.104.118-.218.232-.323.345l-.311.337c-.105.11-.201.224-.306.346-.097.11-.193.223-.289.337-.097.11-.193.232-.289.345-.088.11-.184.224-.272.343-.091.113-.179.226-.267.34-.087.119-.167.232-.249.342-.088.122-.167.236-.249.346-.08.122-.153.235-.233.354-.07.113-.153.224-.224.346a7.94 7.94 0 0 0-.209.345c-.071.119-.136.232-.21.354-.062.11-.127.232-.184.343-.065.121-.127.235-.184.354-.057.122-.113.232-.17.354-.054.113-.111.232-.159.354-.048.11-.105.232-.153.351-.04.113-.088.235-.136.354-.04.122-.082.232-.122.354l-.119.36c-.034.121-.073.235-.105.354-.034.121-.056.24-.087.362-.034.12-.057.241-.083.36-.022.122-.048.24-.07.362-.017.12-.04.241-.057.36a5.58 5.58 0 0 0-.04.363c-.017.119-.034.249-.039.368-.009.122-.017.24-.017.362-.009.12-.009.25-.017.368 0 .122 0 .25.008.371 0 .12.009.247.017.369 0 .122.014.249.023.368.008.122.025.25.039.37.017.128.034.25.049.378.025.121.048.249.073.376.017.122.049.25.071.371.034.128.057.255.091.377.031.127.071.258.102.377.042.127.082.257.122.385.039.13.079.249.127.376.048.13.091.258.145.386.048.13.096.257.153.388l.17.385c.056.127.119.255.184.385.065.127.127.255.192.385.074.136.136.264.21.394.071.127.153.263.224.394.079.127.162.255.241.39.079.13.161.267.249.394.088.13.176.266.267.394.087.136.184.266.28.402.096.127.193.263.289.402.105.127.207.263.312.4.105.13.209.266.323.402l.031.04.04.039.034.042.039.04.04.031.04.04.031.034.048.03.042.032.04.034.04.031.048.031.04.026.048.031.039.026.049.022.048.026.042.022.048.017.049.023.096.034.048.014.096.034.049.014.053.009.145.025.057.009.048.005.048.009h.306l.057-.008h.048l.048-.006.057-.009.048-.008.048-.017.057-.009.048-.014.048-.008.048-.017.048-.015.048-.017.049-.025.048-.014.048-.026.048-.022.048-.026.048-.022.049-.026.039-.031.049-.026.048-.03.039-.032.048-.034.04-.031c6.659-5.444 20.409-16.667 27.068-22.11.136-.103.272-.216.411-.33.127-.113.263-.223.391-.336.13-.114.258-.224.385-.337.13-.105.258-.216.38-.329.127-.113.249-.227.368-.337.122-.113.241-.227.363-.337.119-.113.232-.227.351-.337l.337-.337c.114-.113.227-.235.34-.346.102-.113.216-.226.32-.337l.312-.337c.105-.113.201-.235.306-.345.097-.113.193-.227.289-.337.096-.113.193-.235.289-.346.088-.113.184-.226.275-.345.088-.114.176-.224.264-.346.087-.113.17-.224.249-.337.088-.121.17-.232.249-.354.08-.11.153-.224.233-.345.073-.11.153-.224.226-.346.071-.11.145-.232.207-.343.074-.121.136-.235.201-.354a3.52 3.52 0 0 0 .193-.345c.065-.122.127-.232.184-.354.057-.12.113-.232.17-.354.057-.12.113-.232.162-.351.048-.122.102-.233.144-.354.048-.12.096-.233.145-.354.039-.12.079-.241.119-.352a17.1 17.1 0 0 1 .121-.362c.032-.119.063-.24.102-.354.034-.119.057-.24.091-.36.031-.122.054-.24.079-.362.023-.12.049-.241.071-.36.017-.122.043-.24.057-.362.017-.12.034-.241.043-.36.014-.13.022-.25.039-.371.009-.12.014-.24.014-.36.009-.13.009-.25.017-.37 0-.12 0-.25-.008-.37 0-.12-.009-.248-.014-.37l-.026-.368a5.353 5.353 0 0 0-.04-.377c-.017-.122-.031-.24-.056-.371-.017-.127-.04-.246-.065-.377l-.071-.368c-.034-.13-.057-.258-.088-.377a4.651 4.651 0 0 1-.105-.387c-.04-.12-.082-.247-.122-.377a5.108 5.108 0 0 0-.127-.377c-.048-.127-.088-.258-.145-.385-.048-.127-.096-.258-.153-.385a32.02 32.02 0 0 1-.167-.385 7.223 7.223 0 0 0-.187-.386c-.062-.13-.127-.257-.193-.393-.07-.13-.136-.258-.206-.385l-.227-.394c-.079-.128-.159-.266-.241-.394-.079-.127-.161-.266-.249-.393-.088-.128-.176-.264-.264-.394-.088-.136-.184-.264-.28-.402-.097-.136-.193-.264-.292-.4l-.312-.402c-.105-.127-.209-.266-.32-.402l-.034-.04c-.014-.017-.023-.022-.04-.04l-.031-.039-.039-.04-.043-.034-.04-.04-.039-.03-.04-.04-.04-.034-.042-.031-.04-.026-.048-.03-.04-.023-.048-.034-.039-.023-.049-.026-.048-.022-.039-.026-.049-.014-.048-.025-.048-.017-.048-.014-.096-.035-.049-.014-.048-.017-.057-.008-.048-.009-.048-.014-.048-.008h-.057l-.096-.017h-.306l-.057.008h-.048l-.048.009-.054.008-.048.006-.048.008-.057.017-.048.009-.048.014-.097.034-.048.014-.056.026-.049.017-.048.022-.039.026-.049.023-.048.025-.048.023-.042.025-.097.062-.039.034-.049.032-.039.03a62562.953 62562.953 0 0 1-27.068 22.103c-.136.113-.272.226-.408.337zM271.181 93.957c-3.006-3.684-8.444-4.23-12.139-1.212-3.694 3.02-4.247 8.454-1.243 12.139 3.011 3.685 8.44 4.223 12.135 1.212 3.695-3.019 4.259-8.454 1.247-12.139zM335.233 93.926c-3.003-3.684-8.441-4.222-12.135-1.212-3.695 3.02-4.25 8.454-1.247 12.139 3.012 3.685 8.444 4.231 12.136 1.212 3.694-3.019 4.258-8.454 1.246-12.139zM347.802 46.077l-26.35 21.516-.074.065-.241.193-.088.07-.241.193-.082.065-38.447 31.398a2.132 2.132 0 0 0-.306 2.988c12.45 15.245 30.208-2.819 36.909-14.34 10.157-17.469 13.436-7.264 27.379-18.65l12.104-9.881.666-.547 12.105-9.881a2.129 2.129 0 0 0 .303-2.988c-7.027-8.607-14.913-7.321-23.637-.201zM207.633 93.686c-3.012-3.685-8.441-4.232-12.136-1.213-3.695 3.02-4.259 8.455-1.247 12.139 3.004 3.685 8.444 4.223 12.136 1.204 3.695-3.011 4.25-8.446 1.247-12.13zM203.046 56.281c3.694-3.019 4.25-8.454 1.246-12.139-3.012-3.684-8.443-4.222-12.138-1.203-3.692 3.01-4.256 8.445-1.244 12.13 3.003 3.685 8.441 4.231 12.136 1.212zM146.012 88.016c0 .13.017.249.025.37.009.128.023.25.04.377.017.122.031.25.048.369.025.13.048.249.065.38.023.126.057.248.079.376.032.119.057.249.088.376.034.122.074.25.105.377.04.13.082.25.122.38.04.127.079.254.127.385.04.127.088.249.145.376.048.128.096.258.153.386.057.127.113.257.167.385.057.127.122.258.187.385.062.136.128.266.193.394.071.127.136.257.207.385.073.136.153.266.226.394.08.135.159.266.241.393.079.136.162.264.249.394.088.136.176.263.264.402.088.127.184.263.281.39.096.14.192.267.289.403.104.136.209.266.314.402.105.136.21.264.32.402l.034.04.04.04.031.04.04.039.042.04.031.034.04.04.04.03.048.034.04.032.042.03.048.026.04.031.04.026.048.022.048.026.04.023.048.025.048.023.048.017.048.022.097.034.048.015.048.008.048.017.057.009.048.014.096.017.057.008h.048l.048.009h.057l.048.008h.153l.048-.008h.057l.096-.017.054-.009.048-.008.048-.006.057-.017.048-.008.048-.017.049-.015.096-.034.048-.014.048-.025.048-.014.049-.026.048-.022.048-.026.048-.031.043-.026.048-.03.048-.035.04-.022.039-.04.048-.034c6.659-5.435 20.41-16.665 27.068-22.1.136-.113.272-.226.408-.337.131-.113.267-.218.394-.33.128-.111.258-.225.385-.338.131-.11.258-.224.377-.337.131-.11.25-.224.371-.337.119-.11.241-.224.36-.337.122-.11.235-.224.354-.337l.338-.337c.113-.113.226-.224.337-.337.105-.113.218-.224.323-.337.102-.122.207-.232.311-.346.105-.113.202-.223.306-.337.097-.113.193-.232.289-.345l.289-.337c.088-.12.185-.233.272-.346.088-.11.179-.232.267-.345l.249-.346c.088-.11.167-.232.25-.342.079-.114.15-.236.232-.346.071-.122.153-.235.224-.346.073-.121.144-.232.209-.354.071-.113.136-.232.202-.345.07-.12.136-.232.192-.354.063-.11.128-.232.184-.351.057-.114.114-.235.17-.346.054-.122.111-.24.159-.354.048-.119.096-.24.145-.354l.144-.36c.04-.113.082-.232.122-.354.04-.119.079-.24.119-.354.034-.119.065-.24.096-.36.04-.121.065-.24.097-.362.034-.119.056-.24.082-.36.022-.121.048-.24.071-.362.017-.119.039-.24.056-.36a5.8 5.8 0 0 0 .04-.362c.017-.122.025-.241.04-.363.008-.127.017-.246.017-.368.008-.119.008-.24.008-.368.009-.122 0-.24 0-.371 0-.12-.008-.24-.017-.368l-.023-.371c-.017-.12-.025-.247-.039-.368a8.177 8.177 0 0 0-.057-.377 5.99 5.99 0 0 0-.065-.371c-.023-.128-.048-.247-.071-.377l-.099-.377c-.031-.127-.062-.249-.096-.376-.04-.13-.08-.258-.119-.377-.04-.13-.08-.258-.128-.388l-.144-.385c-.049-.128-.097-.255-.153-.377-.057-.127-.114-.263-.17-.394a8.874 8.874 0 0 0-.185-.385c-.065-.127-.127-.255-.192-.385-.074-.127-.136-.258-.21-.394-.071-.127-.153-.254-.224-.393-.079-.128-.161-.255-.241-.385a14.499 14.499 0 0 0-.249-.4c-.088-.13-.176-.257-.266-.393-.088-.13-.185-.267-.281-.402-.096-.128-.192-.267-.289-.394-.105-.136-.209-.272-.311-.402a7.144 7.144 0 0 0-.324-.4l-.031-.048c-.017-.008-.025-.025-.039-.042l-.034-.04-.04-.031-.04-.04-.039-.034-.04-.04-.04-.03-.042-.032-.04-.034-.04-.03-.048-.026-.039-.032-.049-.025-.039-.031-.048-.023-.049-.025-.042-.017-.048-.023-.048-.017-.049-.023-.096-.034-.048-.014-.048-.017-.054-.008-.048-.014-.145-.026-.056-.008-.049-.009h-.048l-.056-.006h-.202l-.056.006h-.048l-.049.009-.056.008-.145.026-.056.005-.097.034-.048.014-.048.017-.054.017-.051.015-.048.025-.048.017-.04.023-.048.025-.048.023-.048.025-.049.031-.039.032-.048.025-.04.031-.048.034-.04.04-27.076 22.1c-.136.113-.264.226-.402.33-.137.111-.264.225-.392.338-.13.11-.257.224-.388.337-.127.11-.255.224-.377.337-.127.113-.249.224-.368.337l-.363.337c-.119.113-.24.224-.351.337l-.34.337c-.11.113-.224.224-.337.337-.102.113-.215.224-.32.337-.105.113-.21.227-.312.345-.105.114-.201.224-.306.337-.096.114-.193.224-.289.346l-.289.337c-.088.113-.184.232-.275.346-.088.113-.175.232-.263.345-.088.113-.17.224-.258.346-.079.11-.162.223-.241.345-.079.11-.162.232-.232.346l-.227.342c-.071.122-.145.236-.207.354-.074.114-.136.233-.21.346-.065.122-.127.232-.184.354-.065.11-.127.232-.184.346-.057.118-.113.24-.17.35-.057.123-.113.236-.161.355-.049.121-.102.24-.151.354-.048.119-.09.24-.138.354l-.119.36c-.04.121-.08.232-.122.353-.031.12-.071.241-.105.36-.031.122-.062.24-.088.363a4.125 4.125 0 0 0-.079.354c-.026.119-.048.24-.074.36-.014.121-.04.24-.054.362-.017.127-.034.25-.048.368-.008.122-.025.24-.034.363-.008.119-.014.24-.014.368-.009.122-.009.24-.017.362 0 .128 0 .25.008.368 0 .128.009.25.015.369zM318.51 55.318c3.004 3.685 8.441 4.223 12.136 1.204 3.695-3.02 4.259-8.446 1.247-12.13-3.007-3.685-8.444-4.232-12.139-1.213-3.692 3.02-4.247 8.455-1.244 12.14zM88.883 97.226c6.658-5.435 20.408-16.667 27.075-22.102 8.714-7.12 11.557-14.595 4.53-23.21a2.135 2.135 0 0 0-2.988-.297c-6.658 5.443-20.409 16.667-27.067 22.11-8.722 7.12-11.566 14.595-4.538 23.201a2.135 2.135 0 0 0 2.988.298zM24.672 97.226c6.659-5.435 20.409-16.667 27.076-22.102 8.714-7.12 11.557-14.595 4.53-23.21a2.135 2.135 0 0 0-2.989-.297c-6.658 5.443-20.408 16.667-27.066 22.11-8.723 7.12-11.566 14.595-4.538 23.201a2.135 2.135 0 0 0 2.988.298zM216.484 97.467l.049-.017.048-.023.048-.026.048-.022.048-.034.04-.023.048-.034.04-.022.048-.032.04-.034.048-.04 14.306-11.68v-.104l12.263-10.012c8.724-7.12 11.557-14.594 4.539-23.2a2.129 2.129 0 0 0-2.989-.298 38940.164 38940.164 0 0 0-27.074 22.102c-8.724 7.12-11.566 14.594-4.539 23.201a2.128 2.128 0 0 0 2.989.298zM273.612 88.265l.026.371c.017.119.022.25.039.368.017.128.031.25.057.377.017.122.04.249.065.37.023.128.048.25.071.377.031.128.065.25.096.377.034.13.065.258.105.377.031.13.074.258.113.388.04.119.08.246.128.377l.144.385c.049.127.105.257.153.385.057.127.114.258.168.385.065.127.121.258.187.385.062.128.127.258.192.385.071.128.145.267.216.394.073.128.144.258.218.394l.241.393c.079.128.167.255.249.394.088.127.176.263.263.394.097.136.185.263.281.4.096.13.193.265.298.393.096.136.201.275.306.402.104.136.209.272.32.402l.034.048.039.04.032.04.039.03.043.04.039.043.08.062.039.034.04.031.042.031.049.034.039.023.049.026.039.03.048.026.049.023.048.017.039.023.049.025.048.014.096.034.048.014.048.017.057.009.048.017.048.005.049.009.056.008.097.017h.048l.056.009h.258l.097-.017h.053l.049-.009.048-.017.056-.005.049-.009.096-.034.048-.005.057-.017.048-.026.048-.014.048-.017.048-.023.049-.025.039-.023.048-.025.049-.023.048-.034.042-.023.048-.034.04-.03.048-.032.04-.034c6.658-5.443 20.409-16.664 27.073-22.108l.403-.328c.136-.114.266-.227.393-.34a6.55 6.55 0 0 0 .386-.337c.13-.11.258-.224.385-.337.122-.11.241-.216.363-.329.127-.113.249-.224.36-.337.122-.113.241-.224.354-.337l.346-.345c.113-.114.218-.224.328-.337.105-.114.218-.224.323-.337.102-.114.207-.224.312-.337.105-.122.21-.233.306-.346.096-.113.201-.224.297-.337.088-.122.185-.232.281-.346l.272-.345a6.84 6.84 0 0 0 .266-.346c.088-.11.167-.223.258-.345.08-.11.159-.224.241-.343.079-.113.159-.226.232-.345.08-.114.153-.235.224-.346.074-.122.145-.232.21-.354.071-.113.136-.224.209-.345l.193-.354c.054-.11.119-.233.176-.343.057-.122.113-.235.17-.354.054-.122.11-.232.159-.354.056-.12.104-.232.153-.354.048-.12.087-.24.136-.351.039-.122.087-.241.13-.363.04-.113.071-.232.11-.354.034-.119.074-.24.105-.36.034-.121.065-.232.088-.354.034-.119.057-.24.082-.36l.071-.362c.017-.122.04-.24.057-.362.017-.12.031-.247.048-.369.008-.121.025-.24.031-.362l.026-.368c0-.12.008-.24.008-.36 0-.13 0-.25-.008-.37 0-.128-.009-.25-.009-.37a6.909 6.909 0 0 0-.031-.37c-.009-.127-.026-.25-.04-.377-.017-.119-.034-.249-.048-.368-.025-.13-.042-.25-.065-.38-.026-.118-.057-.246-.079-.376-.034-.12-.057-.25-.091-.377-.031-.119-.071-.25-.105-.377-.04-.13-.079-.249-.119-.376-.04-.13-.079-.258-.127-.388-.043-.128-.091-.247-.139-.377-.054-.127-.102-.255-.159-.385a52.236 52.236 0 0 1-.17-.385 8.416 8.416 0 0 0-.184-.385c-.065-.128-.128-.264-.193-.394-.073-.127-.136-.258-.209-.385a7 7 0 0 0-.224-.394c-.08-.127-.153-.263-.241-.394-.08-.127-.162-.263-.249-.393-.088-.136-.176-.264-.267-.4a9.486 9.486 0 0 0-.28-.393l-.289-.402c-.105-.136-.202-.264-.312-.403a14.14 14.14 0 0 0-.323-.399l-.031-.042c-.009-.015-.026-.032-.031-.04l-.043-.04-.04-.04-.031-.039-.039-.034-.04-.04-.043-.03-.048-.032-.039-.034-.04-.031-.04-.026-.048-.03-.04-.023-.048-.026-.048-.023-.042-.025-.049-.023-.048-.025-.048-.017-.048-.014-.048-.026-.048-.017-.049-.014-.048-.009-.048-.017-.048-.008-.054-.014-.144-.026h-.057l-.048-.008h-.048l-.057-.006h-.105l-.048.006h-.105l-.096.017-.057.008-.096.017-.048.014-.057.009-.048.017-.048.014-.145.051-.048.023-.048.025-.048.014-.049.026-.048.031-.048.026-.04.022-.048.031-.039.034-.049.032-.039.03-.049.035c-6.658 5.435-20.409 16.664-27.067 22.102-.136.11-.272.224-.411.337-.128.11-.264.224-.391.329-.13.11-.258.223-.388.337-.128.113-.255.223-.377.337-.128.113-.249.223-.368.337l-.363.337-.351.337c-.114.113-.227.223-.338.337l-.34.337c-.102.113-.215.226-.32.345-.105.114-.209.224-.311.337-.105.113-.202.224-.306.337-.097.122-.193.233-.289.346-.097.113-.193.224-.289.345-.088.114-.185.224-.275.337-.088.122-.176.233-.264.346-.082.113-.17.232-.249.345-.088.11-.17.233-.25.346-.079.119-.153.232-.232.345-.074.12-.153.233-.227.352-.07.113-.136.226-.206.345-.074.114-.136.232-.202.346-.065.121-.127.232-.192.354-.065.119-.122.232-.184.354-.057.11-.114.232-.17.351-.057.113-.105.232-.162.345l-.144.363c-.049.11-.097.232-.136.351a8.39 8.39 0 0 0-.241.716c-.04.111-.071.233-.105.352-.031.122-.062.24-.096.362-.023.122-.057.241-.08.363-.025.119-.048.24-.065.36h-.008c-.015.121-.032.24-.054.362-.017.12-.034.24-.043.36-.014.122-.022.24-.031.37-.017.12-.023.242-.023.36-.008.122-.008.25-.008.372-.009.118 0 .24 0 .368 0 .119.008.24.014.368zM474.76 99.882c-.899.748-1.043 2.088-.304 2.994 3.919 4.795 8.104 6.511 12.544 5.871v-18.85l-.136.11-12.104 9.875zM398.917 60.985c-10.16 17.47-13.439 7.268-27.382 18.65l-12.101 9.885-.675.543-12.096 9.885a2.124 2.124 0 0 0-.306 2.985c7.019 8.607 14.915 7.321 23.637.201l26.353-21.516.071-.063.241-.192.088-.074.241-.192.073-.066 38.456-31.397a2.123 2.123 0 0 0 .306-2.985c-12.45-15.246-30.207 2.818-36.906 14.336zM382.563 55.287c3.006 3.685 8.443 4.223 12.138 1.204 3.695-3.01 4.247-8.446 1.244-12.13-3.012-3.685-8.441-4.232-12.135-1.213-3.695 3.017-4.259 8.454-1.247 12.14zM255.702 43.21c-3.695 3.02-4.247 8.446-1.244 12.13 3.012 3.688 8.441 4.232 12.136 1.213 3.694-3.016 4.255-8.451 1.243-12.136-3.003-3.687-8.44-4.225-12.135-1.206zM436.12 74.94c.128-.114.264-.227.394-.337.127-.105.255-.219.385-.329a44.584 44.584 0 0 0 .746-.677c.121-.11.24-.224.362-.337.119-.11.232-.224.354-.337l.337-.337c.111-.11.224-.224.329-.337.114-.11.215-.232.329-.346.105-.11.21-.223.314-.337.105-.11.202-.223.304-.337a11.4 11.4 0 0 1 .291-.345c.097-.11.193-.224.281-.346.096-.11.184-.223.28-.337.088-.119.176-.232.264-.342.082-.122.17-.235.249-.346.091-.122.17-.235.25-.346.082-.121.153-.232.232-.345.074-.122.144-.232.227-.354.07-.113.136-.232.206-.346.074-.118.139-.232.202-.353.065-.111.13-.233.192-.343.065-.122.122-.235.187-.354l.167-.354c.057-.114.105-.233.162-.354.048-.11.096-.233.144-.352.049-.113.097-.232.136-.353.049-.122.088-.233.128-.355.042-.118.082-.24.113-.36.04-.121.074-.231.105-.353.031-.122.065-.241.096-.363.023-.119.057-.24.08-.36.025-.121.048-.24.065-.362.023-.119.04-.24.065-.36.014-.121.031-.24.04-.362.014-.12.022-.24.031-.368.017-.122.017-.241.026-.363.005-.119.005-.25.005-.368v-.371c0-.119-.005-.24-.014-.368a45.21 45.21 0 0 0-.026-.368c-.014-.122-.022-.25-.039-.371-.017-.128-.031-.25-.057-.377-.014-.12-.04-.25-.062-.368-.026-.13-.048-.258-.074-.38-.031-.127-.065-.255-.096-.377a4.656 4.656 0 0 0-.105-.376 6.215 6.215 0 0 0-.111-.385c-.042-.128-.082-.25-.13-.377l-.144-.385c-.049-.13-.105-.258-.153-.385l-.168-.388c-.065-.128-.121-.255-.184-.386-.065-.127-.13-.255-.201-.385a6.274 6.274 0 0 0-.21-.393c-.07-.128-.144-.255-.218-.391l-.241-.394c-.079-.13-.167-.258-.246-.394-.091-.13-.179-.266-.266-.393-.097-.136-.185-.267-.281-.403-.096-.127-.193-.263-.297-.402a21.76 21.76 0 0 0-.306-.393c-.105-.136-.207-.272-.321-.408l-.034-.04a.248.248 0 0 0-.039-.04l-.031-.042-.04-.04-.04-.03-.042-.04-.04-.034-.079-.063-.04-.034-.04-.03-.048-.032-.042-.025-.048-.032-.04-.025-.048-.023-.048-.025-.049-.023-.039-.017-.048-.023-.097-.033-.048-.015-.048-.017-.057-.017-.048-.008-.048-.014-.097-.017-.056-.009-.048-.008-.049-.006h-.056l-.048-.008h-.255l-.049.008-.048.006h-.056l-.097.017-.056.017-.049.008-.048.014-.048.009-.048.017-.057.014-.048.026-.048.017-.048.014-.048.025-.049.023-.039.025-.048.023-.049.025-.048.032-.039.025-.049.031-.039.031-.048.034-.043.032c-6.658 5.443-20.406 16.667-27.073 22.11-.136.105-.267.216-.403.329a15.25 15.25 0 0 0-.393.337c-.136.113-.264.224-.394.337-.119.113-.25.218-.377.328-.119.114-.241.227-.368.337-.122.114-.241.227-.355.337-.121.114-.24.227-.354.337-.113.114-.232.227-.346.338-.11.113-.215.235-.328.345-.114.113-.216.227-.32.337-.105.113-.21.227-.315.337-.105.113-.21.235-.306.346-.096.113-.198.226-.295.337a9.198 9.198 0 0 1-.283.345 6.615 6.615 0 0 0-.272.346 34.6 34.6 0 0 0-.266.345c-.088.114-.167.224-.255.346-.082.113-.162.224-.241.345-.082.114-.162.224-.235.346-.08.11-.15.232-.224.345-.071.11-.145.233-.215.343-.066.122-.139.235-.202.354-.065.113-.13.232-.192.346-.057.121-.122.24-.179.354-.056.119-.119.232-.167.354-.057.119-.113.232-.161.35a6.773 6.773 0 0 0-.154.355c-.048.122-.087.232-.136.354-.039.119-.087.24-.127.351-.043.122-.074.24-.113.363-.032.121-.074.24-.105.362-.031.11-.065.232-.088.351a5.22 5.22 0 0 0-.079.363c-.026.119-.049.24-.074.36-.023.121-.04.24-.057.362-.014.119-.031.24-.048.363-.008.127-.023.246-.031.368l-.026.36c0 .13-.005.249-.005.37 0 .12 0 .25.005.369 0 .121.009.249.009.37.008.12.017.25.034.369.006.127.023.249.04.377.014.121.031.249.048.37.022.128.039.25.062.377.026.12.048.25.082.377.023.122.057.249.088.376.031.122.071.25.105.38.04.119.071.246.119.377.04.127.082.257.13.376.04.128.088.258.136.386.057.127.105.257.162.385.054.13.11.257.167.385.057.13.122.258.184.385.057.13.131.266.193.394.065.13.139.257.209.385.074.13.145.266.224.394.083.13.153.266.241.393.082.128.162.266.25.394.087.136.178.266.266.394.088.136.184.263.28.402.097.136.193.263.289.4.105.13.202.265.306.401.111.128.216.266.329.403l.031.04.034.039.08.08.031.033.042.04.04.03.04.043.039.031.048.032.04.025.04.031.048.031.042.026.049.023.048.025.039.023.049.025.048.017.048.023.048.017.048.014.097.034.048.014.048.017.048.009.057.008.048.014.048.009h.048l.057.008.048.009h.303l.057-.009h.048l.048-.008.057-.009.048-.005.048-.009.048-.017.057-.008.048-.015.097-.034.048-.014.048-.025.048-.017.048-.023.049-.025.048-.023.048-.025.048-.023.04-.026.048-.03.04-.032.048-.034.042-.031.048-.031c6.656-5.444 20.407-16.668 27.065-22.102.136-.114.275-.224.411-.338zM398.042 106.031c3.694-3.016 4.247-8.451 1.244-12.139-3.012-3.684-8.441-4.222-12.136-1.203-3.695 3.019-4.256 8.445-1.244 12.13 3.004 3.685 8.441 4.231 12.136 1.212zM128.102 42.961c-3.695 3.02-4.257 8.455-1.245 12.14 3.004 3.687 8.441 4.222 12.136 1.211 3.695-3.016 4.256-8.45 1.244-12.138-3.003-3.685-8.441-4.223-12.135-1.213zM63.892 42.961c-3.695 3.02-4.257 8.455-1.245 12.14 3.004 3.687 8.44 4.222 12.136 1.211 3.695-3.016 4.255-8.45 1.244-12.138-3.004-3.685-8.441-4.223-12.135-1.213zM191.278 87.984c10.161-17.468 13.439-7.264 27.383-18.658l12.095-9.873.539-.442.136-.113 12.104-9.873a2.137 2.137 0 0 0 .303-2.996c-3.915-4.795-8.098-6.514-12.543-5.866v-.002c-.012.002-.023.005-.034.005-.133.02-.269.045-.405.07-.102.018-.204.035-.306.058-.128.025-.255.053-.386.085-.11.025-.224.05-.337.079a10.48 10.48 0 0 0-.728.21c-.116.033-.232.07-.346.11-.133.042-.269.09-.402.139-.105.036-.21.076-.317.116l-.462.184c-.088.037-.173.07-.261.108a17.2 17.2 0 0 0-.728.33c-.252.12-.505.247-.757.377-.045.026-.09.052-.136.074a21.737 21.737 0 0 0-.83.462c-.178.105-.36.21-.541.32-.082.05-.162.102-.244.153-.173.107-.345.215-.518.328-.085.057-.17.11-.255.167-.173.117-.346.233-.519.352l-.255.178-.53.382c-.079.06-.161.117-.24.176-.19.142-.383.289-.573.436a37.385 37.385 0 0 0-.983.776l-26.351 21.508-.082.065-.232.2-.088.072-.241.192-.082.065-38.447 31.39a2.138 2.138 0 0 0-.782 1.639c-.003.476.153.955.476 1.348 12.45 15.254 30.207-2.818 36.905-14.33z"/>
            </g>
        </mask>
        <g mask="url(#5eww6aw8qb)">
            <path d="M-21 109h507.95v-298S363.5-331.5 292-172C220.5-12.5 130.504 83.487-21 109z" fill="#1A79CB"/>
        </g>
    </g>
    <defs>
        <clipPath id="yaitdgadma">
            <path fill="#fff" d="M0 0h487v100H0z"/>
        </clipPath>
    </defs>
</svg>
